<?xml version="1.0" encoding="utf-8"?>
<!-- Generator: Adobe Illustrator 16.0.0, SVG Export Plug-In . SVG Version: 6.00 Build 0)  -->
<!DOCTYPE svg PUBLIC "-//W3C//DTD SVG 1.1//EN" "http://www.w3.org/Graphics/SVG/1.1/DTD/svg11.dtd">
<svg version="1.1" id="Layer_1" xmlns="http://www.w3.org/2000/svg" xmlns:xlink="http://www.w3.org/1999/xlink" x="0px" y="0px"
	 width="1142.221px" height="784.643px" viewBox="0 0 1142.221 784.643" enable-background="new 0 0 1142.221 784.643"
	 xml:space="preserve">
<polygon fill-rule="evenodd" clip-rule="evenodd" fill="#E2AFC1" points="837.229,226.259 824.627,249.364 850.507,247.691 "/>
<path fill-rule="evenodd" clip-rule="evenodd" fill="#E2AFC1" d="M1176.221,664.296l10-321.427L875.344,451.564
	c36.511,50.824,71.77,102.438,106.389,154.452L1176.221,664.296z"/>
<polygon fill-rule="evenodd" clip-rule="evenodd" fill="#E2AFC1" points="1182.377,140.183 819.474,267.202 864.033,211.082 
	1012.466,171.795 "/>
<path fill-rule="evenodd" clip-rule="evenodd" fill="#6D1616" d="M1182.377,466.419l-8.156-140.453L928.27,340.46
	c-19.475,36.673-37.744,73.954-53.327,112.781L1182.377,466.419z"/>
<path fill-rule="evenodd" clip-rule="evenodd" fill="#BC465D" d="M787.764,448.101l87.179,5.14
	c15.583-38.827,33.853-76.108,53.327-112.781l-112.755,18.294L787.764,448.101z"/>
<path fill-rule="evenodd" clip-rule="evenodd" fill="#CA537D" d="M782.475,476.532l-89.873,24.162l-31.531,66.864l118.978,14.27
	C781.618,546.774,782.619,511.691,782.475,476.532z"/>
<path fill-rule="evenodd" clip-rule="evenodd" fill="#6D1616" d="M981.732,606.017c-34.619-52.014-69.878-103.628-106.389-154.452
	l-92.869,24.967c0.145,35.159-0.856,70.243-2.427,105.295L981.732,606.017z"/>
<polygon fill-rule="evenodd" clip-rule="evenodd" fill="#E2AFC1" points="675.087,685.103 513.731,699.259 754.556,483.993 "/>
<polygon fill-rule="evenodd" clip-rule="evenodd" fill="#BC465D" points="767.666,348.97 631.606,304.14 617.536,376.308 
	707.22,424.881 "/>
<polygon fill-rule="evenodd" clip-rule="evenodd" fill="#BC465D" points="1201.931,698.167 1065.871,653.337 1051.801,725.505 
	1178.293,773.379 "/>
<polygon fill-rule="evenodd" clip-rule="evenodd" fill="#E2AFC1" points="1065.871,653.337 992.015,694.706 928.27,740.542 
	1051.801,725.505 "/>
<path fill-rule="evenodd" clip-rule="evenodd" fill="#6D1616" d="M556.936,267.051l73.188-139.707l-17.554-17.293
	c-59.191,33.104-117.525,67.678-175.631,102.672L556.936,267.051z"/>
<path fill-rule="evenodd" clip-rule="evenodd" fill="#E2AFC1" d="M436.726,212.626l0.214,0.097
	c58.105-34.994,116.439-69.568,175.631-102.672l-79.146-77.97L436.726,212.626z"/>
<polygon fill-rule="evenodd" clip-rule="evenodd" fill="#6D1616" points="811.007,71.291 651.298,52.819 705.951,106.953 
	803.008,156.323 "/>
<polygon fill-rule="evenodd" clip-rule="evenodd" fill="#BC465D" points="873.125,46.325 747.013,32.209 651.298,52.819 
	811.007,71.291 "/>
<polygon fill-rule="evenodd" clip-rule="evenodd" fill="#E2AFC1" points="778.666,125.424 705.951,106.953 705.951,189.221 
	833.848,179.322 "/>
<polygon fill-rule="evenodd" clip-rule="evenodd" fill="#BC465D" points="971.569,161.18 1186.221,138.354 1152.221,0 
	1014.221,32.081 "/>
<path fill-rule="evenodd" clip-rule="evenodd" fill="#BC465D" d="M1174.221,325.966l8.156-185.783L998.72,204.464
	c27.118,43.231,54.526,86.462,81.18,130.124L1174.221,325.966z"/>
<path fill-rule="evenodd" clip-rule="evenodd" fill="#6D1616" d="M998.72,204.464l-179.246,62.737l-3.959,91.553l264.385-24.167
	C1053.246,290.927,1025.838,247.695,998.72,204.464z"/>
<polygon fill-rule="evenodd" clip-rule="evenodd" fill="#BC465D" points="506.962,574.483 631.933,483.993 402.886,488.045 "/>
<polygon fill-rule="evenodd" clip-rule="evenodd" fill="#E2AFC1" points="334.058,713.358 303.848,626.784 223.756,706.998 "/>
<polygon fill-rule="evenodd" clip-rule="evenodd" fill="#BC465D" points="453.153,444.434 477.59,465.895 486.418,424.163 "/>
<polygon fill-rule="evenodd" clip-rule="evenodd" fill="#BC465D" points="737.923,703.228 762.359,724.688 771.188,682.958 "/>
<polygon fill-rule="evenodd" clip-rule="evenodd" fill="#E2AFC1" points="805.229,658.839 817.601,638.468 775.263,633.952 "/>
<polygon fill-rule="evenodd" clip-rule="evenodd" fill="#E2AFC1" points="937.066,173.624 949.438,153.252 907.101,148.737 "/>
<polygon fill-rule="evenodd" clip-rule="evenodd" fill="#E2AFC1" points="852.686,92.49 867.357,111.273 886.569,73.276 "/>
<polygon fill-rule="evenodd" clip-rule="evenodd" fill="#E2AFC1" points="869.627,672.996 884.299,691.779 903.511,653.781 "/>
<polygon fill-rule="evenodd" clip-rule="evenodd" fill="#6D1616" points="752.778,267.202 745.683,294.214 768.032,308.57 
	796.432,267.202 "/>
<polygon fill-rule="evenodd" clip-rule="evenodd" fill="#BC465D" points="668.454,219.24 634.144,246.931 667.536,256.383 "/>
<polygon fill-rule="evenodd" clip-rule="evenodd" fill="#BC465D" points="789.273,237.61 767.892,199.05 752.841,237.812 "/>
<polygon fill-rule="evenodd" clip-rule="evenodd" fill="#6D1616" points="863.148,140.183 872.253,164.876 883.326,140.183 "/>
<polygon fill-rule="evenodd" clip-rule="evenodd" fill="#6D1616" points="847.928,712.343 857.032,737.036 868.105,712.343 "/>
<polygon fill-rule="evenodd" clip-rule="evenodd" fill="#6D1616" points="727.776,664.296 734.032,681.265 745.683,664.296 "/>
<polygon fill-rule="evenodd" clip-rule="evenodd" fill="#6D1616" points="864.968,612.007 848.887,620.281 867.146,629.78 "/>
<polygon fill-rule="evenodd" clip-rule="evenodd" fill="#6D1616" points="965.52,62.404 949.438,70.679 967.698,80.178 "/>
<polygon fill-rule="evenodd" clip-rule="evenodd" fill="#BC465D" points="409.541,74.861 440.463,56.605 403.173,39.881 "/>
<polygon fill-rule="evenodd" clip-rule="evenodd" fill="#E2AFC1" points="430.549,318.167 457.701,322.528 459.809,285.914 
	410.606,279.942 "/>
<polygon fill-rule="evenodd" clip-rule="evenodd" fill="#6D1616" points="538.44,342.869 530.044,386.153 583.527,374.278 "/>
<polygon fill-rule="evenodd" clip-rule="evenodd" fill="#BC465D" points="945.098,642.484 951.504,686.107 998.04,657.197 "/>
<polygon fill-rule="evenodd" clip-rule="evenodd" fill="#6D1616" points="199.493,641.564 161.964,618.422 154.184,672.652 "/>
<polygon fill-rule="evenodd" clip-rule="evenodd" fill="#6D1616" points="263.695,535.651 287.4,572.825 318.02,527.394 "/>
<polygon fill-rule="evenodd" clip-rule="evenodd" fill="#BC465D" points="402.25,571.028 368.872,616.215 386.015,645.206 
	453.152,633.952 "/>
<polygon fill-rule="evenodd" clip-rule="evenodd" fill="#BC465D" points="705.156,722.886 616.984,731.988 674.73,771.207 "/>
<polygon fill-rule="evenodd" clip-rule="evenodd" fill="#BC465D" points="339.642,334.535 331.247,377.819 384.729,394.487 "/>
<polygon fill-rule="evenodd" clip-rule="evenodd" fill="#BC465D" points="671.552,458.431 668.454,474.408 716.748,470.752 "/>
<polygon fill-rule="evenodd" clip-rule="evenodd" fill="#BC465D" points="824.712,206.918 829.899,218.33 858.583,194.475 "/>
<polygon fill-rule="evenodd" clip-rule="evenodd" fill="#6D1616" points="395.436,720.251 410.689,761.62 439.089,720.251 "/>
</svg>
