<?xml version="1.0" encoding="utf-8"?>
<!-- Generator: Adobe Illustrator 16.0.0, SVG Export Plug-In . SVG Version: 6.00 Build 0)  -->
<!DOCTYPE svg PUBLIC "-//W3C//DTD SVG 1.1//EN" "http://www.w3.org/Graphics/SVG/1.1/DTD/svg11.dtd">
<svg version="1.1" id="Layer_1" xmlns="http://www.w3.org/2000/svg" xmlns:xlink="http://www.w3.org/1999/xlink" x="0px" y="0px"
	 width="841.891px" height="201.84px" viewBox="0 0 841.891 201.84" enable-background="new 0 0 841.891 201.84"
	 xml:space="preserve">
<g>
	<path fill="#751E42" d="M185.066,94.364c3.926,3.879,7.853,7.758,11.779,11.636c0.802,0.792,1.609,1.579,2.408,2.374
		c0.724,0.719,0.724,0.727,0.02,1.432c-2.749,2.749-5.502,5.492-8.251,8.241c-27.569,27.572-55.139,55.143-82.703,82.719
		c-0.355,0.355-0.649,0.771-0.901,1.075c-0.588-0.117-0.762-0.45-1.001-0.688c-14.292-14.294-28.577-28.594-42.869-42.888
		c-14.209-14.212-28.424-28.418-42.637-42.626c-1.759-1.759-3.527-3.509-5.286-5.269c-0.767-0.768-0.76-0.773-0.009-1.518
		c6.379-6.318,12.759-12.639,19.14-18.957c0.47-0.465,0.949-0.918,1.425-1.377c0.353-0.179,0.624-0.458,0.896-0.736
		c4.138-4.216,8.396-8.312,12.605-12.455c4.761-4.688,9.574-9.322,14.396-13.947c2.355-2.259,4.632-4.599,7.009-6.833
		c4.867-4.579,9.607-9.287,14.418-13.923c4.699-4.529,9.387-9.068,14.082-13.601c2.348-2.266,4.678-4.55,7.016-6.827
		c0.889-0.865,1.102-0.833,2.026-0.006c2.667,2.384,5.119,4.99,7.704,7.456c5.37,5.122,10.651,10.333,15.981,15.494
		c4.716,4.566,9.438,9.126,14.152,13.693c5.078,4.918,10.141,9.854,15.232,14.758c4.925,4.742,9.808,9.528,14.707,14.297
		C179.3,88.706,182.073,91.648,185.066,94.364z"/>
	<path fill="#C3735A" d="M185.066,94.364c-0.485-0.035-0.716-0.438-1.014-0.727c-1.2-1.164-2.378-2.35-3.574-3.517
		c-3.394-3.311-6.746-6.662-10.201-9.905c-2.495-2.341-4.851-4.822-7.363-7.138c-2.516-2.319-4.854-4.817-7.369-7.134
		c-2.459-2.265-4.746-4.706-7.198-6.973c-2.656-2.453-5.135-5.088-7.786-7.539c-2.199-2.032-4.256-4.206-6.445-6.243
		c-2.875-2.673-5.587-5.513-8.455-8.189c-2.473-2.309-4.798-4.765-7.277-7.06c-2.625-2.429-5.104-5.003-7.701-7.458
		c-0.817-0.772-1.644-1.539-2.459-2.313c-0.577-0.548-0.593-0.547-1.202,0.04c-0.672,0.646-1.326,1.312-1.995,1.963
		c-3.59,3.497-7.143,7.036-10.789,10.472c-2.434,2.292-4.739,4.713-7.198,6.974c-2.319,2.131-4.468,4.435-6.788,6.56
		c-2.466,2.258-4.744,4.708-7.204,6.968c-2.547,2.342-4.911,4.871-7.452,7.214c-2.399,2.214-4.633,4.601-7.035,6.807
		c-2.377,2.183-4.579,4.543-6.953,6.725c-2.548,2.341-4.912,4.869-7.453,7.213c-2.4,2.214-4.674,4.554-7.027,6.816
		c-0.271,0.262-0.493,0.622-0.949,0.603c0.146-0.429,0.523-0.667,0.82-0.963c22.894-22.896,45.79-45.792,68.69-68.681
		c0.652-0.653,1.203-1.417,2.098-2.062c0.65,0.696,1.263,1.394,1.918,2.048c20.417,20.426,40.839,40.846,61.26,61.268
		c4.453,4.453,8.906,8.903,13.354,13.359C184.589,93.759,184.932,93.976,185.066,94.364z"/>
	<path fill="#37121F" d="M181.085,95.981c0.305,0.115,0.492,0.373,0.71,0.591c3.958,3.956,7.914,7.914,11.87,11.872
		c0.138,0.138,0.268,0.283,0.412,0.413c0.354,0.318,0.256,0.598-0.052,0.877c-0.202,0.184-0.385,0.384-0.578,0.576
		c-28.387,28.386-56.772,56.772-85.158,85.158c-1.048,1.047-1.046,1.044-2.119-0.029c-14.509-14.509-29.018-29.018-43.526-43.526
		c-13.794-13.794-27.589-27.589-41.382-41.385c-1.122-1.123-1.141-0.905-0.015-2.034c3.459-3.466,6.922-6.928,10.387-10.388
		c0.19-0.19,0.412-0.351,0.619-0.524c0.657,0.188,0.839,0.863,1.292,1.266c0.574,0.509,1.071,1.101,1.689,1.567
		c1.186,0.895,1.181,0.901,2.396-0.034c0.274-0.211,0.537-0.46,0.928-0.263c0.176,0.626-0.346,0.894-0.673,1.227
		c-1.957,1.984-3.936,3.947-5.902,5.92c-0.504,0.474-0.991,0.965-1.469,1.465c-0.751,0.584-0.718,1.146-0.02,1.774
		c0.649,0.585,1.251,1.224,1.857,1.854c0.068,0.066,0.134,0.141,0.195,0.212c0.063,0.065,0.122,0.137,0.181,0.205
		c0.028,0.031,0.057,0.066,0.087,0.099c0.06,0.06,0.116,0.124,0.172,0.188c0.029,0.028,0.057,0.061,0.086,0.089
		c0.059,0.057,0.115,0.117,0.171,0.176c0.029,0.028,0.057,0.06,0.086,0.087c0.062,0.056,0.118,0.114,0.176,0.173
		c0.03,0.028,0.06,0.059,0.09,0.087c0.064,0.057,0.125,0.116,0.187,0.176c0.033,0.029,0.064,0.06,0.097,0.089
		c0.071,0.06,0.138,0.12,0.204,0.184c0.036,0.03,0.069,0.062,0.106,0.095c0.077,0.064,0.147,0.134,0.22,0.204
		c0.954,0.946,1.912,1.887,2.847,2.847c0.071,0.067,0.137,0.141,0.199,0.214c0.064,0.065,0.125,0.137,0.186,0.208
		c0.03,0.032,0.06,0.068,0.091,0.101c0.062,0.062,0.124,0.128,0.184,0.192c0.032,0.031,0.062,0.064,0.094,0.094
		c0.066,0.061,0.13,0.124,0.193,0.188c0.034,0.03,0.066,0.062,0.101,0.093c0.071,0.061,0.139,0.125,0.208,0.188
		c0.036,0.031,0.069,0.064,0.107,0.097c0.078,0.066,0.149,0.135,0.222,0.207c1.39,1.369,2.756,2.758,4.146,4.123
		c0.081,0.071,0.157,0.147,0.23,0.226c0.08,0.073,0.153,0.152,0.228,0.231c2.741,2.786,5.537,5.518,8.279,8.301
		c0.071,0.069,0.139,0.145,0.205,0.219c0.066,0.068,0.131,0.143,0.193,0.215c0.033,0.033,0.064,0.069,0.098,0.104
		c0.068,0.065,0.134,0.134,0.2,0.203c0.035,0.032,0.068,0.065,0.104,0.099c0.075,0.063,0.145,0.131,0.216,0.199
		c0.038,0.033,0.073,0.068,0.112,0.103c0.081,0.066,0.153,0.139,0.229,0.212c15.91,15.892,31.806,31.797,47.706,47.695
		c0.577,0.577,1.151,1.156,1.783,1.68c0.924,0.819,1.721,1.776,2.69,2.561c0.462-0.454,0.33-0.946,0.33-1.387
		c0.012-16.325,0.178-32.651-0.027-48.974c-0.416-33.111-0.051-66.224-0.177-99.335c-0.003-0.641-0.363-1.51,0.636-1.85
		c0.492,0.654,0.333,1.418,0.333,2.142c0.009,19.469,0.009,38.938,0.006,58.405c0,5.829,0.02,11.657-0.008,17.485
		c-0.019,5.284-0.006,10.567,0.002,15.854c0,0.49-0.09,1.059,0.438,1.366c0.537,0.314,1.162,0.666,1.749,0.398
		c0.522-0.238,0.321-0.902,0.324-1.388c0.029-5.091-0.024-10.182,0.03-15.273c-0.072-0.66-0.036-1.321-0.036-1.98
		c-0.002-24.468-0.002-48.936,0-73.403c0-0.62-0.072-1.253,0.09-1.856c0.099-0.368,0.17-0.952,0.817-0.5
		c0.085,0.967,0.085,1.938,0.086,2.907c0.001,48.468,0,96.937,0.004,145.404c0,0.5-0.075,1.009,0.142,1.716
		c1.173-0.995,2.116-2.096,3.172-3.064c0.138-0.136,0.288-0.26,0.436-0.385c0.51-0.416,0.965-0.896,1.431-1.361
		c11.196-11.188,22.377-22.392,33.579-33.572c0.069-0.074,0.146-0.144,0.221-0.212c0.036-0.033,0.074-0.066,0.11-0.101
		c0.069-0.069,0.143-0.134,0.216-0.199c0.035-0.035,0.072-0.065,0.106-0.101c0.065-0.072,0.138-0.14,0.208-0.208
		c0.034-0.037,0.068-0.071,0.103-0.108c0.066-0.079,0.136-0.15,0.207-0.226c0.035-0.04,0.072-0.076,0.107-0.115
		c4.744-4.766,9.51-9.508,14.251-14.274c1.849-1.807,3.652-3.658,5.492-5.475c0.069-0.076,0.146-0.147,0.223-0.218
		c0.037-0.036,0.076-0.07,0.112-0.106c0.07-0.074,0.146-0.143,0.222-0.214c0.036-0.038,0.073-0.072,0.108-0.109
		c0.068-0.078,0.143-0.151,0.215-0.228c0.036-0.04,0.073-0.076,0.108-0.116c4.046-4,7.994-8.097,12.103-12.033
		c0.57-0.683,1.226-1.284,1.848-1.92c0.872-0.892,0.877-0.924-0.035-1.84c-2.071-2.081-4.156-4.148-6.222-6.234
		c-0.341-0.345-0.813-0.63-0.766-1.226c1.122-0.928,2.435-1.57,3.627-2.396c1.058-0.734,1.076-0.693,0.273-1.641
		C181.196,96.76,180.779,96.488,181.085,95.981z"/>
	<path fill="#2C1019" d="M181.085,95.981c0.004,0.441,0.348,0.666,0.608,0.94c0.265,0.279,0.54,0.549,0.804,0.83
		c0.049,0.053,0.065,0.136,0.153,0.328c-1.697,0.98-3.176,2.337-5.073,3.03c-0.039-0.01-0.077-0.021-0.117-0.03
		c-0.069-0.039-0.136-0.085-0.196-0.14c-0.03-0.026-0.061-0.055-0.092-0.082c-0.063-0.054-0.125-0.11-0.186-0.168
		c-0.034-0.026-0.065-0.056-0.099-0.083c-0.074-0.053-0.146-0.105-0.221-0.157c-0.042-0.024-0.08-0.051-0.122-0.074
		c-0.091-0.048-0.175-0.104-0.261-0.159c-0.513-0.363-0.928-0.831-1.367-1.271c-9.731-9.729-19.462-19.46-29.192-29.19
		c-1.141-1.142-1.144-1.142-2.262-0.023c-2.998,2.995-5.987,5.996-8.99,8.985c-1.128,1.123-1.51,1.088-2.23-0.301
		c-2.363-4.554-4.785-9.073-7.176-13.612c-4.11-7.803-8.231-15.601-12.366-23.392c-0.892-1.682-1.836-3.336-2.664-5.053
		c-0.216-0.447-0.487-0.887-0.364-1.424c-0.112-0.218-0.306-0.314-0.372-0.026c-0.084,0.37-0.058,0.77-0.058,1.155
		c-0.002,24.982-0.002,49.965-0.002,74.947c0,0.505-0.003,1.01-0.005,1.515c-1.28,0.446-2.263-0.15-3.201-0.908
		c-0.016-0.543-0.046-1.088-0.046-1.631c-0.002-24.992-0.002-49.986-0.004-74.979c0-0.543-0.029-1.086-0.044-1.63
		c-0.063-0.06-0.132-0.111-0.207-0.153c-0.458,0.108-0.676,0.509-0.969,0.802c-8.519,8.507-17.026,17.021-25.548,25.523
		c-0.447,0.446-0.82,1.213-1.571,1.028c-0.815-0.201-0.812-1.081-0.932-1.737c-0.259-1.41-0.389-2.843-0.771-4.232
		c-0.087-0.315-0.009-0.613,0.167-0.888c0.257-0.289,0.499-0.592,0.771-0.865c9.914-9.919,19.831-19.836,29.748-29.753
		c0.139-0.137,0.285-0.266,0.41-0.414c0.279-0.329,0.547-0.4,0.853-0.026c0.146,0.18,0.327,0.332,0.491,0.497
		c23.871,23.871,47.742,47.744,71.611,71.619C180.375,95.163,180.82,95.492,181.085,95.981z"/>
	<path fill="#2E111B" d="M76.109,53.723c-0.024,0.829,0.293,1.593,0.485,2.375c0.239,0.979,0.128,2.005,0.449,2.967
		c0.074,0.22,0.116,0.449,0.191,0.667c0.303,0.882,0.472,0.932,1.151,0.257c1.875-1.856,3.734-3.729,5.601-5.595
		c6.97-6.969,13.938-13.938,20.908-20.908c0.22-0.22,0.436-0.442,0.662-0.655c0.138-0.129,0.302-0.307,0.478-0.071
		c0.14,0.187-0.045,0.359-0.093,0.537c-0.539,0.331-0.86,0.878-1.295,1.312C92.982,46.256,81.33,57.913,69.675,69.567
		c-0.412,0.413-0.819,0.83-1.272,1.199c-8.036,8.201-16.224,16.248-24.312,24.396c-1.783,1.656-3.357,3.529-5.243,5.083
		c-0.115,0.029-0.214-0.001-0.298-0.083c-0.573,0.04-0.823,0.53-1.184,0.861c-0.704,0.646-0.916,0.68-1.679,0.099
		c-1.322-1.006-2.563-2.096-3.434-3.541c0.312-0.345,0.611-0.702,0.939-1.03C47.18,82.557,61.169,68.566,75.161,54.578
		C75.461,54.277,75.793,54.007,76.109,53.723z"/>
	<path fill="#FEECEC" d="M68.16,70.562c4.073-4.059,8.15-8.115,12.218-12.178c8.193-8.186,16.38-16.375,24.583-24.55
		c0.253-0.251,0.4-0.832,0.981-0.536l-0.001,0.082c-0.173,0.532-0.082,1.08-0.082,1.619c-0.002,49.732,0.001,99.466,0.004,149.199
		c0,0.536,0,1.072,0,1.608c-0.07,0.037-0.14,0.075-0.209,0.112c-1.244-1.241-2.488-2.483-3.733-3.726
		c-0.542-1.547-0.291-3.156-0.292-4.729c-0.004-8.837,0.02-17.674,0.012-26.512c-0.001-0.813,0.098-1.626-0.005-2.438
		c-0.032-0.132-0.045-0.269-0.042-0.404c0.13-0.764,0.168-1.527-0.019-2.292c-0.026-0.205-0.017-0.408,0.021-0.611
		c0.161-3.984,0.123-7.969,0.013-11.95c-0.024-0.138-0.031-0.277-0.025-0.416c0.114-1.411,0.194-2.822,0.007-4.236
		c-0.016-0.143-0.013-0.285,0-0.427c0.178-7.605,0.094-15.209,0.047-22.808c-0.147-0.549-0.542-0.925-0.918-1.32
		c-7.571-7.959-15.418-15.646-23.195-23.401c-2.968-2.96-5.722-6.125-8.754-9.02C68.469,71.339,68.106,71.063,68.16,70.562z"/>
	<path fill="#FEECEB" d="M109.674,34.938c0.76,1.744,1.729,3.378,2.612,5.058c6.698,12.701,13.408,25.396,20.116,38.094
		c0.234,0.444,0.486,0.88,0.81,1.462c3.812-3.803,7.568-7.553,11.487-11.464c0.297,0.385,0.524,0.757,0.824,1.058
		c10.083,10.092,20.171,20.176,30.264,30.258c0.271,0.271,0.495,0.601,0.858,0.771c0.082,0.077,0.171,0.146,0.239,0.239
		l-0.005-0.004c0.089,0.069,0.167,0.148,0.237,0.237l-0.005-0.005c0.089,0.07,0.168,0.149,0.238,0.239l-0.006-0.005
		c0.093,0.066,0.163,0.155,0.237,0.24l-0.004-0.004c1.442,1.663,3.086,3.128,4.615,4.707c1.049,1.082,2.117,2.146,3.205,3.188
		c0.391,0.375,0.434,0.62,0.013,1.019c-0.866,0.822-1.676,1.704-2.509,2.562c-0.295,0.115-0.542,0.01-0.776-0.167
		c-5.801-5.668-11.257-11.681-17.103-17.305c-0.08-0.07-0.155-0.147-0.229-0.225c-0.076-0.073-0.148-0.151-0.22-0.229
		c-0.354-0.388-0.734-0.748-1.106-1.115c-0.473-0.492-0.955-0.971-1.448-1.442c-2.816-2.73-5.336-5.751-8.205-8.431
		c-0.081-0.071-0.157-0.148-0.231-0.227c-0.079-0.072-0.151-0.15-0.225-0.229c-1.034-1.081-2.122-2.108-3.16-3.184
		c-0.071-0.068-0.138-0.144-0.203-0.218c-0.066-0.067-0.13-0.141-0.192-0.213c-0.033-0.033-0.064-0.069-0.098-0.103
		c-0.068-0.064-0.133-0.133-0.199-0.201c-0.034-0.032-0.067-0.066-0.103-0.098c-0.075-0.063-0.144-0.131-0.215-0.197
		c-0.037-0.032-0.072-0.067-0.11-0.102c-0.079-0.065-0.151-0.138-0.226-0.21c-1.216-1.202-2.442-2.395-3.624-3.63
		c-0.565-0.591-0.989-0.561-1.541,0.016c-1.208,1.263-2.467,2.477-3.695,3.722c-0.07,0.081-0.146,0.155-0.224,0.229
		c-0.037,0.038-0.077,0.073-0.114,0.111c-0.615,0.567-1.19,1.177-1.784,1.766c-0.335,0.316-0.661,0.642-0.979,0.974
		c-0.478,0.462-0.945,0.934-1.407,1.412c-0.417,0.404-0.827,0.817-1.223,1.244c-0.521,0.52-1.019,1.064-1.568,1.552
		c-0.758,0.672-1.161,0.632-1.636-0.256c-0.711-1.331-1.395-2.677-2.14-3.988c-0.164-0.35-0.33-0.7-0.52-1.038
		c-1.227-2.313-2.492-4.606-3.705-6.929c-0.511-1.234-1.311-2.315-1.876-3.521c-0.966-1.754-1.86-3.547-2.818-5.305
		c-1.894-3.627-3.9-7.195-5.736-10.854c-0.07-0.138,0.023,0.034-0.07-0.09c-0.06-0.078-0.127-0.062-0.18,0.042
		c0.013,11.863,0.033,23.709,0.024,35.558c-0.022,30.064-0.022,60.131-0.027,90.196c0,0.592-0.057,1.162-0.297,1.706
		c-1.399,1.317-2.8,2.634-4.233,3.983c0-0.313-0.001-0.687,0-1.057c0.001-49.42,0.001-98.84,0.011-148.259
		C109.49,35.829,109.323,35.342,109.674,34.938z"/>
	<path fill="#A52B22" d="M101.812,148.136c0.195,0.364,0.117,0.76,0.117,1.142c-0.008,8.104-0.024,16.208-0.031,24.312
		c-0.002,2.868,0.015,5.736,0.022,8.604c-0.174-0.151-0.355-0.295-0.519-0.458c-15.949-15.947-31.896-31.896-47.842-47.849
		c-0.272-0.272-0.59-0.509-0.763-0.871c-0.086-0.046-0.152-0.111-0.198-0.198l-0.033-0.032c-0.086-0.048-0.154-0.114-0.201-0.201
		l-0.032-0.032c-0.086-0.048-0.153-0.115-0.202-0.202l-0.03-0.03c-0.087-0.048-0.153-0.115-0.202-0.201l-0.014-0.024
		c0.281-1.108,1.061-0.653,1.646-0.452c2.166,0.744,4.326,1.5,6.519,2.164c4.648,1.406,9.155,3.188,13.611,5.123
		c3.812,1.657,7.83,2.754,11.838,3.84c4.281,1.16,8.46,2.577,12.36,4.728c0.75,0.414,1.575,0.668,2.328,1.065
		C100.897,148.938,101.418,148.838,101.812,148.136z"/>
	<path fill="#A52B22" d="M148.907,146.382c-0.203,0.231-0.392,0.479-0.609,0.696c-11.221,11.226-22.443,22.448-33.668,33.67
		c-0.218,0.218-0.461,0.412-0.691,0.615c-0.263-0.349-0.136-0.752-0.136-1.128c-0.007-9.596-0.009-19.19-0.005-28.784
		c0.133-0.494,0.562-0.495,0.935-0.514c5.046-0.253,10.035-0.945,14.998-1.87c3.931-0.731,7.792-1.781,11.715-2.536
		c2.363-0.453,4.681-1.117,7.06-1.484c0.467-0.072,1.098-0.429,1.345,0.385l-0.002-0.005c-0.104,0.059-0.175,0.147-0.241,0.242
		l0.008-0.008c-0.096,0.064-0.177,0.145-0.241,0.241l0.008-0.008c-0.097,0.064-0.178,0.146-0.24,0.242l0.007-0.008
		C149.047,146.193,148.972,146.283,148.907,146.382z"/>
	<path fill="#C3745C" d="M113.937,151.251c-0.012,5.192-0.03,10.386-0.03,15.58c0,4.845,0.021,9.688,0.03,14.532
		c-0.074,0.081-0.149,0.162-0.224,0.242c-0.016-3.067-0.045-6.136-0.046-9.205c-0.007-22.068-0.071-44.139,0.015-66.208
		c0.052-13.364-0.032-26.729,0.041-40.094c0.021-4.002-0.021-8.004-0.022-12.005c0-0.372-0.102-0.765,0.097-1.125
		c0.187,0.058,0.285,0.161,0.305,0.332c0.312,1.811,0.18,3.638,0.181,5.458c0.001,4.696,0.042,9.392-0.02,14.087
		c0.047,2.848,0.014,5.696-0.01,8.543c0.016,0.577,0.035,1.155-0.003,1.731c0.029,1.231,0.021,2.464,0.004,3.694
		c-0.06,1.619,0.228,1.918,1.831,1.835c1.308-0.066,2.548-0.505,3.644-1.133c3.189-1.831,6.38-3.676,9.371-5.834
		c1.007,1.495,1.686,3.179,2.649,4.771c0.994-0.61,1.559-1.581,2.44-2.186c1.25,0.544,2.305,1.414,3.491,2.072
		c4.066,2.254,8.472,3.636,12.867,5.035c4.405,1.4,8.896,2.459,13.465,3.167c0.345,0.053,0.645,0.286,1.01,0.237
		c0.258,0.229,0.531,0.443,0.772,0.689c5.301,5.37,10.598,10.744,15.892,16.12c0.212,0.216,0.491,0.386,0.57,0.711
		c-0.857,0.319-1.391-0.431-2.089-0.636c-0.086-0.04-0.169-0.088-0.25-0.139c-0.12-0.067-0.238-0.138-0.36-0.201
		c-0.083-0.038-0.163-0.082-0.242-0.127c-0.165-0.082-0.336-0.154-0.505-0.233c-0.264-0.127-0.528-0.247-0.791-0.375
		c-0.396-0.212-0.797-0.408-1.201-0.603c-0.092-0.041-0.18-0.089-0.268-0.139c-0.136-0.068-0.271-0.138-0.408-0.203
		c-1.035-0.494-1.972-1.174-3.036-1.61c-1.308-0.69-2.646-1.317-3.963-1.985c-0.098-0.044-0.19-0.095-0.284-0.147
		c-0.145-0.072-0.288-0.146-0.435-0.216c-2.55-1.343-5.088-2.708-7.694-3.939c-3.438-1.812-6.916-3.551-10.37-5.331
		c-5.804-2.992-11.719-5.761-17.518-8.763c-0.828-0.43-1.354-0.374-2.023,0.303c-5.225,5.275-10.48,10.521-15.746,15.756
		c-0.629,0.625-0.941,1.292-0.88,2.172c0.043,0.619,0.009,1.244,0.056,1.867c0.029,1.47,0.037,2.938,0.007,4.406
		c0.059,5.396,0.061,10.792,0.003,16.188c0.038,2.764,0.056,5.528-0.005,8.292c-0.001,0.434,0.039,0.867,0.003,1.3
		c-0.018,0.568,0.025,1.136-0.008,1.704c0.039,1.077,0.033,2.153,0.005,3.23c0.039,1.244,0.037,2.488,0.002,3.733
		c0.057,1.151,0.024,2.302,0.018,3.453C114.267,150.484,114.233,150.906,113.937,151.251z"/>
	<path fill="#90251D" d="M179.937,111.35c0.838,0.157,1.461,0.839,2.315,0.952c0.196,0.142,0.396,0.276,0.649,0.282
		c-0.374,0.337-0.761,0.658-1.116,1.013c-3.413,3.405-6.816,6.817-10.229,10.223c-0.302,0.301-0.56,0.651-0.95,0.853
		c-4.515,1.541-9.069,2.977-13.115,5.62c-3.952,2.58-8.278,4.44-12.526,6.451c-3.056,1.445-6.185,2.723-9.332,3.953
		c-2.555,1-5.272,1.4-7.963,1.659c-4.087,0.393-8.171,0.982-12.299,0.816c-0.498-0.021-1.021,0.071-1.439-0.317
		c-0.001-1.088-0.002-2.177-0.004-3.266c0.878-0.511,1.884-0.438,2.826-0.506c4.146-0.304,8.245-1.021,12.388-1.337
		c5.153-0.396,9.738-2.531,14.332-4.634c1.091-0.499,2.111-1.184,3.058-1.918c2.467-1.915,5.367-2.954,8.18-4.156
		c2.525-1.08,4.783-2.581,7.008-4.146c0.739-0.52,1.194-1.321,1.61-2.119c1.275-2.442,3.201-4.112,5.747-5.2
		C172.654,114.046,176.307,112.729,179.937,111.35z"/>
	<path fill="#A02A21" d="M101.812,148.136c-0.007,0.077-0.017,0.154-0.022,0.231c-0.085,1.117-0.087,1.121-1.128,0.696
		c-1.93-0.788-3.775-1.751-5.65-2.654c-2.107-1.017-4.285-1.945-6.616-2.411c-1.021-0.204-1.979-0.639-2.976-0.941
		c-2.29-0.698-4.675-1.096-6.898-1.964c-2.443-0.953-4.93-1.79-7.329-2.872c-2.496-1.125-5.047-2.153-7.678-2.963
		c-3.06-0.941-6.096-1.957-9.139-2.952c-0.477-0.156-0.932-0.376-1.403-0.551c-0.442-0.164-0.843-0.147-1.088,0.339
		c-0.034-0.014-0.08-0.018-0.105-0.042c-2.896-2.818-5.795-5.63-8.543-8.593c-0.086-0.05-0.154-0.12-0.206-0.205l-0.016-0.023
		c-0.295-0.526,0.133-0.594,0.458-0.671c0.469-0.11,0.921,0.041,1.372,0.167c2.923,0.812,5.747,1.819,8.433,3.297
		c3.572,1.967,7.375,3.455,11.238,4.776c4.481,1.534,8.813,3.461,13.256,5.101c3.504,1.294,7.213,1.863,10.749,3.032
		c4.233,1.4,8.551,2.554,12.694,4.227c0.285,0.114,0.6,0.204,0.677,0.57c-0.03,0.604,0.085,1.211-0.087,1.808
		c0.021,0.057,0.049,0.112,0.06,0.172c0.003,0.021-0.037,0.05-0.057,0.076c0.141,0.77,0.141,1.539,0,2.309L101.812,148.136z"/>
	<path fill="#A02A21" d="M113.937,151.251c0-1.556,0-3.11,0-4.665c0.314-0.309,0.712-0.242,1.099-0.253
		c6.583-0.191,13.07-1.097,19.449-2.724c3.024-0.771,5.814-2.188,8.613-3.521c5.048-2.407,10.174-4.644,15.228-7.034
		c1.58-0.748,3.062-1.697,4.696-2.328c0.443-0.172,1.006-0.569,1.288,0.252c-0.175,0.205-0.337,0.423-0.527,0.613
		c-4.436,4.443-8.875,8.884-13.316,13.322c-0.188,0.188-0.411,0.346-0.618,0.518c-0.192-0.258-0.458-0.274-0.734-0.201
		c-1.791,0.477-3.618,0.789-5.421,1.211c-1.683,0.395-3.403,0.674-5.09,1.08c-2.141,0.515-4.314,0.864-6.438,1.461
		c-1.18,0.332-2.426,0.425-3.641,0.636c-2.164,0.375-4.323,0.778-6.492,1.123c-1.028,0.164-2.082,0.146-3.118,0.221
		C117.26,151.078,115.608,151.406,113.937,151.251z"/>
	<path fill="#822119" d="M101.831,128.406l0.021,0.06L101.8,128.5c0.021,0.075,0.051,0.148,0.058,0.226
		c0.188,2.165,0.188,2.156-1.947,1.897c-1.125-0.137-2.25,0.037-3.372,0.095c-3.555,0.184-7.017-0.599-10.521-0.939
		c-2.663-0.259-5.311-0.674-7.937-1.158c-3.399-0.627-6.691-1.649-9.823-3.184c-2.348-1.149-4.572-2.426-6.532-4.192
		c-1.503-1.355-3.409-2.146-5.143-3.177c-0.723-0.43-1.578-0.438-2.383-0.424c-0.806,0.016-1.549-0.147-2.259-0.462
		c-2.022-0.893-4.111-1.64-6.042-2.737c-1.979-1.124-3.518-2.8-5.254-4.223c-1.103-0.903-2.311-1.684-3.196-2.858
		c-0.587-0.776-1.479-0.925-2.431-0.595c-0.589,0.204-1.131,0.521-1.726,0.703c-0.552,0.168-1.146,0.389-1.522-0.324
		c1.894-2.097,3.978-4.007,5.942-6.034c0.294-0.303,0.656-0.548,0.835-0.952c0.073-0.007,0.146-0.01,0.22-0.01
		c0.475-0.271,0.688,0.082,0.955,0.374c1.967,2.158,3.585,4.573,5.264,6.953c0.92,1.306,1.891,2.642,3.438,3.404
		c0.855,0.422,1.309,1.405,2.195,1.883c1.104,0.594,2.21,1.209,3.457,1.336c3.363,0.342,6.088,1.928,8.585,4.085
		c3.354,2.896,7.321,4.642,11.503,5.953c6.288,1.971,12.775,3.015,19.255,4.067c1.756,0.285,3.562,0.173,5.347-0.015
		C99.792,128.086,100.836,127.953,101.831,128.406z"/>
	<path fill="#97281F" d="M101.731,143.55c-1.139-0.115-2.147-0.638-3.184-1.049c-2.051-0.815-4.184-1.361-6.287-2.003
		c-1.66-0.506-3.255-1.205-4.957-1.594c-2.519-0.572-4.975-1.383-7.506-1.932c-1.533-0.333-2.981-1.062-4.465-1.624
		c-1.628-0.616-3.194-1.381-4.839-1.964c-1.932-0.687-3.82-1.498-5.761-2.158c-2.088-0.71-4.129-1.539-6.168-2.369
		c-1.106-0.45-2.183-1.002-3.271-1.475c-2.343-1.015-4.423-2.561-6.929-3.257c-1.333-0.371-2.658-0.814-3.99-1.208
		c-0.47-0.14-1.061-0.441-1.36,0.312c-1.591-1.369-3.053-2.866-4.445-4.433c-0.083-0.055-0.154-0.124-0.209-0.208l-0.023-0.023
		c-0.084-0.056-0.153-0.125-0.209-0.21l-0.023-0.023c-0.084-0.056-0.155-0.124-0.208-0.209l-0.025-0.025
		c-0.085-0.053-0.152-0.123-0.206-0.208l-0.026-0.027c-0.084-0.052-0.153-0.12-0.205-0.207l-0.009-0.021
		c0.139-0.729,0.663-0.646,1.154-0.505c0.858,0.244,1.736,0.44,2.552,0.809c2.695,1.213,5.478,2.193,8.276,3.123
		c1.93,0.643,3.701,1.626,5.46,2.602c1.945,1.076,3.968,1.974,6.017,2.788c3.502,1.391,6.905,3.001,10.38,4.452
		c4.974,2.079,10.172,3.333,15.375,4.608c2.939,0.72,5.881,1.441,8.806,2.22c1.693,0.451,3.424,0.694,5.124,1.091
		c0.503,0.118,1.124,0.079,1.325,0.752C101.797,140.899,102.085,142.238,101.731,143.55z"/>
	<path fill="#98281F" d="M164.31,130.979c-0.273-0.348-0.608-0.3-0.936-0.114c-1.041,0.593-2.146,1.05-3.193,1.641
		c-1.579,0.891-3.259,1.607-4.911,2.36c-1.796,0.817-3.622,1.569-5.417,2.388c-2.419,1.103-4.786,2.313-7.221,3.388
		c-2.217,0.978-4.39,2.061-6.684,2.854c-1.057,0.364-2.125,0.726-3.216,0.954c-1.809,0.381-3.636,0.67-5.461,0.967
		c-1.976,0.319-3.95,0.674-5.938,0.877c-1.109,0.113-2.227,0.243-3.343,0.283c-1.35,0.049-2.703,0.011-4.055,0.011
		c-0.002-1.244-0.003-2.488-0.004-3.732c1.437,0,2.876-0.039,4.311,0.014c1.094,0.039,2.175-0.066,3.228-0.291
		c0.812-0.175,1.613-0.146,2.422-0.193c2.194-0.125,4.38-0.316,6.539-0.784c1.656-0.359,3.368-0.479,4.96-1.116
		c1.832-0.733,3.664-1.47,5.474-2.255c4.086-1.771,8.112-3.676,12.093-5.675c1.734-0.871,3.325-1.99,5.04-2.883
		c2.188-1.141,4.196-2.653,6.628-3.301c1.648-0.438,3.252-1,4.824-1.666c0.335-0.143,0.763-0.524,1.157-0.032l-0.004-0.006
		c-0.106,0.054-0.168,0.151-0.239,0.24l0.006-0.007c-0.094,0.066-0.174,0.146-0.239,0.241l0.007-0.007
		c-0.101,0.063-0.173,0.155-0.239,0.251C168.116,127.329,166.252,129.193,164.31,130.979z"/>
	<path fill="#90251D" d="M101.73,139.352c-2.615-0.489-5.222-1.008-7.798-1.691c-3.954-1.051-7.941-1.973-11.911-2.965
		c-2.926-0.73-5.863-1.457-8.652-2.611c-2.288-0.947-4.624-1.777-6.854-2.872c-1.7-0.834-3.507-1.447-5.229-2.237
		c-2.104-0.966-4.269-1.786-6.31-2.919c-2.122-1.178-4.289-2.305-6.638-3.041c-2.434-0.762-4.821-1.666-7.151-2.718
		c-0.911-0.412-1.898-0.649-2.848-0.979c-0.399-0.139-0.663,0.062-0.916,0.316c-1.212-0.971-2.279-2.088-3.288-3.265
		c-0.082-0.059-0.152-0.129-0.212-0.211l-0.021-0.021c-0.083-0.059-0.153-0.13-0.212-0.213l-0.021-0.021
		c-0.083-0.058-0.152-0.128-0.21-0.212l-0.022-0.022c-0.083-0.058-0.153-0.125-0.208-0.21l-0.025-0.024
		c-0.083-0.056-0.153-0.125-0.208-0.209l-0.024-0.024c-0.084-0.056-0.153-0.124-0.208-0.208l-0.025-0.025
		c-0.084-0.054-0.153-0.125-0.208-0.208l-0.009-0.021c0.127-0.917,0.787-0.734,1.311-0.546c2.592,0.937,5.336,1.509,7.733,2.915
		c2.393,1.403,4.955,2.403,7.484,3.496c4.997,2.157,9.847,4.629,14.736,7.011c6.177,3.011,12.499,5.565,19.36,6.54
		c4.347,0.618,8.651,1.509,13.007,2.067c1.617,0.208,3.234,0.352,4.8,0.829c0.355,0.108,0.807,0.038,0.939,0.537
		C101.791,136.84,102.1,138.11,101.73,139.352z"/>
	<path fill="#8A231B" d="M101.73,135.388c-0.752,0.095-1.507-0.042-2.158-0.338c-0.751-0.343-1.502-0.289-2.267-0.374
		c-1.724-0.19-3.451-0.39-5.151-0.715c-1.934-0.37-3.885-0.608-5.82-0.943c-3.266-0.564-6.556-1.026-9.758-1.938
		c-3.21-0.914-6.307-2.112-9.331-3.511c-1.795-0.828-3.637-1.568-5.37-2.512c-1.265-0.688-2.592-1.221-3.866-1.875
		c-3.59-1.844-7.226-3.598-10.973-5.087c-1.773-0.705-3.46-1.523-5.103-2.475c-1.413-0.819-2.938-1.396-4.495-1.893
		c-1.251-0.399-2.488-0.846-3.724-1.294c-0.484-0.176-0.906-0.24-1.193,0.303c-1.059-0.77-1.872-1.794-2.811-2.688
		c-0.294-0.28-0.334-0.598-0.021-0.898c0.219-0.211,0.455-0.404,0.683-0.605c0.378-0.123,0.672,0.104,0.99,0.235
		c1.043,0.432,2.109,0.811,3.22,1.008c3.293,0.585,6.166,2.083,8.804,4.061c1.225,0.918,2.523,1.665,3.942,2.217
		c1.269,0.495,2.517,1.028,3.729,1.651c1.004,0.517,2.064,0.848,3.167,1.131c2.312,0.594,4.424,1.705,6.419,2.986
		c3.934,2.523,7.949,4.873,12.429,6.304c3.6,1.151,7.303,1.826,11.05,2.272c3.005,0.356,6.007,0.745,9.017,1.077
		c1.588,0.176,3.182,0.058,4.772,0.083c1.437,0.024,2.751,0.39,3.907,1.265l0.045,0.067l-0.045,0.068
		C101.883,133.78,102.052,134.593,101.73,135.388z"/>
	<path fill="#86221A" d="M101.816,132.835c-0.449,0.033-0.825-0.172-1.209-0.361c-0.812-0.396-1.666-0.598-2.575-0.586
		c-1.126,0.015-2.252-0.002-3.378,0.005c-1.356,0.008-2.682-0.304-4.022-0.388c-1.623-0.102-3.212-0.414-4.822-0.573
		c-2.297-0.227-4.597-0.49-6.856-1.005c-1.504-0.343-3.021-0.628-4.513-1.03c-1.91-0.515-3.737-1.248-5.541-2.032
		c-2.958-1.284-5.669-3.021-8.381-4.751c-1.803-1.15-3.684-2.297-5.742-2.752c-2.778-0.612-5.104-2.198-7.737-3.077
		c-1.514-0.506-2.816-1.406-4.091-2.364c-2.664-2.004-5.628-3.345-8.927-3.956c-1.289-0.239-2.558-0.625-3.648-1.418
		c0.396-0.536,0.86-1.003,1.399-1.396c0.652,0.458,1.294,0.185,1.857-0.132c0.483-0.271,0.997-0.409,1.499-0.604
		c0.951-0.37,1.739-0.095,2.436,0.571c0.306,0.294,0.608,0.588,0.83,0.969c0.15,0.261,0.373,0.52,0.626,0.677
		c1.883,1.173,3.427,2.754,5.079,4.201c1.095,0.958,2.376,1.593,3.646,2.233c1.063,0.537,2.235,0.854,3.288,1.431
		c1.387,0.76,2.911,0.864,4.438,0.921c0.531,0.02,1.001,0.161,1.421,0.439c1.545,1.029,3.248,1.787,4.758,2.887
		c0.761,0.553,1.316,1.311,2.104,1.819c1.331,0.861,2.708,1.626,4.129,2.338c1.319,0.661,2.65,1.269,4.041,1.73
		c1.902,0.632,3.799,1.388,5.792,1.59c1.998,0.203,3.908,0.871,5.938,0.904c1.261,0.02,2.527,0.277,3.771,0.521
		c0.989,0.194,1.992,0.176,2.984,0.349c0.714,0.124,1.452,0.228,2.166,0.285c1.002,0.082,2.033,0.475,3.05,0.041
		c1.816,0.281,3.67-0.419,5.475,0.206c0.178,0.062,0.358,0.158,0.608,0.002c0.16-0.638,0.021-1.341,0.095-2.028
		C102.037,129.944,102.006,131.389,101.816,132.835z"/>
	<path fill="#2F111B" d="M106.035,111.621c1.088,0.228,2.038,0.945,3.201,0.908c0.002,5.351,0.004,10.7,0.005,16.051
		c0,0.231,0,0.465-0.009,0.697c-0.017,0.406-0.269,0.567-0.623,0.476c-0.746-0.193-1.48-0.435-2.22-0.654
		c-0.252-0.075-0.392-0.235-0.397-0.501c-0.003-0.155-0.008-0.31-0.008-0.465c0-5.35,0.001-10.7,0.004-16.05
		C105.989,111.928,106.019,111.774,106.035,111.621z"/>
	<path fill="#97281F" d="M43.029,123.254c0.068,0.067,0.137,0.137,0.206,0.205C43.12,123.436,43.052,123.368,43.029,123.254z"/>
	<path fill="#90251D" d="M170.365,124.906c0.08-0.079,0.159-0.159,0.239-0.24C170.524,124.746,170.444,124.826,170.365,124.906z"/>
	<path fill="#90251D" d="M170.132,125.14c0.08-0.081,0.16-0.161,0.239-0.241C170.292,124.979,170.212,125.06,170.132,125.14z"/>
	<path fill="#90251D" d="M169.899,125.384c0.08-0.084,0.159-0.167,0.239-0.251C170.059,125.217,169.979,125.3,169.899,125.384z"/>
	<path fill="#A02A21" d="M51.898,132.118c0.066,0.066,0.135,0.135,0.202,0.201C51.987,132.299,51.919,132.231,51.898,132.118z"/>
	<path fill="#A02A21" d="M52.132,132.351c0.067,0.068,0.135,0.135,0.202,0.202C52.22,132.531,52.153,132.464,52.132,132.351z"/>
	<path fill="#A02A21" d="M52.365,132.584c0.067,0.066,0.134,0.134,0.201,0.201C52.454,132.764,52.387,132.697,52.365,132.584z"/>
	<path fill="#A02A21" d="M52.599,132.818c0.065,0.066,0.133,0.133,0.198,0.198C52.686,132.996,52.62,132.929,52.599,132.818z"/>
	<path fill="#A02A21" d="M148.907,146.382c0.08-0.085,0.16-0.17,0.239-0.255C149.066,146.212,148.986,146.296,148.907,146.382z"/>
	<path fill="#A02A21" d="M149.139,146.135c0.08-0.081,0.159-0.161,0.24-0.242C149.299,145.975,149.219,146.055,149.139,146.135z"/>
	<path fill="#A02A21" d="M149.372,145.902c0.081-0.081,0.161-0.161,0.241-0.241C149.532,145.74,149.452,145.821,149.372,145.902z"/>
	<path fill="#A02A21" d="M149.604,145.668c0.08-0.081,0.161-0.161,0.241-0.242C149.766,145.507,149.685,145.588,149.604,145.668z"/>
	<path fill="#8A231B" d="M32.529,112.759c0.069,0.07,0.139,0.139,0.208,0.208C32.668,112.898,32.599,112.829,32.529,112.759z"/>
	<path fill="#8A231B" d="M32.763,112.993c0.068,0.068,0.139,0.139,0.208,0.208C32.901,113.131,32.832,113.062,32.763,112.993z"/>
	<path fill="#8A231B" d="M32.996,113.226c0.069,0.07,0.139,0.14,0.208,0.209C33.134,113.365,33.065,113.295,32.996,113.226z"/>
	<path fill="#8A231B" d="M33.229,113.459c0.068,0.069,0.139,0.141,0.208,0.21C33.368,113.599,33.298,113.529,33.229,113.459z"/>
	<path fill="#8A231B" d="M33.46,113.692c0.07,0.071,0.141,0.143,0.21,0.212C33.6,113.833,33.53,113.763,33.46,113.692z"/>
	<path fill="#8A231B" d="M33.691,113.925c0.071,0.071,0.141,0.143,0.212,0.214C33.833,114.067,33.762,113.997,33.691,113.925z"/>
	<path fill="#8A231B" d="M33.924,114.159c0.07,0.07,0.142,0.141,0.213,0.211C34.065,114.3,33.994,114.229,33.924,114.159z"/>
	<path fill="#90251D" d="M37.432,117.656c0.067,0.069,0.137,0.139,0.205,0.207C37.523,117.838,37.455,117.77,37.432,117.656z"/>
	<path fill="#90251D" d="M37.664,117.89c0.069,0.069,0.139,0.139,0.206,0.208C37.756,118.073,37.688,118.004,37.664,117.89z"/>
	<path fill="#90251D" d="M37.896,118.123c0.068,0.069,0.139,0.14,0.208,0.209C37.99,118.307,37.92,118.237,37.896,118.123z"/>
	<path fill="#90251D" d="M38.127,118.356c0.07,0.07,0.14,0.142,0.209,0.211C38.222,118.541,38.153,118.471,38.127,118.356z"/>
	<path fill="#90251D" d="M38.359,118.59c0.07,0.07,0.139,0.139,0.209,0.209C38.455,118.773,38.385,118.704,38.359,118.59z"/>
	<path fill="#37121F" d="M177.582,101.115c-0.138-0.021-0.217-0.103-0.237-0.24C177.424,100.954,177.503,101.035,177.582,101.115z"
		/>
	<path fill="#37121F" d="M177.35,100.879c-0.139-0.022-0.218-0.102-0.238-0.239C177.191,100.72,177.271,100.8,177.35,100.879z"/>
	<path fill="#37121F" d="M177.117,100.645c-0.138-0.021-0.217-0.1-0.237-0.238C176.958,100.486,177.038,100.565,177.117,100.645z"/>
	<path fill="#37121F" d="M176.884,100.411c-0.138-0.021-0.217-0.103-0.238-0.239C176.724,100.252,176.804,100.332,176.884,100.411z"
		/>
	<path fill="#761F15" d="M68.16,70.562c0.143,0.384,0.478,0.607,0.746,0.879c10.688,10.803,21.379,21.6,32.065,32.402
		c0.294,0.297,0.673,0.531,0.818,0.958c0.175,0.288,0.1,0.605,0.1,0.911c0.004,6.374,0.004,12.748,0.002,19.123
		c0,1.261-0.198,1.317-1.477,1.559c-4.607,0.869-8.853-0.638-13.1-1.973c-5.718-1.796-11.146-4.337-16.609-6.776
		c-0.892-0.397-1.832-0.659-2.759-0.93c-2.864-0.837-5.391-2.351-8.002-3.73c-2.265-1.195-4.673-2.122-6.672-3.776
		c-3.533-2.926-6.37-6.357-7.861-10.78c-0.396-1.177-0.916-2.309-1.509-3.403c0.233-0.415,0.609-0.701,0.937-1.027
		c7.409-7.414,14.822-14.822,22.23-22.236C67.451,71.378,67.798,70.962,68.16,70.562z"/>
	<path fill="#7D2017" d="M43.903,95.024c0.468,0.021,0.62,0.324,0.774,0.728c0.566,1.479,1.172,2.942,1.787,4.401
		c0.926,2.195,2.265,4.12,3.888,5.854c1.648,1.761,3.425,3.364,5.511,4.607c0.736,0.439,1.483,0.855,2.273,1.169
		c1.515,0.602,2.936,1.348,4.295,2.258c1.125,0.753,2.39,1.306,3.685,1.71c3.107,0.969,6.162,2.069,9.062,3.552
		c1.629,0.833,3.385,1.342,5.038,2.101c2.435,1.117,4.946,2.049,7.497,2.821c2.024,0.614,4.069,1.193,6.145,1.668
		c1.311,0.3,2.583,0.376,3.892,0.4c1.048,0.02,2.06-0.3,3.117-0.271c0.758,0.022,0.906-0.28,0.907-1.292
		c0.004-4.778,0-9.558,0.002-14.337c0.001-1.865,0.008-3.729,0.013-5.594c0.241,0.216,0.148,0.505,0.148,0.763
		c0,7.39-0.005,14.779-0.011,22.168c0,0.23,0.047,0.465-0.098,0.673c-1.645,0.073-3.29,0.139-4.934,0.223
		c-2.766,0.141-5.455-0.35-8.15-0.878c-2.874-0.564-5.76-1.06-8.623-1.683c-3.405-0.739-6.734-1.739-9.974-3.01
		c-1.288-0.505-2.455-1.309-3.717-1.889c-2.146-0.985-3.818-2.614-5.63-4.045c-1.684-1.331-3.522-2.211-5.649-2.484
		c-1.788-0.229-3.5-0.729-4.957-1.801c-1.257-0.924-2.566-1.856-3.641-2.942c-1.782-1.8-3.117-4.008-4.506-6.142
		c-0.299-0.459-0.658-0.855-1.024-1.255c-0.594-0.647-1.392-1.126-1.66-2.05c-0.068-0.232-0.358-0.271-0.595-0.297
		C40.404,98.367,42.114,96.656,43.903,95.024z"/>
	<path fill="#A52B22" d="M101.73,135.388c0.027-0.806,0.057-1.611,0.085-2.417c0.163,0.198,0.127,0.437,0.127,0.665
		c-0.001,3.667-0.002,7.333-0.013,11c0,0.3,0.066,0.621-0.127,0.899c-0.023-0.662-0.047-1.324-0.07-1.986
		c0.067-1.399,0.072-2.798-0.001-4.198C101.8,138.031,101.803,136.709,101.73,135.388z"/>
	<path fill="#A52B22" d="M101.804,148.093c0-0.771,0-1.539,0-2.309C102.004,146.554,102.016,147.323,101.804,148.093z"/>
	<path fill="#C0664A" d="M136.751,81.707c0.242-0.381,0.549-0.696,0.936-0.934c0.493,0.052,0.836,0.375,1.196,0.664
		c2.745,2.202,5.844,3.072,9.329,2.463c1.448-0.253,2.89-0.552,4.368-0.215c0.44,0.102,0.832-0.102,1.211-0.301
		c1.384,1.174,2.575,2.543,3.854,3.823c1.552,1.555,3.058,3.154,4.584,4.734c-0.082,0.74-0.629,0.527-1.035,0.459
		c-2.91-0.484-5.722-1.335-8.528-2.231c-5.092-1.626-9.722-4.21-14.353-6.794C137.661,83.011,136.764,82.733,136.751,81.707z"/>
	<path fill="#C16C51" d="M113.939,87.093c0.002-1.321,0.003-2.642,0.005-3.962c0.883-0.536,1.912-0.625,2.876-0.882
		c1.794-0.479,3.202-1.533,4.546-2.725c0.438-0.387,0.565-0.876,0.533-1.468c-0.089-1.642,1.398-3.734,2.988-4.276
		c1.352,2.276,2.586,4.615,3.73,7.001c0.122,0.336-0.096,0.52-0.331,0.655c-3.317,1.926-6.45,4.181-10.01,5.683
		c-0.828,0.349-1.672,0.661-2.573,0.696C115.034,87.841,114.391,87.667,113.939,87.093z"/>
	<path fill="#C06043" d="M113.945,72.855c-0.008-6.263-0.017-12.525-0.025-18.789c0-0.268-0.037-0.547,0.182-0.764
		c2.032,3.887,4.066,7.773,6.101,11.66c0.289,0.442,0.089,0.799-0.195,1.149c-1.416,1.75-2.666,3.626-4.074,5.381
		C115.42,72.128,114.987,72.959,113.945,72.855z"/>
	<path fill="#C06549" d="M113.945,72.855c0.718-0.264,1.233-0.801,1.671-1.379c1.179-1.557,2.305-3.154,3.461-4.727
		c0.204-0.277,0.44-0.535,0.689-0.772c0.297-0.282,0.486-0.591,0.435-1.014c1.045,1.715,1.981,3.488,2.818,5.312
		c0.245,0.488,0.054,0.868-0.251,1.267c-1.771,2.309-3.98,4.089-6.507,5.5c-1.478,0.824-1.657,1.397-0.92,2.902
		c0.217,0.441,0.634,0.917,0.17,1.369c-0.424,0.413-0.984,0.63-1.566,0.188C113.945,78.619,113.945,75.737,113.945,72.855z"/>
	<path fill="#C0684C" d="M113.945,81.5c0.117,0.001,0.235,0.018,0.349,0c1.326-0.2,1.384-0.312,0.756-1.453
		c-0.036-0.068-0.07-0.137-0.106-0.206c-0.686-1.307-0.371-2.291,0.93-2.962c1.856-0.958,3.58-2.137,5.044-3.658
		c0.645-0.669,1.116-1.485,1.834-2.087c0.267-0.223,0.255-0.549,0.269-0.859c0.733,1.109,1.357,2.277,1.869,3.505
		c-1.049,0.821-1.9,1.812-2.541,2.979c-0.209,0.381-0.371,0.771-0.172,1.218c0.306,0.685,0.019,1.27-0.481,1.661
		c-0.908,0.711-1.708,1.553-2.779,2.077c-1.583,0.774-3.22,1.272-4.971,1.417C113.944,82.587,113.945,82.044,113.945,81.5z"/>
	<path fill="#C26B50" d="M136.751,81.707c0.253,0.63,0.871,0.927,1.375,1.201c0.873,0.475,1.695,1.037,2.608,1.457
		c1.402,0.645,2.734,1.447,4.072,2.223c1.177,0.682,2.458,1.121,3.688,1.676c1.942,0.876,3.979,1.492,5.984,2.189
		c2.289,0.795,4.678,1.229,7.042,1.749c0.284,0.062,0.542,0.019,0.708-0.259c0.542,0.396,0.999,0.875,1.389,1.419
		c-0.222,0.863-0.894,0.551-1.39,0.467c-2.445-0.415-4.859-0.989-7.242-1.67c-4.475-1.278-8.905-2.694-13.172-4.568
		c-1.953-0.858-3.882-1.776-5.564-3.118c-0.435-0.347-1.011-0.643-0.898-1.367C135.747,82.567,136.205,82.093,136.751,81.707z"/>
	<path fill="#C06346" d="M153.792,83.385c0.015,0.393-0.073,0.7-0.561,0.683c-0.077-0.002-0.161,0.022-0.232,0
		c-2.052-0.628-4.06,0.082-6.068,0.274c-3.214,0.307-5.882-0.797-8.304-2.742c-0.322-0.258-0.79-0.37-0.94-0.826
		c0.542-0.693,1.157-1.316,1.854-1.854c0.402,0.047,0.708,0.278,1.021,0.509c2.439,1.792,5.116,1.941,7.93,1.137
		c0.613-0.175,1.029-0.672,1.584-0.938c1.246,1.091,2.397,2.275,3.485,3.523c0.081,0.07,0.153,0.146,0.224,0.228L153.792,83.385z"/>
	<path fill="#C06043" d="M150.076,79.625c-0.137,0.786-0.804,0.985-1.406,1.2c-1.427,0.508-2.909,0.67-4.407,0.433
		c-1.81-0.286-3.484-0.882-4.723-2.34l-0.002,0.01c0.119-0.052,0.188-0.152,0.25-0.26c1.316-1.515,2.814-2.851,4.196-4.297
		c0.29-0.304,0.541-0.4,0.864-0.061c1.402,1.481,2.974,2.798,4.292,4.364c0.063,0.103,0.138,0.195,0.246,0.256l-0.014-0.014
		c0.062,0.103,0.144,0.185,0.245,0.247l-0.012-0.013c0.061,0.103,0.144,0.184,0.244,0.246l-0.013-0.011
		c0.063,0.099,0.139,0.188,0.242,0.246L150.076,79.625z"/>
	<path fill="#C37056" d="M135.351,83.105c0.898,1.341,2.296,2.056,3.65,2.769c4.533,2.385,9.379,3.957,14.262,5.446
		c2.064,0.632,4.171,1.083,6.243,1.669c1.033,0.292,2.123,0.333,3.164,0.625c0.313,0.089,0.705,0.105,0.948-0.25
		c0.461,0.314,0.836,0.713,1.154,1.168c0.062,0.104,0.125,0.212,0.246,0.262v-0.009c-0.127,0.167-0.289,0.251-0.502,0.21
		c-2.043-0.395-4.09-0.766-6.128-1.187c-3.439-0.712-6.803-1.722-10.144-2.787c-2.905-0.926-5.781-1.974-8.551-3.247
		c-1.775-0.815-3.472-1.828-5.077-2.965c-0.181-0.128-0.289-0.355-0.432-0.538C134.506,83.814,134.883,83.414,135.351,83.105z"/>
	<path fill="#C37157" d="M113.939,87.093c1.502,0.729,2.903,0.308,4.339-0.287c1.478-0.612,2.802-1.471,4.184-2.25
		c1.646-0.926,3.279-1.854,4.808-2.961c0.43-0.311,1.104-0.209,1.35-0.814c0.256,0.25,0.417,0.551,0.478,0.903
		c-0.027,0.427-0.271,0.715-0.616,0.927c-2.823,1.727-5.607,3.521-8.49,5.141c-1.151,0.646-2.454,1.121-3.828,1.218
		c-0.154,0.011-0.31,0.005-0.464,0.001C114.014,88.927,113.88,88.785,113.939,87.093z"/>
	<path fill="#C06346" d="M149.851,79.398c-0.082-0.082-0.163-0.164-0.244-0.246C149.741,79.183,149.822,79.265,149.851,79.398z"/>
	<path fill="#C06346" d="M149.619,79.165c-0.082-0.082-0.163-0.165-0.245-0.247C149.509,78.947,149.59,79.03,149.619,79.165z"/>
	<path fill="#C06346" d="M149.387,78.932c-0.129-0.042-0.209-0.127-0.246-0.256C149.274,78.711,149.358,78.795,149.387,78.932z"/>
	<path fill="#C06346" d="M139.789,78.668c-0.035,0.133-0.117,0.22-0.25,0.26C139.567,78.79,139.654,78.706,139.789,78.668z"/>
	<path fill="#C3745C" d="M165.018,94.792c-0.13-0.041-0.212-0.128-0.246-0.262C164.902,94.573,164.987,94.656,165.018,94.792z"/>
	<path fill="#C0664A" d="M153.785,83.376c-0.075-0.076-0.148-0.151-0.224-0.228C153.69,83.172,153.765,83.247,153.785,83.376z"/>
	<path fill="#C06346" d="M150.082,79.633c-0.081-0.082-0.162-0.165-0.242-0.246C149.974,79.417,150.053,79.499,150.082,79.633z"/>
	<path fill="#751F14" d="M113.921,107.4c-0.136-2.759-0.134-2.757,1.764-4.663c5.015-5.036,10.026-10.075,15.042-15.113
		c0.219-0.221,0.443-0.436,0.657-0.66c0.219-0.231,0.396-0.229,0.701-0.073c3.456,1.766,6.926,3.506,10.392,5.252
		c4.193,2.113,8.389,4.224,12.582,6.339c1.938,0.979,3.878,1.951,5.753,3.047c0.277,1.136-0.628,1.409-1.346,1.688
		c-1.19,0.465-2.434,0.799-3.661,1.164c-4.415,1.311-8.955,1.867-13.529,2.201c-0.583,0.042-1.164,0.106-1.733,0.217
		c-4.286,0.825-8.649,0.729-12.975,1.046c-3.025,0.221-6.09,0.42-9.142,0.025c-0.921-0.119-1.852,0.171-2.787,0.104
		C115.012,107.929,114.389,107.904,113.921,107.4z"/>
	<path fill="#7E2017" d="M113.921,128.394c0-5.442-0.001-10.886-0.001-16.329c0.342-0.363,0.782-0.506,1.26-0.521
		c3.317-0.111,6.418,0.485,8.984,2.798c1.224,1.101,2.754,1.597,4.291,1.985c1.008,0.254,2.025-0.136,2.824-0.79
		c0.679-0.557,1.312-0.6,2.031-0.209c0.383,0.208,0.771,0.389,1.217,0.307c4.161-0.769,8.441-0.586,12.572-1.603
		c4.224-1.038,8.502-1.912,12.396-3.954c1.546-0.812,3.084-1.645,4.606-2.498c1.546-0.868,3.174-1.44,4.882-1.84
		c1.453,0.588,2.844,1.295,4.173,2.123c0.436,0.3,0.277,0.577-0.042,0.828c-0.248,0.195-0.55,0.31-0.854,0.354
		c-4.471,0.655-8.18,3.03-11.939,5.281c-3.77,2.256-7.746,4.071-11.857,5.601c-0.917,0.341-1.712,0.908-2.561,1.375
		c-2.762,1.521-5.635,2.704-8.686,3.576c-3.649,1.042-7.475,1.441-10.994,2.897c-1.896,0.784-3.863,1.261-5.842,1.367
		C118.229,129.256,115.966,129.539,113.921,128.394z"/>
	<path fill="#7B1F16" d="M168.985,105.738c-0.045,0.19-0.092,0.415-0.312,0.447c-2.645,0.387-4.83,1.846-7.07,3.119
		c-2.701,1.534-5.518,2.695-8.508,3.529c-1.788,0.499-3.583,0.947-5.39,1.358c-1.8,0.41-3.609,0.769-5.462,0.93
		c-1.921,0.168-3.836,0.376-5.765,0.458c-0.531,0.021-1.061,0.2-1.582,0.339c-0.629,0.167-1.172,0.164-1.73-0.301
		c-0.625-0.52-1.15-0.396-1.669,0.214c-0.099,0.115-0.18,0.317-0.296,0.34c-1.287,0.242-2.561,1.082-3.888,0.142
		c-0.397-0.282-0.926-0.183-1.312-0.437c-0.727-0.48-1.531-0.777-2.206-1.421c-1.265-1.208-2.859-2.074-4.591-2.318
		c-1.734-0.245-3.521-0.609-5.288-0.073c0-1.555,0.001-3.108,0.001-4.665c1.336,0.251,2.682,0.083,4.013,0.116
		c1.523,0.038,3.092-0.079,4.609,0.244c0.468,0.099,0.91,0.139,1.371,0c1.045-0.315,2.093-0.248,3.179-0.233
		c1.241,0.018,2.534-0.061,3.8-0.213c1.168-0.141,2.32-0.423,3.534-0.18c1.108,0.222,2.23-0.14,3.332-0.288
		c1.793-0.241,3.566-0.605,5.389-0.625c0.572-0.006,1.149-0.119,1.715-0.233c1.519-0.304,3.077-0.205,4.596-0.467
		c1.138-0.197,2.273-0.438,3.392-0.729c1.973-0.518,3.938-1.07,5.895-1.646c0.884-0.26,1.834-0.495,2.067-1.615
		c1.924,0.8,3.729,1.835,5.585,2.772c0.791,0.399,1.561,0.839,2.339,1.261c0.079,0.068,0.161,0.133,0.247,0.192L168.985,105.738z"/>
	<path fill="#842219" d="M113.921,128.394c0.467-0.009,0.925-0.006,1.369,0.191c0.577,0.257,1.193,0.287,1.822,0.282
		c0.869-0.006,1.761-0.298,2.604,0.171c0.087,0.047,0.246,0.034,0.339-0.013c1.144-0.581,2.415-0.421,3.619-0.643
		c0.226-0.042,0.481-0.076,0.656-0.205c0.811-0.599,1.778-0.721,2.709-0.962c0.673-0.174,1.336-0.359,1.984-0.633
		c1.395-0.588,2.874-0.848,4.377-1.007c0.685-0.073,1.396-0.189,2.023-0.456c1.292-0.552,2.694-0.7,3.99-1.188
		c1.52-0.571,3.062-1.096,4.483-1.909c1.271-0.728,2.521-1.511,3.848-2.125c1.466-0.679,3.008-1.193,4.518-1.777
		c0.144-0.057,0.305-0.078,0.437-0.152c2.391-1.344,4.964-2.326,7.295-3.795c1.832-1.154,3.729-2.206,5.596-3.305
		c1.677-0.986,3.593-1.403,5.48-1.842c0.601-0.139,1.195-0.313,1.793-0.47c0.405-0.104,0.473-0.348,0.294-0.697
		c1.181,0.372,2.188,1.089,3.271,1.656c0.078,0.074,0.161,0.141,0.251,0.202l0.009-0.014c-0.132,1.046-1.082,1.004-1.751,1.208
		c-1.932,0.589-3.804,1.346-5.739,1.922c-2.997,0.891-5.228,3.021-7.517,4.988c-3.836,3.3-8.02,6.018-12.764,7.779
		c-2.102,0.782-4.342,1.175-6.438,2.02c-0.907,0.364-1.763,0.778-2.549,1.375c-1.722,1.301-3.743,2.044-5.71,2.854
		c-1.363,0.562-2.727,1.121-4.027,1.805c-4.756,2.501-9.856,3.442-15.175,3.439c-0.39,0-0.784-0.001-1.091-0.303
		C113.926,133.992,113.924,131.192,113.921,128.394z"/>
	<path fill="#8A231B" d="M179.937,111.35c-0.31,0.57-0.901,0.737-1.438,0.912c-3.394,1.101-6.679,2.48-9.953,3.881
		c-2.092,0.896-3.714,2.403-4.746,4.431c-0.783,1.541-1.827,2.758-3.333,3.611c-1.648,0.937-3.143,2.179-4.93,2.832
		c-1.683,0.614-3.201,1.592-4.906,2.118c-1.182,0.365-2.165,1.066-3.118,1.76c-3.069,2.229-6.405,3.885-9.998,5.072
		c-1.616,0.534-3.193,1.18-4.846,1.616c-1.471,0.389-2.979,0.411-4.469,0.584c-1.875,0.22-3.749,0.472-5.625,0.641
		c-1.807,0.162-3.588,0.567-5.412,0.551c-1.083-0.009-2.14,0.385-3.233,0.231c0-0.542,0-1.084,0-1.626
		c1.905-0.38,3.856-0.278,5.777-0.537c6.438-0.872,12.837-1.887,18.783-4.699c2.237-1.058,4.564-1.99,6.303-3.872
		c0.267-0.289,0.625-0.456,0.972-0.635c2.003-1.037,4.108-1.862,6.247-2.523c2.727-0.843,4.869-2.536,7.007-4.267
		c2.473-2,4.597-4.406,7.207-6.255c0.768-0.544,1.572-0.971,2.459-1.298c3.131-1.153,6.315-2.167,9.388-3.483
		c0.352,0.069,0.669,0.207,0.923,0.47c0.109,0.177,0.333,0.141,0.475,0.257l-0.011-0.008c0.117,0.162,0.336,0.123,0.476,0.242
		L179.937,111.35z"/>
	<path fill="#8A231B" d="M178.073,110.394c-0.195,0.41-0.518,0.625-0.953,0.779c-2.884,1.02-5.751,2.089-8.639,3.096
		c-0.712,0.249-1.344,0.602-1.933,1.041c-2.017,1.51-3.893,3.18-5.688,4.949c-1.49,1.468-3.259,2.604-4.884,3.911
		c-1.22,0.98-2.705,1.297-4.096,1.856c-0.14,0.058-0.325,0.013-0.455,0.083c-1.397,0.768-2.909,1.256-4.394,1.812
		c-1.373,0.513-2.419,1.487-3.478,2.439c-0.319,0.288-0.639,0.554-1.024,0.754c-2.923,1.521-5.916,2.915-9.056,3.885
		c-2.569,0.793-5.158,1.564-7.882,1.848c-1.709,0.178-3.449,0.317-5.138,0.8c-0.912,0.262-1.911,0.239-2.873,0.3
		c-0.809,0.052-1.621-0.046-2.422,0.209c-0.405,0.13-0.85,0.042-1.232-0.195c0-0.392,0-0.781-0.002-1.172
		c0.155,0,0.312-0.008,0.467,0c3.43,0.15,6.772-0.405,10.09-1.218c2.163-0.528,4.12-1.516,6.113-2.468
		c1.16-0.554,2.367-1.077,3.57-1.562c1.333-0.537,2.728-1.028,3.988-1.798c0.859-0.524,1.649-1.147,2.513-1.65
		c1.243-0.723,2.635-1.114,3.994-1.565c1.245-0.414,2.53-0.688,3.787-1.042c0.748-0.21,1.516-0.552,2.249-0.902
		c2.344-1.125,4.604-2.387,6.763-3.844c1.417-0.955,2.676-2.097,3.994-3.167c1.711-1.389,3.367-2.856,5.253-4.004
		c1.193-0.725,2.55-1.104,3.886-1.52c1.878-0.585,3.731-1.25,5.596-1.881c0.235-0.08,0.383-0.255,0.497-0.466
		C177.21,109.813,177.66,110.066,178.073,110.394z"/>
	<path fill="#90251D" d="M179.47,111.121c-0.207,0.005-0.392-0.032-0.475-0.257C179.187,110.89,179.365,110.937,179.47,111.121z"/>
	<path fill="#90251D" d="M179.935,111.355c-0.201,0.004-0.379-0.037-0.476-0.241C179.654,111.125,179.829,111.173,179.935,111.355z"
		/>
	<path fill="#7E2017" d="M168.98,105.755c-0.083-0.064-0.165-0.128-0.247-0.192C168.858,105.573,168.943,105.633,168.98,105.755z"/>
	<path fill="#8A231B" d="M176.679,109.719c-0.084-0.067-0.167-0.135-0.251-0.202C176.554,109.531,176.644,109.591,176.679,109.719z"
		/>
</g>
<g>
	<path fill="#FFFFFF" d="M789.028,84.352c0,3.741,0,7.354,0,11.301c-1.104,0-2.086,0-3.064,0c-9.351,0-18.697,0-28.047,0.001
		c-0.733,0-1.476-0.047-2.198,0.041c-2.621,0.314-4.427,2.354-4.324,4.821c0.104,2.493,1.989,4.353,4.677,4.437
		c2.656,0.084,5.315,0.023,7.976,0.025c3.208,0.003,6.419-0.076,9.624,0.024c8.67,0.269,15.479,7.37,15.503,16.079
		c0.021,8.737-6.692,16.036-15.37,16.178c-12.095,0.198-24.196,0.054-36.295,0.047c-0.344,0-0.689-0.119-1.173-0.208
		c0-3.701,0-7.317,0-11.275c1.1,0,2.077,0,3.055,0c10.541,0,21.081,0,31.621-0.002c0.825,0,1.659,0.044,2.474-0.05
		c2.51-0.294,4.173-2.169,4.173-4.624c0-2.454-1.677-4.333-4.176-4.622c-0.725-0.083-1.464-0.039-2.197-0.04
		c-5.225-0.007-10.45,0.061-15.674-0.03c-7.741-0.135-14.483-6.03-15.478-13.407c-1.124-8.354,3.298-15.711,10.971-18.069
		c1.557-0.479,3.232-0.777,4.854-0.789c10.449-0.069,20.897-0.039,31.347-0.027C787.832,84.161,788.359,84.274,789.028,84.352z"/>
	<path fill="#FFFFFF" d="M674.359,116.349c0-3.787,0-7.402,0-11.372c1.077,0,2.054,0,3.029,0c10.633,0,21.265,0.001,31.896-0.001
		c0.824,0,1.657,0.042,2.473-0.057c2.189-0.265,3.863-2.028,4.063-4.196c0.197-2.129-1.17-4.193-3.332-4.78
		c-0.952-0.258-1.987-0.276-2.985-0.279c-9.351-0.02-18.697-0.012-28.048-0.013c-1.002,0-2.003,0-3.344,0
		c-0.036-1.947-0.083-3.74-0.099-5.532c-0.019-1.827-0.005-3.654-0.005-5.698c0.824-0.103,1.516-0.26,2.206-0.26
		c10.266-0.017,20.529-0.071,30.795,0.01c7.525,0.06,13.917,4.942,15.759,11.815c1.888,7.048-0.876,14.364-7.157,18.076
		c-2.229,1.319-4.866,1.951-7.593,3.004c2.584,3.146,5.452,6.398,8.264,9.694c2.842,3.329,5.683,6.659,8.818,10.339
		c-1.03,0.105-1.611,0.211-2.191,0.215c-3.024,0.018-6.053-0.065-9.074,0.04c-1.438,0.051-2.359-0.463-3.27-1.538
		c-4.967-5.882-10.051-11.665-14.982-17.576c-1.124-1.346-2.274-1.818-3.981-1.793c-6.139,0.091-12.282,0.041-18.423,0.029
		C676.286,116.476,675.392,116.398,674.359,116.349z"/>
	<path fill="#FFFFFF" d="M349.397,125.904c-1.526,3.823-2.978,7.461-4.489,11.247c-3.992,0-7.984,0-12.391,0
		c5.393-13.763,10.739-27.402,16.244-41.45c-2.785,0-5.12,0-7.63,0c0-3.904,0-7.52,0-11.343c8.489,0,16.865,0,25.559,0
		c3.376,8.589,6.808,17.321,10.351,26.334c-4.24,0-8.128,0-12.375,0c-1.423-3.507-2.918-7.193-4.68-11.541
		c-2.249,5.271-4.057,10.05-5.987,15.202c8.331,0,16.344,0,24.438,0c1.506,3.777,2.922,7.333,4.273,10.725
		c-0.082,0.303-0.093,0.398-0.135,0.478c-0.037,0.072-0.1,0.16-0.168,0.178c-0.262,0.071-0.527,0.163-0.793,0.164
		C370.989,125.904,360.367,125.904,349.397,125.904z"/>
	<path fill="#FFFFFF" d="M513.018,95.649c-2.794,0-5.072,0-7.729,0c-0.113-3.772-0.048-7.393-0.044-10.965
		c2.084-0.665,19.522-0.888,25.662-0.338c3.369,8.564,6.802,17.29,10.355,26.324c-4.261,0-8.144,0-12.377,0
		c-1.448-3.564-2.983-7.339-4.722-11.616c-2.08,5.304-3.971,10.123-5.989,15.272c8.362,0,16.309,0,24.501,0
		c1.503,3.805,2.965,7.507,4.549,11.516c-11.376,0-22.354,0-33.563,0c-1.52,3.793-3.007,7.504-4.536,11.322
		c-4.044,0-8.012,0-12.392,0C502.163,123.322,507.496,109.729,513.018,95.649z"/>
	<path fill="#FFFFFF" d="M553.859,137.316c0-17.904,0-35.362,0-52.994c3.76,0,7.371,0,11.326,0c0,11.387,0,22.666,0,33.946
		c0.178,0.059,0.354,0.116,0.532,0.173c0.552-0.667,1.13-1.312,1.648-2.005c7.541-10.028,15.109-20.037,22.572-30.121
		c1.152-1.556,2.32-2.298,4.289-2.208c3.35,0.153,6.71,0.042,10.505,0.042c-0.609,0.999-0.919,1.618-1.327,2.164
		c-12.301,16.42-24.619,32.824-36.896,49.26c-0.896,1.2-1.791,1.857-3.386,1.784C560.126,137.218,557.113,137.316,553.859,137.316z"
		/>
	<path fill="#FFFFFF" d="M224.089,95.708c0-4.005,0-7.636,0-11.646c0.979,0,1.86,0,2.741,0c10.17,0,20.342-0.017,30.512,0.006
		c8.974,0.021,16.156,7.094,16.224,15.926c0.071,9.195-6.717,16.374-15.795,16.601c-3.938,0.099-7.879,0.019-11.819,0.019
		c-7.422,0-14.843,0-22.266,0c-0.998,0-1.995,0-3.187,0c0-3.907,0-7.604,0-11.644c1.044,0,2.023,0,3.001,0
		c10.445,0,20.891,0.004,31.335-0.007c1.005-0.001,2.027,0.008,3.012-0.165c2.307-0.406,3.81-2.086,3.973-4.279
		c0.136-1.832-1.322-3.843-3.402-4.453c-0.943-0.276-1.978-0.341-2.971-0.344c-9.347-0.025-18.692-0.015-28.037-0.015
		C226.409,95.708,225.411,95.708,224.089,95.708z"/>
	<path fill="#FFFFFF" d="M460.026,121.939c4.412-5.876,8.552-11.389,12.692-16.9c0.205,0.068,0.412,0.138,0.618,0.207
		c0,2.063,0.021,4.13-0.006,6.193c-0.034,2.743,0.485,5.681-0.334,8.172c-0.787,2.399-2.967,4.346-4.552,6.479
		c-2.242,3.017-4.494,6.025-6.757,9.026c-0.479,0.638-1.023,1.227-1.753,2.091c-5.514-7.336-10.879-14.476-16.243-21.613
		c-0.191,0.045-0.386,0.091-0.578,0.136c-0.106,7.068,0.04,14.145-0.043,21.401c-3.81,0-7.43,0-11.062,0
		c-0.544-1.893-0.743-47.689-0.155-52.539c3.442,4.187,6.346,8.334,9.404,12.352c3.108,4.084,6.16,8.213,9.24,12.319
		C453.577,113.363,456.66,117.46,460.026,121.939z"/>
	<path fill="#FFFFFF" d="M404.284,110.209c-0.208,1.744-0.478,2.986-0.485,4.231c-0.043,6.502-0.021,13.005-0.021,19.507
		c0,0.993,0,1.986,0,3.174c-3.863,0-7.459,0-11.321,0c-0.048-0.985-0.137-1.959-0.138-2.935c-0.014-6.318-0.082-12.64,0.033-18.957
		c0.039-2.133-0.497-3.83-1.801-5.533c-5.789-7.56-11.462-15.209-17.169-22.831c-0.533-0.711-1.021-1.456-1.738-2.486
		c0.954-0.104,1.545-0.218,2.136-0.223c3.114-0.018,6.229,0.033,9.341-0.028c1.116-0.021,1.899,0.312,2.569,1.212
		C391.927,93.709,398.186,102.06,404.284,110.209z"/>
	<path fill="#FFFFFF" d="M664.743,84.321c0,3.813,0,7.36,0,10.878c-2.179,0.581-45.998,0.822-52.799,0.283
		c-0.206-3.631-0.105-7.308-0.061-11.161C629.576,84.321,647.01,84.321,664.743,84.321z"/>
	<path fill="#FFFFFF" d="M293.987,137.23c-3.786,0-7.239,0-10.663,0c-0.601-2.007-0.826-48.237-0.255-52.847
		c3.551,0,7.135,0,10.918,0C293.987,101.967,293.987,119.479,293.987,137.23z"/>
	<path fill="#FFFFFF" d="M477.042,137.189c0-1.104,0-2.002,0-2.898c0-10.817,0.025-21.636-0.028-32.452
		c-0.008-1.735,0.386-3.162,1.471-4.545c2.659-3.388,5.191-6.874,7.786-10.312c0.536-0.71,1.125-1.381,2.031-2.487
		c0,17.875,0,35.217,0,52.695C484.609,137.189,481.07,137.189,477.042,137.189z"/>
	<path fill="#FFFFFF" d="M657.113,105.123c0,3.787,0,7.401,0,11.188c-15.016,0-29.896,0-44.784,0
		c-0.605-1.857-0.73-7.812-0.193-11.188C626.984,105.123,641.863,105.123,657.113,105.123z"/>
	<path fill="#FFFFFF" d="M611.96,137.147c0-3.741,0-7.295,0-10.834c1.939-0.578,41.518-0.729,45.125-0.159c0,3.584,0,7.199,0,10.993
		C642.098,137.147,627.198,137.147,611.96,137.147z"/>
	<path fill="#FFFFFF" d="M324.428,114.559c0,7.638,0,15.015,0,22.579c-8.772,0-17.432,0-26.501,0
		c-0.152-3.61-0.113-7.287,0.009-11.292c5.088,0,9.979,0,15.192,0c0-3.926,0-7.537,0-11.287
		C316.993,114.559,320.533,114.559,324.428,114.559z"/>
	<path fill="#FFFFFF" d="M407.36,106.942c-2.23-2.96-4.359-5.781-6.605-8.761c3.336-4.463,6.585-8.867,9.923-13.201
		c0.367-0.478,1.239-0.778,1.887-0.792c3.75-0.074,7.502-0.036,11.172-0.036c0.131,0.196,0.193,0.266,0.228,0.348
		c0.033,0.077,0.053,0.166,0.05,0.248c-0.003,0.09-0.013,0.197-0.063,0.265c-5.092,6.825-10.188,13.648-15.293,20.465
		C408.338,105.904,407.95,106.28,407.36,106.942z"/>
	<path fill="#FFFFFF" d="M604.505,137.322c-4.043,0-7.799-0.035-11.552,0.022c-1.061,0.017-1.692-0.45-2.271-1.23
		c-3.109-4.19-6.237-8.368-9.541-12.793c2.12-2.821,4.241-5.646,6.358-8.466C589.219,116.006,603.109,134.311,604.505,137.322z"/>
	<path fill="#FFFFFF" d="M235.515,125.993c0,3.804,0,7.35,0,11.217c-1.857,0.039-3.647,0.091-5.438,0.108
		c-1.825,0.02-3.651,0.004-5.856,0.004c-0.22-3.801-0.064-7.479-0.098-11.33C228,125.993,231.613,125.993,235.515,125.993z"/>
	<path fill="#FFFFFF" d="M678.022,125.966c3.934,0,7.545,0,11.323,0c0,3.75,0,7.363,0,11.168c-3.674,0-7.286,0-11.287,0
		C677.957,133.537,678.028,129.922,678.022,125.966z"/>
</g>
</svg>
