<?xml version="1.0" encoding="utf-8"?>
<!-- Generator: Adobe Illustrator 16.0.0, SVG Export Plug-In . SVG Version: 6.00 Build 0)  -->
<!DOCTYPE svg PUBLIC "-//W3C//DTD SVG 1.1//EN" "http://www.w3.org/Graphics/SVG/1.1/DTD/svg11.dtd">
<svg version="1.1" id="Layer_1" xmlns="http://www.w3.org/2000/svg" xmlns:xlink="http://www.w3.org/1999/xlink" x="0px" y="0px"
	 width="841.89px" height="784.643px" viewBox="0 0 841.89 784.643" enable-background="new 0 0 841.89 784.643"
	 xml:space="preserve">
<g>
	<path fill-rule="evenodd" clip-rule="evenodd" fill="#751E42" d="M185.066,94.364c3.926,3.878,7.853,7.757,11.779,11.635
		c0.802,0.792,1.61,1.579,2.409,2.374c0.723,0.719,0.723,0.727,0.019,1.432c-2.749,2.749-5.502,5.492-8.251,8.241
		c-27.569,27.572-55.138,55.143-82.703,82.719c-0.355,0.355-0.649,0.771-0.901,1.075c-0.588-0.117-0.762-0.45-1.001-0.688
		c-14.292-14.294-28.577-28.594-42.869-42.888c-14.209-14.212-28.424-28.418-42.637-42.626c-1.759-1.759-3.527-3.509-5.286-5.269
		c-0.767-0.767-0.76-0.773-0.009-1.517c6.379-6.319,12.759-12.639,19.14-18.957c0.469-0.465,0.949-0.918,1.424-1.377
		c0.353-0.179,0.624-0.458,0.896-0.736c4.138-4.216,8.396-8.312,12.605-12.456c4.761-4.688,9.575-9.322,14.396-13.947
		c2.355-2.259,4.632-4.598,7.009-6.833c4.867-4.579,9.607-9.287,14.418-13.923c4.699-4.529,9.386-9.068,14.082-13.6
		c2.347-2.266,4.677-4.55,7.015-6.827c0.889-0.866,1.102-0.833,2.027-0.006c2.667,2.384,5.119,4.99,7.704,7.456
		c5.37,5.122,10.651,10.333,15.981,15.494c4.716,4.566,9.438,9.126,14.153,13.693c5.078,4.918,10.14,9.854,15.232,14.758
		c4.925,4.742,9.808,9.528,14.707,14.297C179.3,88.706,182.073,91.648,185.066,94.364z"/>
	<path fill-rule="evenodd" clip-rule="evenodd" fill="#C3735A" d="M185.066,94.364c-0.485-0.036-0.716-0.438-1.014-0.727
		c-1.2-1.164-2.377-2.35-3.574-3.517c-3.393-3.31-6.746-6.662-10.201-9.905c-2.495-2.341-4.85-4.822-7.363-7.138
		c-2.516-2.319-4.855-4.817-7.369-7.133c-2.459-2.265-4.746-4.706-7.199-6.973c-2.656-2.453-5.134-5.088-7.786-7.539
		c-2.199-2.032-4.256-4.206-6.445-6.243c-2.875-2.673-5.587-5.513-8.455-8.19c-2.473-2.308-4.798-4.764-7.277-7.059
		c-2.625-2.429-5.105-5.003-7.702-7.458c-0.817-0.773-1.643-1.539-2.459-2.314c-0.577-0.548-0.592-0.547-1.202,0.04
		c-0.672,0.647-1.326,1.312-1.995,1.963c-3.59,3.497-7.142,7.036-10.789,10.472c-2.433,2.292-4.739,4.713-7.198,6.973
		c-2.319,2.131-4.468,4.435-6.788,6.56c-2.466,2.258-4.744,4.708-7.204,6.968c-2.547,2.342-4.911,4.871-7.452,7.214
		c-2.4,2.214-4.633,4.6-7.036,6.806c-2.377,2.183-4.579,4.543-6.953,6.725c-2.548,2.341-4.912,4.869-7.453,7.213
		c-2.4,2.214-4.674,4.554-7.027,6.816c-0.272,0.262-0.493,0.622-0.949,0.603c0.146-0.429,0.523-0.667,0.82-0.963
		c22.893-22.897,45.79-45.792,68.69-68.681c0.653-0.653,1.203-1.417,2.098-2.061c0.65,0.696,1.263,1.393,1.918,2.048
		c20.417,20.425,40.839,40.845,61.26,61.267c4.453,4.453,8.906,8.903,13.354,13.36C184.589,93.759,184.932,93.976,185.066,94.364z"
		/>
	<path fill-rule="evenodd" clip-rule="evenodd" fill="#37121F" d="M181.085,95.981c0.304,0.115,0.492,0.373,0.71,0.591
		c3.958,3.956,7.914,7.914,11.87,11.872c0.137,0.137,0.267,0.283,0.412,0.413c0.354,0.318,0.256,0.597-0.052,0.877
		c-0.202,0.183-0.385,0.383-0.578,0.576c-28.387,28.386-56.772,56.772-85.158,85.158c-1.048,1.047-1.046,1.044-2.119-0.029
		c-14.509-14.509-29.018-29.018-43.527-43.527c-13.794-13.794-27.589-27.588-41.382-41.384c-1.122-1.123-1.14-0.906-0.014-2.035
		c3.459-3.465,6.922-6.927,10.387-10.387c0.19-0.191,0.412-0.351,0.619-0.525c0.657,0.188,0.839,0.864,1.292,1.266
		c0.574,0.509,1.071,1.101,1.689,1.567c1.186,0.895,1.181,0.902,2.397-0.034c0.274-0.211,0.537-0.46,0.927-0.263
		c0.176,0.626-0.345,0.894-0.673,1.227c-1.957,1.984-3.935,3.947-5.902,5.92c-0.504,0.474-0.991,0.965-1.469,1.465
		c-0.751,0.584-0.717,1.145-0.019,1.774c0.649,0.585,1.251,1.224,1.857,1.854c0.069,0.066,0.134,0.14,0.196,0.212
		c0.063,0.065,0.122,0.136,0.18,0.205c0.029,0.031,0.057,0.066,0.087,0.098c0.06,0.06,0.116,0.124,0.172,0.188
		c0.029,0.028,0.057,0.06,0.086,0.089c0.059,0.056,0.115,0.117,0.171,0.176c0.029,0.028,0.057,0.059,0.086,0.086
		c0.061,0.056,0.118,0.115,0.176,0.173c0.03,0.029,0.059,0.059,0.089,0.087c0.065,0.057,0.125,0.116,0.187,0.176
		c0.033,0.029,0.064,0.06,0.097,0.089c0.071,0.059,0.137,0.12,0.204,0.183c0.036,0.031,0.069,0.063,0.106,0.095
		c0.077,0.065,0.148,0.134,0.22,0.204c0.954,0.947,1.912,1.887,2.847,2.847c0.071,0.067,0.136,0.141,0.199,0.214
		c0.064,0.065,0.125,0.137,0.185,0.208c0.031,0.032,0.06,0.068,0.091,0.1c0.063,0.062,0.124,0.128,0.184,0.193
		c0.032,0.031,0.062,0.064,0.094,0.094c0.066,0.06,0.129,0.124,0.193,0.187c0.034,0.03,0.066,0.063,0.1,0.093
		c0.072,0.06,0.139,0.125,0.208,0.188c0.037,0.032,0.07,0.065,0.108,0.097c0.078,0.066,0.149,0.135,0.222,0.207
		c1.389,1.369,2.755,2.758,4.146,4.123c0.081,0.071,0.157,0.148,0.231,0.226c0.08,0.073,0.153,0.152,0.227,0.231
		c2.741,2.786,5.537,5.518,8.279,8.301c0.072,0.069,0.139,0.144,0.205,0.219c0.067,0.068,0.131,0.142,0.194,0.214
		c0.033,0.034,0.064,0.07,0.097,0.104c0.069,0.065,0.134,0.134,0.201,0.203c0.035,0.032,0.068,0.066,0.104,0.099
		c0.075,0.063,0.145,0.131,0.216,0.199c0.038,0.033,0.073,0.068,0.112,0.102c0.081,0.067,0.154,0.139,0.229,0.212
		c15.91,15.892,31.805,31.797,47.706,47.696c0.577,0.577,1.151,1.156,1.783,1.679c0.924,0.82,1.721,1.777,2.69,2.561
		c0.462-0.454,0.331-0.946,0.331-1.387c0.011-16.325,0.177-32.651-0.028-48.973c-0.416-33.112-0.051-66.224-0.177-99.335
		c-0.002-0.641-0.363-1.51,0.636-1.85c0.492,0.654,0.333,1.418,0.333,2.142c0.009,19.468,0.009,38.937,0.006,58.405
		c0,5.829,0.02,11.657-0.008,17.485c-0.018,5.284-0.006,10.568,0.002,15.854c0,0.49-0.09,1.058,0.438,1.366
		c0.537,0.314,1.162,0.666,1.749,0.398c0.522-0.238,0.321-0.902,0.324-1.387c0.029-5.091-0.024-10.182,0.03-15.274
		c-0.072-0.66-0.036-1.321-0.036-1.98c-0.002-24.468-0.002-48.936,0-73.404c0-0.62-0.072-1.252,0.09-1.856
		c0.099-0.368,0.17-0.952,0.817-0.5c0.085,0.967,0.085,1.938,0.086,2.907c0.001,48.468,0,96.937,0.004,145.405
		c0,0.5-0.075,1.008,0.142,1.715c1.173-0.995,2.116-2.095,3.172-3.064c0.137-0.136,0.288-0.26,0.435-0.385
		c0.51-0.416,0.965-0.895,1.431-1.361c11.196-11.188,22.377-22.392,33.579-33.572c0.069-0.075,0.146-0.144,0.221-0.212
		c0.036-0.034,0.074-0.067,0.11-0.101c0.069-0.069,0.143-0.134,0.216-0.199c0.035-0.035,0.072-0.066,0.106-0.101
		c0.066-0.072,0.138-0.139,0.208-0.208c0.034-0.037,0.069-0.071,0.103-0.108c0.066-0.079,0.136-0.151,0.207-0.226
		c0.035-0.04,0.072-0.076,0.107-0.115c4.744-4.766,9.51-9.508,14.251-14.274c1.849-1.807,3.653-3.659,5.492-5.475
		c0.07-0.076,0.147-0.147,0.223-0.218c0.037-0.036,0.076-0.07,0.112-0.106c0.071-0.074,0.146-0.143,0.222-0.214
		c0.036-0.038,0.073-0.072,0.108-0.109c0.069-0.079,0.143-0.152,0.215-0.228c0.036-0.04,0.074-0.076,0.109-0.116
		c4.046-4,7.994-8.097,12.102-12.033c0.571-0.683,1.226-1.285,1.848-1.92c0.872-0.892,0.877-0.924-0.035-1.84
		c-2.072-2.081-4.156-4.149-6.222-6.235c-0.341-0.344-0.813-0.629-0.766-1.225c1.123-0.928,2.435-1.57,3.627-2.396
		c1.058-0.734,1.077-0.693,0.274-1.64C181.196,96.76,180.779,96.488,181.085,95.981z"/>
	<path fill-rule="evenodd" clip-rule="evenodd" fill="#2C1019" d="M181.085,95.981c0.004,0.441,0.347,0.666,0.608,0.94
		c0.265,0.279,0.54,0.549,0.804,0.83c0.049,0.053,0.065,0.136,0.153,0.328c-1.697,0.981-3.176,2.337-5.073,3.031
		c-0.039-0.01-0.077-0.021-0.117-0.031c-0.07-0.039-0.136-0.085-0.197-0.139c-0.03-0.027-0.06-0.055-0.091-0.082
		c-0.064-0.054-0.125-0.111-0.186-0.168c-0.034-0.027-0.065-0.056-0.099-0.083c-0.074-0.053-0.146-0.106-0.22-0.158
		c-0.042-0.024-0.08-0.05-0.122-0.074c-0.091-0.048-0.175-0.103-0.261-0.159c-0.513-0.363-0.928-0.831-1.367-1.27
		c-9.732-9.729-19.462-19.46-29.193-29.191c-1.14-1.141-1.143-1.141-2.261-0.023c-2.998,2.995-5.988,5.996-8.991,8.985
		c-1.128,1.123-1.509,1.088-2.23-0.301c-2.363-4.553-4.785-9.073-7.176-13.612c-4.11-7.803-8.231-15.601-12.366-23.392
		c-0.892-1.681-1.836-3.336-2.664-5.052c-0.216-0.448-0.487-0.887-0.364-1.424c-0.113-0.218-0.306-0.315-0.372-0.027
		c-0.084,0.371-0.058,0.77-0.058,1.156c-0.002,24.982-0.002,49.965-0.002,74.947c0,0.505-0.003,1.01-0.005,1.515
		c-1.28,0.446-2.263-0.151-3.201-0.909c-0.016-0.543-0.046-1.087-0.046-1.63c-0.002-24.993-0.002-49.987-0.004-74.98
		c0-0.543-0.029-1.086-0.044-1.63c-0.063-0.059-0.132-0.111-0.207-0.153c-0.458,0.108-0.676,0.509-0.969,0.802
		c-8.518,8.506-17.026,17.021-25.547,25.523c-0.448,0.446-0.821,1.213-1.572,1.028c-0.815-0.201-0.811-1.081-0.931-1.737
		c-0.259-1.41-0.389-2.843-0.771-4.232c-0.087-0.316-0.009-0.614,0.167-0.888c0.257-0.289,0.499-0.592,0.772-0.865
		c9.914-9.919,19.831-19.836,29.748-29.753c0.138-0.137,0.285-0.266,0.41-0.414c0.279-0.329,0.547-0.401,0.852-0.027
		c0.147,0.18,0.327,0.332,0.492,0.497c23.871,23.872,47.742,47.745,71.611,71.62C180.375,95.163,180.82,95.492,181.085,95.981z"/>
	<path fill-rule="evenodd" clip-rule="evenodd" fill="#2E111B" d="M76.109,53.723c-0.024,0.829,0.293,1.593,0.485,2.375
		c0.24,0.979,0.128,2.005,0.45,2.967c0.074,0.219,0.116,0.449,0.191,0.667c0.303,0.882,0.472,0.931,1.151,0.257
		c1.875-1.857,3.735-3.729,5.601-5.595c6.97-6.969,13.939-13.938,20.908-20.908c0.22-0.22,0.436-0.443,0.662-0.656
		c0.138-0.129,0.302-0.306,0.478-0.071c0.14,0.187-0.045,0.359-0.093,0.537c-0.539,0.331-0.86,0.878-1.295,1.312
		C92.982,46.256,81.33,57.913,69.675,69.567c-0.413,0.413-0.82,0.83-1.273,1.199c-8.036,8.201-16.224,16.248-24.312,24.396
		c-1.784,1.657-3.358,3.53-5.244,5.083c-0.115,0.03-0.213-0.001-0.297-0.083c-0.574,0.04-0.824,0.531-1.184,0.862
		c-0.704,0.646-0.916,0.679-1.679,0.098c-1.322-1.006-2.563-2.095-3.433-3.541c0.312-0.344,0.611-0.702,0.939-1.03
		C47.18,82.557,61.169,68.566,75.161,54.578C75.461,54.277,75.793,54.007,76.109,53.723z"/>
	<path fill-rule="evenodd" clip-rule="evenodd" fill="#FEECEC" d="M68.16,70.562c4.073-4.059,8.15-8.115,12.218-12.178
		c8.193-8.185,16.38-16.375,24.583-24.55c0.253-0.251,0.4-0.832,0.981-0.536l-0.001,0.082c-0.173,0.532-0.082,1.08-0.082,1.619
		c-0.002,49.733,0.001,99.466,0.004,149.2c0,0.536,0,1.072,0,1.608c-0.07,0.037-0.14,0.075-0.209,0.112
		c-1.244-1.241-2.488-2.483-3.733-3.725c-0.542-1.547-0.291-3.157-0.292-4.729c-0.004-8.837,0.019-17.674,0.011-26.512
		c-0.001-0.813,0.098-1.626-0.005-2.437c-0.032-0.132-0.044-0.269-0.042-0.404c0.13-0.764,0.168-1.528-0.018-2.292
		c-0.026-0.205-0.017-0.409,0.021-0.612c0.162-3.984,0.123-7.968,0.013-11.95c-0.024-0.138-0.031-0.277-0.025-0.416
		c0.114-1.411,0.194-2.822,0.007-4.236c-0.016-0.143-0.013-0.285,0-0.427c0.177-7.605,0.093-15.209,0.046-22.808
		c-0.147-0.548-0.542-0.924-0.918-1.32c-7.571-7.959-15.418-15.646-23.195-23.401c-2.968-2.96-5.722-6.125-8.754-9.02
		C68.469,71.339,68.106,71.063,68.16,70.562z"/>
	<path fill-rule="evenodd" clip-rule="evenodd" fill="#FEECEB" d="M109.674,34.938c0.759,1.744,1.728,3.378,2.612,5.057
		c6.698,12.702,13.408,25.397,20.116,38.094c0.234,0.444,0.486,0.88,0.81,1.462c3.811-3.803,7.568-7.553,11.487-11.464
		c0.297,0.385,0.524,0.757,0.824,1.058c10.083,10.092,20.171,20.176,30.264,30.258c0.271,0.271,0.495,0.6,0.858,0.77
		c0.082,0.077,0.171,0.147,0.239,0.239l-0.004-0.004c0.088,0.07,0.167,0.149,0.237,0.238l-0.005-0.005
		c0.089,0.07,0.168,0.149,0.238,0.239l-0.006-0.005c0.093,0.067,0.164,0.156,0.238,0.241l-0.004-0.004
		c1.442,1.663,3.086,3.128,4.615,4.707c1.049,1.082,2.117,2.145,3.205,3.188c0.391,0.375,0.434,0.62,0.013,1.019
		c-0.866,0.822-1.676,1.704-2.509,2.561c-0.295,0.115-0.542,0.01-0.776-0.167c-5.801-5.668-11.257-11.68-17.103-17.304
		c-0.08-0.071-0.155-0.148-0.229-0.225c-0.077-0.073-0.149-0.151-0.22-0.229c-0.354-0.387-0.734-0.748-1.107-1.115
		c-0.472-0.492-0.955-0.971-1.448-1.442c-2.816-2.731-5.336-5.751-8.205-8.431c-0.081-0.071-0.157-0.148-0.231-0.226
		c-0.079-0.073-0.152-0.151-0.225-0.23c-1.034-1.081-2.122-2.108-3.16-3.184c-0.071-0.068-0.138-0.143-0.203-0.217
		c-0.067-0.068-0.13-0.141-0.193-0.213c-0.033-0.033-0.064-0.07-0.097-0.103c-0.069-0.064-0.133-0.133-0.199-0.201
		c-0.035-0.032-0.068-0.066-0.103-0.098c-0.075-0.063-0.144-0.13-0.215-0.197c-0.037-0.032-0.072-0.067-0.11-0.101
		c-0.079-0.066-0.152-0.138-0.226-0.21c-1.216-1.203-2.442-2.395-3.624-3.63c-0.565-0.591-0.989-0.561-1.541,0.015
		c-1.208,1.263-2.467,2.477-3.695,3.722c-0.07,0.081-0.147,0.155-0.224,0.229c-0.037,0.038-0.077,0.073-0.114,0.111
		c-0.615,0.567-1.19,1.177-1.784,1.766c-0.335,0.316-0.661,0.641-0.98,0.973c-0.477,0.462-0.945,0.934-1.407,1.412
		c-0.417,0.405-0.827,0.818-1.223,1.244c-0.521,0.52-1.018,1.065-1.568,1.552c-0.758,0.672-1.161,0.632-1.636-0.256
		c-0.711-1.331-1.394-2.676-2.139-3.988c-0.164-0.35-0.33-0.7-0.52-1.038c-1.226-2.314-2.492-4.607-3.705-6.929
		c-0.511-1.234-1.31-2.315-1.876-3.521c-0.966-1.754-1.86-3.547-2.818-5.305c-1.894-3.627-3.901-7.195-5.737-10.854
		c-0.07-0.138,0.024,0.034-0.07-0.09c-0.059-0.078-0.127-0.063-0.18,0.042c0.013,11.863,0.034,23.709,0.025,35.557
		c-0.023,30.065-0.023,60.131-0.028,90.197c0,0.591-0.056,1.162-0.296,1.706c-1.4,1.317-2.8,2.633-4.234,3.983
		c0-0.313-0.001-0.686,0-1.057c0.001-49.419,0.001-98.839,0.011-148.258C109.49,35.829,109.323,35.342,109.674,34.938z"/>
	<path fill-rule="evenodd" clip-rule="evenodd" fill="#A52B22" d="M101.812,148.136c0.196,0.364,0.117,0.76,0.117,1.142
		c-0.007,8.104-0.024,16.208-0.031,24.312c-0.002,2.868,0.015,5.736,0.023,8.604c-0.174-0.152-0.356-0.295-0.519-0.458
		c-15.949-15.948-31.896-31.897-47.842-47.849c-0.272-0.272-0.59-0.509-0.762-0.871c-0.086-0.046-0.153-0.111-0.199-0.198
		l-0.033-0.033c-0.086-0.047-0.154-0.114-0.201-0.201l-0.032-0.032c-0.086-0.048-0.154-0.115-0.202-0.202L52.1,132.32
		c-0.087-0.048-0.153-0.116-0.202-0.202l-0.013-0.024c0.281-1.108,1.06-0.653,1.646-0.452c2.166,0.744,4.326,1.5,6.519,2.164
		c4.648,1.406,9.155,3.187,13.611,5.123c3.812,1.657,7.83,2.754,11.838,3.84c4.281,1.16,8.46,2.577,12.36,4.727
		c0.75,0.414,1.575,0.668,2.328,1.066C100.897,148.938,101.418,148.838,101.812,148.136z"/>
	<path fill-rule="evenodd" clip-rule="evenodd" fill="#A52B22" d="M148.907,146.382c-0.203,0.232-0.392,0.479-0.609,0.696
		c-11.221,11.226-22.444,22.449-33.668,33.67c-0.218,0.218-0.461,0.412-0.692,0.616c-0.262-0.349-0.136-0.752-0.136-1.128
		c-0.006-9.596-0.008-19.191-0.004-28.785c0.132-0.494,0.562-0.495,0.934-0.513c5.046-0.253,10.035-0.946,14.998-1.87
		c3.931-0.732,7.792-1.782,11.715-2.536c2.363-0.454,4.681-1.118,7.06-1.485c0.466-0.072,1.097-0.429,1.344,0.385l-0.002-0.005
		c-0.103,0.059-0.174,0.148-0.241,0.242l0.008-0.008c-0.096,0.065-0.177,0.145-0.241,0.242l0.008-0.008
		c-0.097,0.064-0.178,0.145-0.241,0.242l0.007-0.008C149.047,146.193,148.972,146.283,148.907,146.382z"/>
	<path fill-rule="evenodd" clip-rule="evenodd" fill="#C3745C" d="M113.937,151.251c-0.011,5.193-0.03,10.386-0.03,15.58
		c0,4.845,0.02,9.689,0.03,14.533c-0.074,0.081-0.149,0.162-0.223,0.242c-0.016-3.068-0.045-6.136-0.046-9.205
		c-0.007-22.069-0.072-44.139,0.014-66.208c0.052-13.365-0.032-26.729,0.041-40.094c0.022-4.002-0.02-8.004-0.022-12.005
		c0-0.372-0.102-0.765,0.097-1.125c0.186,0.058,0.285,0.161,0.304,0.332c0.312,1.811,0.18,3.638,0.181,5.458
		c0.001,4.696,0.042,9.392-0.02,14.087c0.047,2.848,0.014,5.696-0.009,8.543c0.015,0.577,0.035,1.155-0.003,1.731
		c0.029,1.232,0.02,2.464,0.004,3.695c-0.06,1.619,0.227,1.918,1.831,1.835c1.307-0.067,2.548-0.505,3.643-1.133
		c3.19-1.831,6.38-3.676,9.371-5.834c1.007,1.495,1.686,3.179,2.65,4.771c0.994-0.61,1.558-1.581,2.44-2.185
		c1.25,0.544,2.305,1.414,3.491,2.072c4.067,2.254,8.472,3.636,12.868,5.035c4.405,1.401,8.895,2.459,13.464,3.167
		c0.345,0.053,0.645,0.286,1.01,0.238c0.258,0.229,0.531,0.443,0.773,0.689c5.3,5.37,10.597,10.744,15.891,16.12
		c0.212,0.216,0.491,0.386,0.571,0.711c-0.858,0.319-1.391-0.431-2.089-0.636c-0.086-0.04-0.169-0.088-0.25-0.138
		c-0.12-0.068-0.239-0.138-0.361-0.202c-0.083-0.038-0.163-0.082-0.242-0.126c-0.165-0.083-0.336-0.155-0.505-0.234
		c-0.263-0.127-0.528-0.247-0.791-0.375c-0.395-0.212-0.797-0.408-1.201-0.602c-0.092-0.041-0.18-0.089-0.267-0.139
		c-0.136-0.068-0.271-0.138-0.409-0.203c-1.035-0.494-1.971-1.174-3.036-1.611c-1.307-0.69-2.645-1.317-3.963-1.985
		c-0.097-0.044-0.19-0.095-0.284-0.147c-0.144-0.073-0.288-0.146-0.434-0.216c-2.55-1.343-5.088-2.708-7.695-3.94
		c-3.438-1.812-6.916-3.55-10.37-5.331c-5.804-2.992-11.719-5.76-17.517-8.762c-0.829-0.43-1.355-0.374-2.024,0.302
		c-5.225,5.276-10.48,10.521-15.746,15.756c-0.629,0.625-0.941,1.292-0.88,2.172c0.043,0.619,0.009,1.244,0.056,1.867
		c0.029,1.47,0.037,2.938,0.007,4.407c0.058,5.396,0.06,10.792,0.003,16.187c0.038,2.764,0.055,5.528-0.005,8.292
		c-0.001,0.434,0.039,0.867,0.003,1.3c-0.018,0.568,0.025,1.136-0.008,1.704c0.039,1.077,0.033,2.153,0.005,3.23
		c0.039,1.245,0.037,2.489,0.002,3.734c0.056,1.151,0.024,2.302,0.017,3.453C114.267,150.484,114.233,150.906,113.937,151.251z"/>
	<path fill-rule="evenodd" clip-rule="evenodd" fill="#90251D" d="M179.937,111.35c0.838,0.157,1.461,0.839,2.316,0.952
		c0.196,0.142,0.396,0.276,0.649,0.282c-0.374,0.337-0.761,0.658-1.116,1.013c-3.413,3.405-6.817,6.817-10.229,10.223
		c-0.301,0.3-0.559,0.651-0.95,0.852c-4.514,1.541-9.069,2.977-13.115,5.62c-3.952,2.58-8.278,4.441-12.526,6.451
		c-3.056,1.446-6.185,2.723-9.332,3.954c-2.555,1-5.273,1.4-7.963,1.659c-4.087,0.392-8.171,0.982-12.299,0.816
		c-0.498-0.02-1.022,0.071-1.44-0.317c-0.001-1.088-0.002-2.177-0.004-3.266c0.878-0.511,1.884-0.437,2.827-0.506
		c4.146-0.303,8.245-1.02,12.387-1.337c5.154-0.396,9.739-2.531,14.332-4.633c1.091-0.499,2.112-1.184,3.058-1.918
		c2.467-1.915,5.367-2.954,8.18-4.157c2.525-1.08,4.783-2.581,7.007-4.145c0.74-0.52,1.195-1.321,1.611-2.119
		c1.275-2.443,3.201-4.113,5.747-5.2C172.654,114.046,176.307,112.729,179.937,111.35z"/>
	<path fill-rule="evenodd" clip-rule="evenodd" fill="#A02A21" d="M101.812,148.136c-0.007,0.077-0.016,0.154-0.022,0.231
		c-0.085,1.118-0.087,1.122-1.128,0.697c-1.93-0.788-3.776-1.751-5.651-2.655c-2.107-1.016-4.285-1.945-6.616-2.411
		c-1.02-0.204-1.979-0.638-2.975-0.941c-2.29-0.698-4.675-1.096-6.899-1.964c-2.443-0.953-4.929-1.79-7.329-2.872
		c-2.496-1.125-5.047-2.153-7.678-2.963c-3.059-0.941-6.095-1.957-9.138-2.952c-0.477-0.156-0.932-0.376-1.404-0.551
		c-0.442-0.164-0.842-0.147-1.087,0.339c-0.035-0.014-0.081-0.018-0.106-0.042c-2.895-2.818-5.795-5.63-8.543-8.593
		c-0.086-0.05-0.154-0.12-0.206-0.205l-0.016-0.023c-0.295-0.527,0.133-0.594,0.458-0.671c0.469-0.111,0.921,0.041,1.372,0.167
		c2.923,0.812,5.748,1.819,8.433,3.297c3.572,1.966,7.375,3.455,11.238,4.776c4.482,1.534,8.814,3.461,13.256,5.101
		c3.504,1.294,7.213,1.863,10.749,3.032c4.234,1.4,8.551,2.554,12.695,4.226c0.285,0.115,0.599,0.205,0.676,0.571
		c-0.03,0.603,0.085,1.211-0.087,1.807c0.021,0.057,0.049,0.113,0.06,0.172c0.003,0.021-0.037,0.05-0.057,0.076
		c0.141,0.77,0.141,1.539,0,2.309L101.812,148.136z"/>
	<path fill-rule="evenodd" clip-rule="evenodd" fill="#A02A21" d="M113.937,151.251c0-1.555,0-3.11,0-4.665
		c0.315-0.308,0.712-0.242,1.099-0.253c6.583-0.191,13.07-1.096,19.449-2.723c3.025-0.771,5.815-2.188,8.613-3.522
		c5.048-2.407,10.174-4.643,15.228-7.034c1.58-0.748,3.061-1.697,4.696-2.328c0.444-0.172,1.006-0.569,1.288,0.252
		c-0.175,0.205-0.337,0.423-0.527,0.613c-4.436,4.443-8.875,8.884-13.316,13.322c-0.189,0.189-0.412,0.346-0.619,0.518
		c-0.192-0.258-0.458-0.274-0.734-0.201c-1.791,0.476-3.618,0.789-5.421,1.211c-1.683,0.394-3.403,0.674-5.09,1.08
		c-2.14,0.514-4.314,0.864-6.437,1.461c-1.18,0.332-2.426,0.425-3.641,0.635c-2.164,0.375-4.323,0.779-6.492,1.124
		c-1.028,0.164-2.082,0.146-3.118,0.22C117.26,151.078,115.608,151.407,113.937,151.251z"/>
	<path fill-rule="evenodd" clip-rule="evenodd" fill="#822119" d="M101.831,128.406l0.021,0.059L101.8,128.5
		c0.021,0.075,0.05,0.149,0.057,0.226c0.188,2.165,0.189,2.156-1.947,1.897c-1.125-0.136-2.25,0.037-3.372,0.095
		c-3.555,0.184-7.017-0.599-10.521-0.939c-2.663-0.259-5.31-0.674-7.936-1.159c-3.4-0.627-6.692-1.649-9.823-3.183
		c-2.348-1.15-4.573-2.426-6.533-4.193c-1.503-1.355-3.409-2.146-5.142-3.176c-0.723-0.43-1.578-0.439-2.383-0.424
		c-0.806,0.015-1.549-0.148-2.259-0.462c-2.022-0.893-4.111-1.64-6.042-2.737c-1.979-1.124-3.517-2.8-5.254-4.223
		c-1.102-0.903-2.31-1.684-3.196-2.858c-0.587-0.777-1.48-0.925-2.431-0.595c-0.589,0.204-1.131,0.521-1.725,0.703
		c-0.552,0.168-1.146,0.389-1.523-0.324c1.894-2.097,3.978-4.007,5.943-6.034c0.294-0.303,0.656-0.548,0.835-0.953
		c0.073-0.006,0.146-0.009,0.219-0.009c0.475-0.271,0.689,0.082,0.955,0.374c1.967,2.158,3.585,4.573,5.264,6.953
		c0.92,1.305,1.891,2.641,3.438,3.404c0.855,0.422,1.308,1.405,2.195,1.883c1.104,0.594,2.21,1.209,3.457,1.336
		c3.363,0.342,6.088,1.928,8.585,4.085c3.353,2.896,7.321,4.641,11.503,5.953c6.288,1.971,12.775,3.015,19.255,4.067
		c1.756,0.285,3.562,0.173,5.346-0.014C99.792,128.086,100.836,127.953,101.831,128.406z"/>
	<path fill-rule="evenodd" clip-rule="evenodd" fill="#97281F" d="M101.731,143.55c-1.138-0.115-2.147-0.638-3.183-1.049
		c-2.051-0.815-4.184-1.361-6.288-2.003c-1.66-0.506-3.254-1.205-4.957-1.593c-2.518-0.573-4.974-1.383-7.505-1.932
		c-1.534-0.333-2.982-1.063-4.465-1.624c-1.628-0.616-3.195-1.381-4.839-1.964c-1.932-0.686-3.82-1.498-5.761-2.158
		c-2.088-0.71-4.129-1.539-6.168-2.369c-1.106-0.45-2.182-1.002-3.271-1.475c-2.343-1.015-4.423-2.56-6.929-3.257
		c-1.333-0.371-2.658-0.814-3.99-1.208c-0.47-0.139-1.061-0.441-1.361,0.312c-1.59-1.369-3.052-2.866-4.445-4.433
		c-0.083-0.055-0.154-0.124-0.209-0.208l-0.023-0.023c-0.084-0.056-0.154-0.125-0.209-0.21l-0.024-0.024
		c-0.084-0.055-0.155-0.124-0.208-0.209l-0.025-0.025c-0.085-0.053-0.153-0.123-0.206-0.208l-0.027-0.027
		c-0.084-0.052-0.153-0.121-0.205-0.207l-0.008-0.021c0.138-0.728,0.663-0.645,1.154-0.505c0.858,0.244,1.736,0.441,2.552,0.809
		c2.695,1.213,5.477,2.193,8.276,3.123c1.93,0.642,3.701,1.626,5.46,2.601c1.945,1.077,3.968,1.974,6.017,2.788
		c3.501,1.391,6.905,3.001,10.379,4.453c4.974,2.079,10.172,3.333,15.375,4.608c2.94,0.72,5.881,1.441,8.806,2.22
		c1.693,0.451,3.424,0.694,5.124,1.091c0.503,0.118,1.124,0.079,1.325,0.752C101.797,140.899,102.085,142.238,101.731,143.55z"/>
	<path fill-rule="evenodd" clip-rule="evenodd" fill="#98281F" d="M164.31,130.979c-0.273-0.348-0.608-0.3-0.935-0.114
		c-1.041,0.592-2.147,1.049-3.194,1.64c-1.579,0.891-3.258,1.608-4.911,2.361c-1.796,0.817-3.622,1.569-5.417,2.387
		c-2.419,1.103-4.786,2.314-7.22,3.388c-2.217,0.977-4.39,2.06-6.684,2.853c-1.057,0.365-2.125,0.726-3.216,0.955
		c-1.808,0.38-3.636,0.669-5.461,0.966c-1.975,0.32-3.95,0.674-5.938,0.877c-1.11,0.114-2.227,0.243-3.343,0.283
		c-1.35,0.049-2.703,0.011-4.055,0.011c-0.002-1.244-0.003-2.488-0.004-3.732c1.437,0,2.876-0.039,4.311,0.013
		c1.094,0.04,2.175-0.066,3.227-0.291c0.813-0.174,1.614-0.146,2.422-0.193c2.195-0.125,4.38-0.316,6.539-0.784
		c1.657-0.359,3.369-0.479,4.96-1.116c1.832-0.734,3.664-1.47,5.474-2.255c4.086-1.772,8.112-3.676,12.093-5.675
		c1.734-0.871,3.325-1.99,5.04-2.883c2.188-1.14,4.196-2.653,6.628-3.301c1.648-0.438,3.252-1,4.824-1.666
		c0.335-0.142,0.763-0.524,1.157-0.032l-0.004-0.006c-0.106,0.054-0.168,0.152-0.239,0.241l0.006-0.007
		c-0.094,0.066-0.174,0.146-0.239,0.241l0.006-0.007c-0.1,0.064-0.172,0.155-0.239,0.251
		C168.116,127.329,166.252,129.193,164.31,130.979z"/>
	<path fill-rule="evenodd" clip-rule="evenodd" fill="#90251D" d="M101.73,139.352c-2.615-0.489-5.221-1.008-7.798-1.692
		c-3.954-1.05-7.941-1.972-11.911-2.964c-2.926-0.731-5.863-1.457-8.652-2.612c-2.288-0.947-4.624-1.777-6.855-2.872
		c-1.7-0.834-3.506-1.447-5.229-2.237c-2.105-0.966-4.269-1.786-6.31-2.919c-2.122-1.178-4.289-2.305-6.637-3.041
		c-2.434-0.762-4.822-1.666-7.152-2.718c-0.911-0.412-1.898-0.649-2.847-0.978c-0.4-0.139-0.663,0.061-0.916,0.316
		c-1.212-0.971-2.28-2.088-3.288-3.265c-0.083-0.058-0.153-0.129-0.212-0.211l-0.021-0.021c-0.083-0.059-0.153-0.13-0.212-0.213
		l-0.021-0.021c-0.083-0.058-0.153-0.128-0.21-0.212l-0.023-0.023c-0.083-0.057-0.153-0.125-0.208-0.21l-0.025-0.024
		c-0.083-0.056-0.153-0.125-0.208-0.209l-0.025-0.025c-0.084-0.055-0.153-0.124-0.208-0.208l-0.025-0.025
		c-0.084-0.054-0.153-0.125-0.208-0.208l-0.009-0.021c0.127-0.917,0.787-0.735,1.311-0.546c2.592,0.936,5.336,1.508,7.733,2.915
		c2.393,1.403,4.955,2.403,7.485,3.496c4.997,2.157,9.846,4.629,14.736,7.011c6.177,3.01,12.499,5.565,19.36,6.54
		c4.347,0.618,8.652,1.508,13.007,2.067c1.617,0.208,3.234,0.352,4.8,0.829c0.355,0.108,0.807,0.038,0.939,0.537
		C101.791,136.84,102.1,138.11,101.73,139.352z"/>
	<path fill-rule="evenodd" clip-rule="evenodd" fill="#8A231B" d="M101.73,135.388c-0.752,0.095-1.507-0.042-2.158-0.338
		c-0.751-0.343-1.502-0.289-2.267-0.374c-1.723-0.19-3.451-0.39-5.151-0.715c-1.934-0.37-3.885-0.608-5.82-0.943
		c-3.266-0.565-6.556-1.027-9.758-1.938c-3.21-0.914-6.307-2.112-9.331-3.51c-1.795-0.829-3.637-1.569-5.37-2.512
		c-1.265-0.688-2.592-1.221-3.866-1.875c-3.59-1.844-7.226-3.598-10.973-5.087c-1.774-0.705-3.46-1.523-5.103-2.475
		c-1.413-0.819-2.938-1.395-4.495-1.892c-1.251-0.4-2.488-0.846-3.723-1.294c-0.485-0.176-0.907-0.24-1.194,0.303
		c-1.058-0.77-1.872-1.794-2.81-2.689c-0.294-0.28-0.334-0.598-0.022-0.898c0.219-0.211,0.455-0.405,0.683-0.606
		c0.378-0.123,0.672,0.104,0.99,0.236c1.043,0.431,2.109,0.81,3.22,1.007c3.293,0.585,6.166,2.083,8.803,4.061
		c1.225,0.918,2.524,1.665,3.943,2.217c1.268,0.495,2.516,1.028,3.728,1.651c1.004,0.517,2.065,0.848,3.167,1.131
		c2.312,0.594,4.424,1.705,6.419,2.986c3.934,2.524,7.95,4.873,12.429,6.304c3.6,1.151,7.303,1.826,11.05,2.272
		c3.005,0.357,6.007,0.746,9.016,1.078c1.588,0.175,3.182,0.057,4.773,0.083c1.436,0.024,2.751,0.389,3.907,1.264l0.045,0.068
		l-0.045,0.068C101.883,133.78,102.052,134.593,101.73,135.388z"/>
	<path fill-rule="evenodd" clip-rule="evenodd" fill="#86221A" d="M101.816,132.835c-0.449,0.033-0.825-0.172-1.209-0.361
		c-0.811-0.397-1.666-0.598-2.575-0.586c-1.126,0.015-2.252-0.002-3.378,0.005c-1.356,0.008-2.682-0.304-4.022-0.388
		c-1.623-0.101-3.212-0.414-4.823-0.573c-2.297-0.227-4.596-0.49-6.856-1.005c-1.504-0.343-3.021-0.628-4.513-1.03
		c-1.91-0.515-3.737-1.248-5.541-2.032c-2.958-1.285-5.669-3.021-8.381-4.751c-1.802-1.151-3.683-2.297-5.742-2.752
		c-2.778-0.613-5.103-2.199-7.737-3.078c-1.514-0.505-2.817-1.406-4.091-2.364c-2.664-2.004-5.628-3.345-8.927-3.956
		c-1.289-0.239-2.557-0.625-3.648-1.418c0.396-0.536,0.86-1.003,1.399-1.396c0.653,0.458,1.294,0.184,1.858-0.132
		c0.483-0.271,0.997-0.409,1.499-0.605c0.951-0.37,1.739-0.094,2.435,0.572c0.306,0.294,0.609,0.588,0.83,0.968
		c0.151,0.261,0.373,0.52,0.626,0.677c1.883,1.173,3.427,2.754,5.079,4.201c1.095,0.958,2.376,1.593,3.646,2.234
		c1.063,0.537,2.235,0.853,3.288,1.43c1.387,0.76,2.911,0.865,4.438,0.921c0.532,0.02,1.001,0.161,1.421,0.44
		c1.545,1.029,3.248,1.787,4.758,2.886c0.761,0.553,1.317,1.311,2.104,1.82c1.331,0.861,2.708,1.626,4.129,2.338
		c1.319,0.661,2.65,1.268,4.041,1.73c1.902,0.632,3.798,1.388,5.792,1.59c1.998,0.203,3.908,0.871,5.938,0.904
		c1.261,0.02,2.527,0.278,3.772,0.522c0.989,0.194,1.992,0.176,2.984,0.348c0.714,0.124,1.452,0.228,2.166,0.286
		c1.002,0.082,2.033,0.474,3.05,0.041c1.816,0.281,3.67-0.419,5.474,0.206c0.178,0.061,0.359,0.158,0.609,0.002
		c0.16-0.638,0.021-1.341,0.094-2.029C102.037,129.944,102.006,131.389,101.816,132.835z"/>
	<path fill-rule="evenodd" clip-rule="evenodd" fill="#2F111B" d="M106.035,111.621c1.088,0.228,2.038,0.946,3.201,0.909
		c0.002,5.35,0.004,10.7,0.005,16.05c0,0.232,0,0.465-0.009,0.698c-0.016,0.406-0.268,0.567-0.623,0.475
		c-0.746-0.193-1.48-0.434-2.22-0.654c-0.252-0.075-0.391-0.235-0.397-0.501c-0.003-0.155-0.008-0.31-0.008-0.465
		c0-5.35,0.001-10.7,0.004-16.05C105.989,111.928,106.019,111.774,106.035,111.621z"/>
	<path fill-rule="evenodd" clip-rule="evenodd" fill="#97281F" d="M43.029,123.254c0.068,0.068,0.137,0.137,0.206,0.205
		C43.12,123.436,43.052,123.368,43.029,123.254z"/>
	<path fill-rule="evenodd" clip-rule="evenodd" fill="#90251D" d="M170.365,124.906c0.08-0.08,0.159-0.16,0.239-0.241
		C170.524,124.746,170.444,124.826,170.365,124.906z"/>
	<path fill-rule="evenodd" clip-rule="evenodd" fill="#90251D" d="M170.132,125.14c0.08-0.081,0.16-0.161,0.239-0.241
		C170.292,124.979,170.212,125.06,170.132,125.14z"/>
	<path fill-rule="evenodd" clip-rule="evenodd" fill="#90251D" d="M169.899,125.384c0.08-0.084,0.159-0.167,0.239-0.251
		C170.059,125.217,169.979,125.3,169.899,125.384z"/>
	<path fill-rule="evenodd" clip-rule="evenodd" fill="#A02A21" d="M51.898,132.118c0.067,0.067,0.135,0.135,0.202,0.202
		C51.987,132.299,51.919,132.231,51.898,132.118z"/>
	<path fill-rule="evenodd" clip-rule="evenodd" fill="#A02A21" d="M52.132,132.351c0.067,0.068,0.134,0.135,0.202,0.202
		C52.22,132.531,52.153,132.464,52.132,132.351z"/>
	<path fill-rule="evenodd" clip-rule="evenodd" fill="#A02A21" d="M52.365,132.584c0.067,0.067,0.134,0.134,0.201,0.201
		C52.454,132.764,52.387,132.697,52.365,132.584z"/>
	<path fill-rule="evenodd" clip-rule="evenodd" fill="#A02A21" d="M52.599,132.818c0.066,0.066,0.133,0.132,0.199,0.198
		C52.686,132.996,52.62,132.929,52.599,132.818z"/>
	<path fill-rule="evenodd" clip-rule="evenodd" fill="#A02A21" d="M148.907,146.382c0.08-0.085,0.16-0.17,0.239-0.255
		C149.066,146.212,148.986,146.296,148.907,146.382z"/>
	<path fill-rule="evenodd" clip-rule="evenodd" fill="#A02A21" d="M149.139,146.135c0.08-0.081,0.16-0.161,0.241-0.242
		C149.299,145.975,149.219,146.055,149.139,146.135z"/>
	<path fill-rule="evenodd" clip-rule="evenodd" fill="#A02A21" d="M149.372,145.902c0.081-0.081,0.161-0.161,0.241-0.242
		C149.532,145.741,149.452,145.821,149.372,145.902z"/>
	<path fill-rule="evenodd" clip-rule="evenodd" fill="#A02A21" d="M149.604,145.668c0.08-0.081,0.161-0.161,0.241-0.242
		C149.766,145.507,149.685,145.588,149.604,145.668z"/>
	<path fill-rule="evenodd" clip-rule="evenodd" fill="#8A231B" d="M32.529,112.759c0.069,0.07,0.139,0.139,0.208,0.208
		C32.668,112.898,32.599,112.829,32.529,112.759z"/>
	<path fill-rule="evenodd" clip-rule="evenodd" fill="#8A231B" d="M32.763,112.993c0.069,0.069,0.139,0.139,0.208,0.208
		C32.901,113.131,32.832,113.062,32.763,112.993z"/>
	<path fill-rule="evenodd" clip-rule="evenodd" fill="#8A231B" d="M32.996,113.226c0.069,0.07,0.139,0.14,0.208,0.209
		C33.134,113.365,33.065,113.295,32.996,113.226z"/>
	<path fill-rule="evenodd" clip-rule="evenodd" fill="#8A231B" d="M33.229,113.459c0.069,0.07,0.139,0.141,0.208,0.21
		C33.368,113.599,33.298,113.529,33.229,113.459z"/>
	<path fill-rule="evenodd" clip-rule="evenodd" fill="#8A231B" d="M33.46,113.692c0.07,0.071,0.14,0.142,0.21,0.212
		C33.6,113.833,33.53,113.763,33.46,113.692z"/>
	<path fill-rule="evenodd" clip-rule="evenodd" fill="#8A231B" d="M33.691,113.925c0.071,0.071,0.141,0.143,0.212,0.214
		C33.833,114.067,33.762,113.997,33.691,113.925z"/>
	<path fill-rule="evenodd" clip-rule="evenodd" fill="#8A231B" d="M33.924,114.159c0.07,0.071,0.141,0.141,0.212,0.211
		C34.065,114.3,33.994,114.229,33.924,114.159z"/>
	<path fill-rule="evenodd" clip-rule="evenodd" fill="#90251D" d="M37.432,117.656c0.068,0.069,0.137,0.138,0.205,0.207
		C37.523,117.838,37.455,117.77,37.432,117.656z"/>
	<path fill-rule="evenodd" clip-rule="evenodd" fill="#90251D" d="M37.664,117.89c0.069,0.069,0.138,0.139,0.206,0.208
		C37.756,118.073,37.688,118.004,37.664,117.89z"/>
	<path fill-rule="evenodd" clip-rule="evenodd" fill="#90251D" d="M37.896,118.123c0.069,0.07,0.139,0.14,0.208,0.209
		C37.99,118.307,37.92,118.237,37.896,118.123z"/>
	<path fill-rule="evenodd" clip-rule="evenodd" fill="#90251D" d="M38.127,118.356c0.07,0.07,0.139,0.141,0.209,0.211
		C38.222,118.541,38.153,118.471,38.127,118.356z"/>
	<path fill-rule="evenodd" clip-rule="evenodd" fill="#90251D" d="M38.359,118.59c0.07,0.07,0.139,0.139,0.209,0.209
		C38.455,118.773,38.385,118.704,38.359,118.59z"/>
	<path fill-rule="evenodd" clip-rule="evenodd" fill="#37121F" d="M177.582,101.115c-0.138-0.022-0.217-0.103-0.238-0.241
		C177.424,100.954,177.503,101.035,177.582,101.115z"/>
	<path fill-rule="evenodd" clip-rule="evenodd" fill="#37121F" d="M177.35,100.879c-0.138-0.022-0.217-0.101-0.238-0.239
		C177.191,100.72,177.271,100.8,177.35,100.879z"/>
	<path fill-rule="evenodd" clip-rule="evenodd" fill="#37121F" d="M177.117,100.645c-0.138-0.021-0.217-0.1-0.237-0.238
		C176.958,100.486,177.038,100.565,177.117,100.645z"/>
	<path fill-rule="evenodd" clip-rule="evenodd" fill="#37121F" d="M176.884,100.411c-0.138-0.021-0.217-0.102-0.239-0.239
		C176.724,100.252,176.804,100.332,176.884,100.411z"/>
	<path fill-rule="evenodd" clip-rule="evenodd" fill="#761F15" d="M68.16,70.562c0.142,0.384,0.477,0.607,0.746,0.879
		c10.688,10.802,21.379,21.599,32.065,32.402c0.294,0.297,0.673,0.531,0.819,0.958c0.175,0.288,0.099,0.606,0.099,0.911
		c0.004,6.374,0.004,12.748,0.002,19.123c0,1.261-0.198,1.318-1.476,1.559c-4.608,0.869-8.853-0.638-13.1-1.973
		c-5.718-1.796-11.146-4.337-16.609-6.776c-0.892-0.398-1.832-0.659-2.759-0.93c-2.864-0.837-5.391-2.35-8.002-3.73
		c-2.265-1.196-4.673-2.122-6.672-3.777c-3.533-2.925-6.37-6.357-7.861-10.78c-0.396-1.177-0.916-2.309-1.509-3.403
		c0.233-0.415,0.609-0.701,0.937-1.028c7.409-7.414,14.822-14.822,22.23-22.236C67.451,71.378,67.798,70.962,68.16,70.562z"/>
	<path fill-rule="evenodd" clip-rule="evenodd" fill="#7D2017" d="M43.903,95.024c0.468,0.02,0.62,0.324,0.774,0.727
		c0.567,1.479,1.172,2.943,1.788,4.402c0.925,2.195,2.264,4.12,3.887,5.854c1.649,1.761,3.425,3.364,5.511,4.608
		c0.736,0.439,1.483,0.855,2.273,1.168c1.515,0.602,2.936,1.348,4.295,2.258c1.125,0.753,2.39,1.306,3.685,1.71
		c3.107,0.969,6.162,2.07,9.062,3.552c1.629,0.833,3.385,1.342,5.039,2.101c2.434,1.117,4.946,2.048,7.497,2.821
		c2.024,0.614,4.069,1.193,6.144,1.668c1.311,0.3,2.583,0.376,3.892,0.4c1.048,0.02,2.059-0.3,3.117-0.27
		c0.758,0.022,0.906-0.281,0.907-1.292c0.004-4.779,0-9.558,0.002-14.337c0.001-1.865,0.008-3.73,0.013-5.594
		c0.241,0.216,0.148,0.505,0.148,0.763c0,7.389-0.005,14.779-0.01,22.168c0,0.23,0.046,0.465-0.098,0.673
		c-1.645,0.073-3.29,0.138-4.934,0.222c-2.765,0.141-5.455-0.349-8.15-0.878c-2.874-0.564-5.76-1.059-8.623-1.682
		c-3.405-0.74-6.735-1.74-9.974-3.01c-1.288-0.505-2.455-1.309-3.717-1.889c-2.145-0.985-3.818-2.614-5.629-4.045
		c-1.684-1.331-3.523-2.211-5.65-2.484c-1.788-0.23-3.5-0.73-4.957-1.801c-1.257-0.924-2.566-1.856-3.641-2.942
		c-1.782-1.8-3.117-4.008-4.505-6.142c-0.299-0.459-0.659-0.855-1.025-1.255c-0.594-0.647-1.391-1.126-1.66-2.049
		c-0.068-0.233-0.358-0.271-0.595-0.297C40.404,98.367,42.114,96.656,43.903,95.024z"/>
	<path fill-rule="evenodd" clip-rule="evenodd" fill="#A52B22" d="M101.73,135.388c0.028-0.806,0.057-1.611,0.085-2.417
		c0.163,0.198,0.127,0.437,0.127,0.665c-0.001,3.667-0.002,7.333-0.013,11c0,0.3,0.067,0.621-0.127,0.899
		c-0.023-0.662-0.046-1.324-0.07-1.986c0.068-1.399,0.072-2.798-0.001-4.198C101.8,138.031,101.803,136.709,101.73,135.388z"/>
	<path fill-rule="evenodd" clip-rule="evenodd" fill="#A52B22" d="M101.804,148.093c0-0.77,0-1.539,0-2.309
		C102.004,146.554,102.016,147.323,101.804,148.093z"/>
	<path fill-rule="evenodd" clip-rule="evenodd" fill="#C0664A" d="M136.751,81.707c0.242-0.381,0.549-0.696,0.935-0.933
		c0.493,0.051,0.836,0.375,1.197,0.664c2.745,2.202,5.843,3.072,9.329,2.463c1.448-0.253,2.889-0.552,4.368-0.215
		c0.44,0.101,0.832-0.102,1.211-0.301c1.384,1.174,2.575,2.543,3.854,3.823c1.552,1.555,3.058,3.155,4.584,4.735
		c-0.082,0.74-0.629,0.527-1.035,0.459c-2.91-0.485-5.722-1.335-8.528-2.232c-5.092-1.626-9.722-4.21-14.353-6.794
		C137.661,83.011,136.764,82.733,136.751,81.707z"/>
	<path fill-rule="evenodd" clip-rule="evenodd" fill="#C16C51" d="M113.939,87.093c0.002-1.321,0.003-2.642,0.005-3.962
		c0.883-0.536,1.912-0.625,2.876-0.882c1.794-0.479,3.202-1.533,4.546-2.724c0.437-0.387,0.565-0.876,0.533-1.468
		c-0.089-1.642,1.399-3.734,2.988-4.276c1.352,2.276,2.586,4.615,3.731,7.001c0.122,0.335-0.096,0.519-0.331,0.655
		c-3.318,1.926-6.45,4.18-10.01,5.682c-0.828,0.349-1.672,0.662-2.573,0.697C115.034,87.841,114.391,87.667,113.939,87.093z"/>
	<path fill-rule="evenodd" clip-rule="evenodd" fill="#C06043" d="M113.945,72.855c-0.008-6.263-0.017-12.526-0.025-18.789
		c0-0.268-0.037-0.547,0.181-0.764c2.033,3.887,4.067,7.773,6.101,11.66c0.289,0.443,0.089,0.799-0.195,1.15
		c-1.416,1.75-2.666,3.626-4.075,5.38C115.42,72.128,114.987,72.959,113.945,72.855z"/>
	<path fill-rule="evenodd" clip-rule="evenodd" fill="#C06549" d="M113.945,72.855c0.718-0.264,1.233-0.801,1.671-1.379
		c1.179-1.557,2.305-3.154,3.461-4.727c0.204-0.277,0.44-0.535,0.689-0.772c0.297-0.282,0.487-0.591,0.435-1.014
		c1.045,1.715,1.981,3.488,2.818,5.312c0.245,0.488,0.054,0.868-0.251,1.266c-1.77,2.309-3.98,4.089-6.507,5.5
		c-1.477,0.825-1.657,1.398-0.919,2.903c0.216,0.441,0.633,0.917,0.169,1.369c-0.423,0.413-0.984,0.63-1.566,0.188
		C113.945,78.619,113.945,75.737,113.945,72.855z"/>
	<path fill-rule="evenodd" clip-rule="evenodd" fill="#C0684C" d="M113.945,81.5c0.117,0.001,0.235,0.018,0.349,0
		c1.326-0.2,1.383-0.311,0.756-1.453c-0.037-0.068-0.071-0.137-0.107-0.206c-0.685-1.307-0.371-2.291,0.93-2.962
		c1.856-0.958,3.58-2.137,5.044-3.658c0.644-0.669,1.116-1.485,1.834-2.087c0.266-0.223,0.255-0.549,0.268-0.859
		c0.734,1.109,1.358,2.277,1.869,3.505c-1.048,0.821-1.9,1.811-2.541,2.979c-0.209,0.381-0.371,0.771-0.171,1.218
		c0.305,0.684,0.018,1.269-0.482,1.661c-0.908,0.711-1.708,1.553-2.779,2.077c-1.583,0.775-3.22,1.273-4.971,1.417
		C113.944,82.587,113.945,82.044,113.945,81.5z"/>
	<path fill-rule="evenodd" clip-rule="evenodd" fill="#C26B50" d="M136.751,81.707c0.253,0.63,0.871,0.927,1.375,1.201
		c0.873,0.475,1.695,1.038,2.608,1.458c1.402,0.644,2.734,1.447,4.072,2.222c1.177,0.682,2.458,1.121,3.688,1.676
		c1.942,0.876,3.979,1.492,5.984,2.189c2.289,0.795,4.678,1.23,7.042,1.749c0.284,0.062,0.542,0.019,0.708-0.258
		c0.542,0.396,0.999,0.875,1.389,1.419c-0.222,0.863-0.894,0.55-1.39,0.466c-2.445-0.415-4.859-0.989-7.242-1.67
		c-4.475-1.278-8.905-2.694-13.172-4.568c-1.953-0.858-3.882-1.776-5.564-3.118c-0.435-0.347-1.011-0.643-0.899-1.367
		C135.747,82.567,136.205,82.093,136.751,81.707z"/>
	<path fill-rule="evenodd" clip-rule="evenodd" fill="#C06346" d="M153.792,83.385c0.014,0.393-0.074,0.7-0.561,0.683
		c-0.077-0.002-0.161,0.022-0.232,0c-2.052-0.628-4.06,0.082-6.069,0.274c-3.213,0.307-5.881-0.797-8.303-2.742
		c-0.323-0.258-0.79-0.37-0.941-0.826c0.542-0.694,1.157-1.317,1.854-1.855c0.402,0.047,0.708,0.279,1.021,0.509
		c2.44,1.792,5.116,1.941,7.93,1.137c0.613-0.175,1.029-0.672,1.584-0.939c1.246,1.091,2.397,2.276,3.485,3.524
		c0.081,0.07,0.154,0.146,0.224,0.227L153.792,83.385z"/>
	<path fill-rule="evenodd" clip-rule="evenodd" fill="#C06043" d="M150.076,79.625c-0.137,0.786-0.804,0.986-1.406,1.2
		c-1.427,0.508-2.91,0.67-4.408,0.433c-1.809-0.286-3.484-0.882-4.722-2.34l-0.002,0.01c0.119-0.052,0.188-0.152,0.25-0.26
		c1.316-1.514,2.814-2.85,4.196-4.297c0.29-0.303,0.541-0.4,0.864-0.06c1.403,1.481,2.974,2.798,4.292,4.364
		c0.064,0.103,0.138,0.195,0.246,0.256l-0.013-0.014c0.061,0.103,0.143,0.185,0.245,0.247l-0.012-0.012
		c0.061,0.102,0.144,0.183,0.244,0.246l-0.012-0.011c0.063,0.099,0.138,0.188,0.242,0.246L150.076,79.625z"/>
	<path fill-rule="evenodd" clip-rule="evenodd" fill="#C37056" d="M135.351,83.105c0.899,1.341,2.296,2.055,3.651,2.768
		c4.533,2.385,9.379,3.957,14.261,5.447c2.065,0.631,4.171,1.083,6.244,1.669c1.033,0.292,2.123,0.333,3.164,0.625
		c0.313,0.088,0.705,0.105,0.948-0.25c0.461,0.314,0.836,0.712,1.154,1.168c0.063,0.104,0.125,0.211,0.246,0.261l0-0.009
		c-0.127,0.167-0.289,0.251-0.502,0.21c-2.043-0.394-4.09-0.765-6.128-1.186c-3.439-0.712-6.802-1.722-10.143-2.787
		c-2.905-0.926-5.781-1.974-8.551-3.247c-1.775-0.816-3.472-1.828-5.077-2.965c-0.181-0.128-0.289-0.356-0.432-0.538
		C134.506,83.814,134.883,83.414,135.351,83.105z"/>
	<path fill-rule="evenodd" clip-rule="evenodd" fill="#C37157" d="M113.939,87.093c1.502,0.73,2.904,0.308,4.339-0.287
		c1.478-0.612,2.802-1.471,4.184-2.25c1.645-0.926,3.279-1.855,4.807-2.961c0.43-0.311,1.104-0.209,1.35-0.814
		c0.256,0.25,0.417,0.55,0.477,0.903c-0.027,0.427-0.271,0.715-0.616,0.927c-2.823,1.726-5.607,3.52-8.49,5.14
		c-1.151,0.647-2.454,1.121-3.828,1.218c-0.154,0.011-0.31,0.005-0.464,0.001C114.014,88.927,113.88,88.785,113.939,87.093z"/>
	<path fill-rule="evenodd" clip-rule="evenodd" fill="#C06346" d="M149.851,79.398c-0.082-0.082-0.163-0.164-0.244-0.246
		C149.741,79.183,149.822,79.265,149.851,79.398z"/>
	<path fill-rule="evenodd" clip-rule="evenodd" fill="#C06346" d="M149.619,79.165c-0.082-0.082-0.163-0.165-0.245-0.247
		C149.509,78.947,149.59,79.03,149.619,79.165z"/>
	<path fill-rule="evenodd" clip-rule="evenodd" fill="#C06346" d="M149.387,78.932c-0.128-0.042-0.209-0.127-0.246-0.256
		C149.274,78.711,149.358,78.795,149.387,78.932z"/>
	<path fill-rule="evenodd" clip-rule="evenodd" fill="#C06346" d="M139.789,78.668c-0.035,0.133-0.117,0.22-0.25,0.26
		C139.567,78.79,139.654,78.706,139.789,78.668z"/>
	<path fill-rule="evenodd" clip-rule="evenodd" fill="#C3745C" d="M165.018,94.792c-0.13-0.041-0.212-0.128-0.246-0.261
		C164.902,94.573,164.987,94.656,165.018,94.792z"/>
	<path fill-rule="evenodd" clip-rule="evenodd" fill="#C0664A" d="M153.785,83.376c-0.075-0.076-0.149-0.151-0.224-0.227
		C153.69,83.172,153.765,83.247,153.785,83.376z"/>
	<path fill-rule="evenodd" clip-rule="evenodd" fill="#C06346" d="M150.082,79.633c-0.081-0.082-0.162-0.165-0.242-0.246
		C149.974,79.417,150.053,79.499,150.082,79.633z"/>
	<path fill-rule="evenodd" clip-rule="evenodd" fill="#751F14" d="M113.921,107.4c-0.136-2.759-0.134-2.757,1.763-4.663
		c5.015-5.037,10.027-10.076,15.042-15.114c0.219-0.22,0.444-0.435,0.658-0.66c0.218-0.231,0.396-0.229,0.701-0.073
		c3.456,1.766,6.925,3.506,10.391,5.252c4.194,2.113,8.389,4.224,12.582,6.339c1.938,0.978,3.878,1.951,5.753,3.047
		c0.278,1.135-0.628,1.409-1.345,1.688c-1.191,0.465-2.434,0.799-3.662,1.164c-4.415,1.311-8.955,1.867-13.529,2.201
		c-0.583,0.042-1.164,0.107-1.733,0.217c-4.286,0.825-8.65,0.73-12.975,1.046c-3.025,0.221-6.09,0.42-9.141,0.025
		c-0.921-0.119-1.852,0.171-2.788,0.104C115.012,107.929,114.389,107.904,113.921,107.4z"/>
	<path fill-rule="evenodd" clip-rule="evenodd" fill="#7E2017" d="M113.921,128.394c0-5.443-0.001-10.886-0.001-16.329
		c0.341-0.364,0.782-0.506,1.259-0.522c3.318-0.111,6.418,0.486,8.985,2.798c1.223,1.101,2.754,1.597,4.291,1.985
		c1.008,0.254,2.025-0.135,2.824-0.79c0.679-0.556,1.312-0.599,2.031-0.209c0.383,0.208,0.771,0.389,1.217,0.307
		c4.161-0.768,8.441-0.586,12.572-1.602c4.224-1.039,8.502-1.913,12.397-3.955c1.546-0.811,3.084-1.644,4.606-2.498
		c1.546-0.868,3.174-1.44,4.882-1.839c1.453,0.587,2.844,1.294,4.173,2.123c0.435,0.299,0.277,0.577-0.042,0.828
		c-0.248,0.195-0.55,0.309-0.854,0.354c-4.47,0.655-8.179,3.03-11.939,5.281c-3.77,2.256-7.746,4.072-11.857,5.601
		c-0.917,0.341-1.712,0.908-2.561,1.375c-2.762,1.521-5.635,2.704-8.686,3.576c-3.649,1.042-7.474,1.442-10.994,2.898
		c-1.895,0.784-3.863,1.26-5.841,1.367C118.229,129.256,115.966,129.539,113.921,128.394z"/>
	<path fill-rule="evenodd" clip-rule="evenodd" fill="#7B1F16" d="M168.985,105.738c-0.045,0.19-0.092,0.415-0.311,0.447
		c-2.645,0.387-4.831,1.846-7.071,3.119c-2.701,1.534-5.517,2.695-8.508,3.529c-1.788,0.499-3.583,0.948-5.389,1.359
		c-1.8,0.41-3.61,0.768-5.462,0.929c-1.921,0.168-3.836,0.376-5.765,0.458c-0.531,0.022-1.06,0.201-1.582,0.339
		c-0.629,0.167-1.172,0.164-1.73-0.301c-0.625-0.519-1.151-0.396-1.669,0.214c-0.099,0.116-0.18,0.318-0.296,0.34
		c-1.287,0.242-2.561,1.082-3.888,0.142c-0.397-0.282-0.926-0.183-1.312-0.437c-0.727-0.48-1.532-0.777-2.206-1.421
		c-1.265-1.208-2.86-2.074-4.591-2.318c-1.735-0.245-3.521-0.609-5.288-0.073c0-1.555,0.001-3.109,0.001-4.665
		c1.336,0.251,2.681,0.083,4.012,0.116c1.524,0.038,3.092-0.079,4.61,0.244c0.468,0.099,0.91,0.139,1.371,0
		c1.045-0.315,2.093-0.248,3.179-0.233c1.241,0.017,2.534-0.061,3.799-0.213c1.168-0.141,2.321-0.423,3.535-0.18
		c1.108,0.222,2.23-0.14,3.332-0.288c1.793-0.241,3.566-0.605,5.388-0.625c0.573-0.006,1.15-0.119,1.715-0.233
		c1.519-0.304,3.077-0.205,4.596-0.467c1.138-0.197,2.273-0.438,3.391-0.73c1.973-0.517,3.938-1.07,5.895-1.646
		c0.884-0.26,1.834-0.495,2.067-1.615c1.924,0.799,3.73,1.835,5.585,2.772c0.791,0.399,1.561,0.839,2.339,1.261
		c0.079,0.068,0.161,0.133,0.247,0.192L168.985,105.738z"/>
	<path fill-rule="evenodd" clip-rule="evenodd" fill="#842219" d="M113.921,128.394c0.466-0.009,0.924-0.006,1.369,0.191
		c0.577,0.257,1.193,0.287,1.822,0.282c0.869-0.005,1.761-0.297,2.604,0.171c0.086,0.047,0.246,0.035,0.338-0.012
		c1.144-0.581,2.415-0.421,3.62-0.643c0.225-0.042,0.481-0.076,0.656-0.205c0.81-0.599,1.778-0.721,2.709-0.962
		c0.673-0.174,1.336-0.359,1.984-0.633c1.395-0.588,2.874-0.847,4.377-1.007c0.685-0.073,1.397-0.189,2.024-0.456
		c1.292-0.551,2.694-0.7,3.99-1.188c1.519-0.571,3.062-1.096,4.483-1.909c1.272-0.728,2.521-1.511,3.848-2.125
		c1.466-0.679,3.008-1.194,4.517-1.778c0.144-0.056,0.305-0.078,0.437-0.152c2.391-1.344,4.964-2.326,7.295-3.795
		c1.832-1.154,3.729-2.206,5.596-3.305c1.676-0.986,3.592-1.403,5.48-1.841c0.601-0.139,1.195-0.314,1.793-0.47
		c0.405-0.105,0.473-0.348,0.294-0.697c1.181,0.372,2.188,1.089,3.27,1.656c0.079,0.074,0.162,0.141,0.251,0.202l0.009-0.014
		c-0.132,1.046-1.082,1.004-1.751,1.208c-1.931,0.589-3.803,1.346-5.739,1.922c-2.997,0.891-5.228,3.021-7.517,4.989
		c-3.836,3.299-8.019,6.017-12.763,7.779c-2.102,0.782-4.342,1.175-6.438,2.019c-0.907,0.365-1.762,0.779-2.549,1.375
		c-1.721,1.301-3.743,2.044-5.71,2.854c-1.363,0.562-2.726,1.121-4.027,1.805c-4.756,2.501-9.856,3.442-15.175,3.439
		c-0.389,0-0.784-0.001-1.091-0.303C113.926,133.992,113.924,131.192,113.921,128.394z"/>
	<path fill-rule="evenodd" clip-rule="evenodd" fill="#8A231B" d="M179.937,111.35c-0.309,0.57-0.901,0.737-1.438,0.912
		c-3.394,1.101-6.679,2.48-9.953,3.881c-2.092,0.895-3.714,2.403-4.746,4.431c-0.784,1.541-1.828,2.757-3.333,3.611
		c-1.649,0.936-3.143,2.179-4.93,2.832c-1.683,0.614-3.201,1.592-4.906,2.118c-1.182,0.365-2.165,1.066-3.119,1.76
		c-3.069,2.229-6.405,3.885-9.998,5.072c-1.616,0.534-3.193,1.18-4.845,1.616c-1.471,0.389-2.979,0.411-4.469,0.584
		c-1.875,0.22-3.749,0.472-5.625,0.641c-1.807,0.162-3.588,0.567-5.412,0.551c-1.083-0.009-2.14,0.384-3.234,0.231
		c0-0.542,0-1.084,0-1.626c1.906-0.38,3.857-0.278,5.778-0.537c6.437-0.872,12.837-1.887,18.783-4.699
		c2.237-1.058,4.564-1.99,6.303-3.872c0.266-0.289,0.625-0.456,0.971-0.635c2.003-1.037,4.109-1.862,6.247-2.523
		c2.727-0.843,4.87-2.537,7.007-4.267c2.473-2,4.597-4.406,7.207-6.255c0.768-0.544,1.573-0.971,2.459-1.298
		c3.131-1.153,6.316-2.167,9.388-3.483c0.352,0.069,0.669,0.207,0.923,0.47c0.109,0.176,0.333,0.14,0.474,0.256l-0.01-0.007
		c0.117,0.162,0.336,0.123,0.475,0.242L179.937,111.35z"/>
	<path fill-rule="evenodd" clip-rule="evenodd" fill="#8A231B" d="M178.073,110.394c-0.195,0.41-0.518,0.625-0.953,0.779
		c-2.884,1.02-5.751,2.089-8.639,3.096c-0.712,0.249-1.344,0.601-1.932,1.041c-2.017,1.51-3.893,3.18-5.688,4.949
		c-1.49,1.468-3.259,2.604-4.884,3.911c-1.219,0.981-2.705,1.297-4.095,1.857c-0.14,0.057-0.326,0.012-0.455,0.083
		c-1.398,0.767-2.91,1.256-4.394,1.811c-1.373,0.513-2.419,1.487-3.478,2.44c-0.319,0.288-0.638,0.553-1.024,0.754
		c-2.923,1.521-5.916,2.915-9.056,3.884c-2.569,0.793-5.158,1.565-7.881,1.848c-1.709,0.178-3.45,0.317-5.138,0.8
		c-0.912,0.261-1.911,0.239-2.873,0.3c-0.809,0.051-1.621-0.046-2.422,0.209c-0.405,0.129-0.85,0.042-1.233-0.196
		c0-0.391,0-0.781-0.001-1.172c0.155,0,0.311-0.007,0.466,0c3.43,0.151,6.773-0.405,10.09-1.217c2.163-0.529,4.12-1.516,6.113-2.468
		c1.161-0.554,2.368-1.077,3.571-1.562c1.333-0.537,2.727-1.028,3.988-1.798c0.859-0.524,1.649-1.147,2.513-1.65
		c1.243-0.723,2.634-1.114,3.994-1.565c1.245-0.414,2.53-0.688,3.787-1.042c0.748-0.21,1.516-0.552,2.249-0.903
		c2.344-1.125,4.604-2.386,6.763-3.843c1.417-0.956,2.675-2.097,3.994-3.167c1.711-1.389,3.367-2.857,5.253-4.004
		c1.193-0.725,2.55-1.104,3.885-1.52c1.878-0.585,3.732-1.25,5.596-1.881c0.236-0.08,0.383-0.255,0.497-0.466
		C177.21,109.813,177.66,110.066,178.073,110.394z"/>
	<path fill-rule="evenodd" clip-rule="evenodd" fill="#90251D" d="M179.47,111.121c-0.207,0.005-0.391-0.032-0.474-0.256
		C179.187,110.89,179.365,110.937,179.47,111.121z"/>
	<path fill-rule="evenodd" clip-rule="evenodd" fill="#90251D" d="M179.935,111.355c-0.201,0.004-0.379-0.037-0.475-0.241
		C179.654,111.125,179.829,111.173,179.935,111.355z"/>
	<path fill-rule="evenodd" clip-rule="evenodd" fill="#7E2017" d="M168.98,105.755c-0.083-0.064-0.165-0.128-0.247-0.192
		C168.858,105.573,168.943,105.633,168.98,105.755z"/>
	<path fill-rule="evenodd" clip-rule="evenodd" fill="#8A231B" d="M176.679,109.719c-0.084-0.067-0.167-0.135-0.251-0.202
		C176.554,109.532,176.644,109.591,176.679,109.719z"/>
</g>
<g>
	<path fill-rule="evenodd" clip-rule="evenodd" fill="#FFFFFF" d="M789.028,84.352c0,3.741,0,7.354,0,11.301
		c-1.105,0-2.086,0-3.065,0c-9.35,0-18.697,0-28.047,0.001c-0.733,0-1.475-0.047-2.198,0.041c-2.621,0.314-4.427,2.354-4.324,4.821
		c0.104,2.493,1.989,4.352,4.677,4.436c2.656,0.084,5.315,0.024,7.975,0.026c3.208,0.003,6.419-0.076,9.624,0.024
		c8.67,0.269,15.48,7.37,15.503,16.079c0.022,8.738-6.692,16.036-15.37,16.178c-12.095,0.198-24.196,0.054-36.295,0.047
		c-0.344,0-0.689-0.119-1.173-0.208c0-3.701,0-7.317,0-11.275c1.1,0,2.078,0,3.055,0c10.541,0,21.081,0,31.621-0.002
		c0.825,0,1.659,0.044,2.474-0.05c2.51-0.294,4.173-2.169,4.173-4.624c0-2.454-1.677-4.333-4.176-4.622
		c-0.725-0.083-1.464-0.039-2.197-0.04c-5.225-0.007-10.451,0.06-15.674-0.031c-7.741-0.134-14.484-6.03-15.478-13.407
		c-1.124-8.354,3.298-15.711,10.971-18.069c1.557-0.479,3.232-0.778,4.854-0.789c10.449-0.07,20.897-0.039,31.346-0.028
		C787.832,84.161,788.359,84.274,789.028,84.352z"/>
	<path fill-rule="evenodd" clip-rule="evenodd" fill="#FFFFFF" d="M674.359,116.349c0-3.787,0-7.402,0-11.372
		c1.077,0,2.054,0,3.029,0c10.633,0,21.265,0.001,31.897-0.001c0.824,0,1.657,0.042,2.472-0.057c2.19-0.264,3.864-2.028,4.064-4.196
		c0.197-2.129-1.17-4.193-3.332-4.78c-0.952-0.258-1.988-0.277-2.986-0.28c-9.35-0.019-18.697-0.011-28.047-0.012
		c-1.002,0-2.003,0-3.344,0c-0.036-1.948-0.083-3.741-0.099-5.533c-0.018-1.827-0.005-3.654-0.005-5.698
		c0.825-0.102,1.516-0.26,2.206-0.26c10.266-0.016,20.53-0.071,30.795,0.01c7.526,0.06,13.917,4.943,15.759,11.816
		c1.888,7.047-0.876,14.364-7.157,18.076c-2.23,1.319-4.866,1.951-7.593,3.004c2.584,3.146,5.452,6.398,8.264,9.694
		c2.842,3.329,5.682,6.659,8.818,10.339c-1.03,0.105-1.611,0.211-2.191,0.215c-3.025,0.017-6.053-0.066-9.074,0.04
		c-1.439,0.051-2.36-0.463-3.27-1.538c-4.967-5.882-10.051-11.665-14.982-17.576c-1.124-1.346-2.275-1.819-3.982-1.793
		c-6.139,0.09-12.282,0.041-18.423,0.029C676.286,116.476,675.392,116.398,674.359,116.349z"/>
	<path fill-rule="evenodd" clip-rule="evenodd" fill="#FFFFFF" d="M349.397,125.904c-1.526,3.823-2.978,7.461-4.489,11.247
		c-3.992,0-7.985,0-12.391,0c5.393-13.763,10.739-27.403,16.244-41.451c-2.785,0-5.12,0-7.63,0c0-3.904,0-7.519,0-11.342
		c8.49,0,16.866,0,25.559,0c3.376,8.589,6.808,17.321,10.351,26.334c-4.241,0-8.128,0-12.375,0
		c-1.423-3.507-2.918-7.194-4.68-11.541c-2.249,5.271-4.057,10.049-5.987,15.202c8.331,0,16.343,0,24.438,0
		c1.506,3.777,2.922,7.333,4.273,10.724c-0.082,0.303-0.092,0.399-0.134,0.478c-0.037,0.072-0.1,0.16-0.168,0.178
		c-0.262,0.071-0.528,0.163-0.793,0.164C370.989,125.904,360.367,125.904,349.397,125.904z"/>
	<path fill-rule="evenodd" clip-rule="evenodd" fill="#FFFFFF" d="M513.018,95.649c-2.794,0-5.072,0-7.728,0
		c-0.114-3.773-0.048-7.393-0.044-10.965c2.084-0.665,19.522-0.888,25.662-0.338c3.369,8.564,6.801,17.29,10.355,26.324
		c-4.261,0-8.143,0-12.377,0c-1.448-3.564-2.983-7.339-4.721-11.616c-2.08,5.304-3.971,10.123-5.99,15.272
		c8.363,0,16.309,0,24.501,0c1.503,3.805,2.965,7.507,4.549,11.516c-11.376,0-22.354,0-33.563,0
		c-1.52,3.793-3.007,7.504-4.536,11.322c-4.044,0-8.012,0-12.392,0C502.163,123.322,507.496,109.729,513.018,95.649z"/>
	<path fill-rule="evenodd" clip-rule="evenodd" fill="#FFFFFF" d="M553.859,137.316c0-17.905,0-35.363,0-52.994
		c3.76,0,7.371,0,11.326,0c0,11.386,0,22.666,0,33.946c0.178,0.058,0.354,0.116,0.532,0.173c0.552-0.667,1.13-1.313,1.649-2.005
		c7.541-10.028,15.109-20.037,22.572-30.121c1.152-1.556,2.32-2.298,4.289-2.208c3.35,0.153,6.71,0.042,10.505,0.042
		c-0.609,0.999-0.919,1.618-1.327,2.164c-12.301,16.42-24.619,32.824-36.896,49.26c-0.896,1.2-1.791,1.857-3.385,1.784
		C560.125,137.218,557.113,137.316,553.859,137.316z"/>
	<path fill-rule="evenodd" clip-rule="evenodd" fill="#FFFFFF" d="M224.089,95.708c0-4.005,0-7.635,0-11.645c0.979,0,1.86,0,2.741,0
		c10.17,0,20.342-0.017,30.512,0.006c8.973,0.02,16.156,7.093,16.223,15.925c0.071,9.196-6.717,16.374-15.795,16.601
		c-3.938,0.099-7.879,0.019-11.819,0.019c-7.422,0-14.843,0-22.266,0c-0.998,0-1.995,0-3.186,0c0-3.908,0-7.604,0-11.644
		c1.044,0,2.023,0,3.001,0c10.445,0,20.89,0.004,31.335-0.007c1.005-0.001,2.027,0.008,3.011-0.165
		c2.307-0.406,3.81-2.086,3.973-4.279c0.136-1.832-1.322-3.843-3.402-4.453c-0.944-0.277-1.978-0.341-2.971-0.344
		c-9.347-0.025-18.692-0.015-28.037-0.015C226.409,95.708,225.411,95.708,224.089,95.708z"/>
	<path fill-rule="evenodd" clip-rule="evenodd" fill="#FFFFFF" d="M460.026,121.939c4.412-5.876,8.552-11.389,12.692-16.901
		c0.205,0.069,0.412,0.138,0.618,0.207c0,2.064,0.021,4.13-0.005,6.194c-0.035,2.743,0.485,5.68-0.334,8.172
		c-0.788,2.399-2.967,4.345-4.552,6.478c-2.242,3.017-4.494,6.026-6.757,9.027c-0.479,0.637-1.023,1.226-1.753,2.09
		c-5.514-7.336-10.879-14.475-16.243-21.613c-0.192,0.045-0.386,0.091-0.578,0.136c-0.107,7.068,0.04,14.144-0.043,21.401
		c-3.81,0-7.43,0-11.062,0c-0.544-1.892-0.743-47.689-0.155-52.539c3.442,4.187,6.346,8.334,9.404,12.352
		c3.109,4.084,6.16,8.213,9.241,12.319C453.577,113.363,456.66,117.46,460.026,121.939z"/>
	<path fill-rule="evenodd" clip-rule="evenodd" fill="#FFFFFF" d="M404.284,110.209c-0.208,1.744-0.478,2.987-0.486,4.232
		c-0.043,6.502-0.02,13.005-0.02,19.507c0,0.993,0,1.986,0,3.173c-3.863,0-7.459,0-11.321,0c-0.048-0.985-0.137-1.959-0.138-2.934
		c-0.014-6.319-0.082-12.64,0.033-18.957c0.039-2.133-0.497-3.83-1.801-5.533c-5.789-7.56-11.462-15.209-17.169-22.831
		c-0.533-0.711-1.021-1.457-1.738-2.487c0.954-0.103,1.545-0.218,2.136-0.222c3.114-0.018,6.228,0.033,9.341-0.029
		c1.116-0.021,1.899,0.313,2.569,1.212C391.926,93.709,398.186,102.06,404.284,110.209z"/>
	<path fill-rule="evenodd" clip-rule="evenodd" fill="#FFFFFF" d="M664.743,84.321c0,3.813,0,7.36,0,10.878
		c-2.179,0.581-45.998,0.822-52.799,0.283c-0.206-3.631-0.106-7.308-0.061-11.161C629.576,84.321,647.009,84.321,664.743,84.321z"/>
	<path fill-rule="evenodd" clip-rule="evenodd" fill="#FFFFFF" d="M293.987,137.23c-3.786,0-7.239,0-10.663,0
		c-0.601-2.007-0.826-48.238-0.255-52.847c3.551,0,7.135,0,10.918,0C293.987,101.967,293.987,119.479,293.987,137.23z"/>
	<path fill-rule="evenodd" clip-rule="evenodd" fill="#FFFFFF" d="M477.041,137.189c0-1.105,0-2.002,0-2.899
		c0-10.817,0.026-21.635-0.028-32.452c-0.008-1.735,0.386-3.162,1.471-4.545c2.659-3.387,5.191-6.874,7.786-10.312
		c0.536-0.71,1.125-1.381,2.031-2.488c0,17.875,0,35.217,0,52.696C484.609,137.189,481.07,137.189,477.041,137.189z"/>
	<path fill-rule="evenodd" clip-rule="evenodd" fill="#FFFFFF" d="M657.113,105.123c0,3.787,0,7.402,0,11.188
		c-15.016,0-29.896,0-44.784,0c-0.606-1.858-0.731-7.812-0.194-11.188C626.984,105.123,641.863,105.123,657.113,105.123z"/>
	<path fill-rule="evenodd" clip-rule="evenodd" fill="#FFFFFF" d="M611.959,137.147c0-3.741,0-7.295,0-10.834
		c1.94-0.578,41.518-0.73,45.126-0.159c0,3.584,0,7.199,0,10.993C642.098,137.147,627.198,137.147,611.959,137.147z"/>
	<path fill-rule="evenodd" clip-rule="evenodd" fill="#FFFFFF" d="M324.428,114.559c0,7.638,0,15.015,0,22.579
		c-8.772,0-17.431,0-26.501,0c-0.152-3.61-0.113-7.287,0.009-11.292c5.088,0,9.979,0,15.192,0c0-3.926,0-7.537,0-11.287
		C316.993,114.559,320.533,114.559,324.428,114.559z"/>
	<path fill-rule="evenodd" clip-rule="evenodd" fill="#FFFFFF" d="M407.36,106.942c-2.231-2.96-4.359-5.782-6.606-8.761
		c3.336-4.463,6.585-8.867,9.923-13.201c0.367-0.478,1.24-0.779,1.887-0.792c3.75-0.074,7.502-0.036,11.172-0.036
		c0.131,0.196,0.193,0.265,0.227,0.347c0.034,0.077,0.053,0.166,0.05,0.248c-0.003,0.09-0.013,0.198-0.063,0.265
		c-5.092,6.825-10.189,13.648-15.293,20.465C408.337,105.904,407.95,106.28,407.36,106.942z"/>
	<path fill-rule="evenodd" clip-rule="evenodd" fill="#FFFFFF" d="M604.504,137.322c-4.043,0-7.798-0.036-11.551,0.022
		c-1.061,0.017-1.693-0.45-2.272-1.23c-3.109-4.191-6.237-8.369-9.541-12.793c2.12-2.822,4.241-5.646,6.359-8.466
		C589.218,116.006,603.109,134.311,604.504,137.322z"/>
	<path fill-rule="evenodd" clip-rule="evenodd" fill="#FFFFFF" d="M235.515,125.993c0,3.804,0,7.35,0,11.217
		c-1.857,0.039-3.647,0.091-5.438,0.109c-1.825,0.019-3.651,0.004-5.857,0.004c-0.219-3.801-0.064-7.479-0.097-11.331
		C228,125.993,231.613,125.993,235.515,125.993z"/>
	<path fill-rule="evenodd" clip-rule="evenodd" fill="#FFFFFF" d="M678.022,125.966c3.934,0,7.545,0,11.323,0
		c0,3.75,0,7.363,0,11.168c-3.674,0-7.286,0-11.287,0C677.957,133.537,678.028,129.922,678.022,125.966z"/>
</g>
</svg>
