<?xml version="1.0" encoding="utf-8"?>
<!-- Generator: Adobe Illustrator 16.0.0, SVG Export Plug-In . SVG Version: 6.00 Build 0)  -->
<!DOCTYPE svg PUBLIC "-//W3C//DTD SVG 1.1//EN" "http://www.w3.org/Graphics/SVG/1.1/DTD/svg11.dtd">
<svg version="1.1" xmlns="http://www.w3.org/2000/svg" xmlns:xlink="http://www.w3.org/1999/xlink" x="0px" y="0px"
	 width="1494.928px" height="756.076px" viewBox="0 0 1494.928 756.076" enable-background="new 0 0 1494.928 756.076"
	 xml:space="preserve">
<g id="Layer_2" display="none">
	<linearGradient id="SVGID_1_" gradientUnits="userSpaceOnUse" x1="-26.2246" y1="386.6597" x2="1794" y2="386.6597">
		<stop  offset="0" style="stop-color:#680D0D"/>
		<stop  offset="1" style="stop-color:#150A0A"/>
	</linearGradient>
	<rect x="-26.225" y="-126.771" display="inline" fill="url(#SVGID_1_)" width="1820.225" height="1026.862"/>
	<path display="inline" fill="#C4945D" stroke="#FBCECF" stroke-width="8" stroke-miterlimit="10" d="M-113.024,210.196h-29.015
		c-22.512,0-40.762,18.25-40.762,40.76v120.68c0,22.51,18.25,40.76,40.762,40.76h29.015c22.511,0,40.76-18.25,40.76-40.76v-120.68
		C-72.264,228.446-90.513,210.196-113.024,210.196z"/>
</g>
<g id="Layer_1">
	<g>
		<path fill="#C4945D" stroke="#FBCECF" stroke-width="7.0002" stroke-miterlimit="10" d="M712.967,406.39
			c4.681,4.681,2.192,14.757-5.557,22.506l-93.684,93.42c-7.748,7.752-13.844,7.902-18.523,3.223l-0.428-0.428
			c-4.68-4.682-6.175-12.42,1.575-20.17l93.684-93.422c7.748-7.749,17.824-10.237,22.506-5.556L712.967,406.39z"/>
		<path fill="#C4945D" stroke="#FBCECF" stroke-width="7.0002" stroke-miterlimit="10" d="M738.968,395.334
			c-7.027,7.027-16.167,9.284-20.411,5.039c-4.244-4.245-1.988-13.383,5.039-20.411l24.388-24.388
			c-13.399-3.106-32.46,4.209-47.925,19.673c-19.945,19.945-26.348,45.879-14.301,57.925c12.046,12.047,37.979,5.644,57.924-14.301
			c15.465-15.464,22.78-34.525,19.674-47.925L738.968,395.334z"/>
	</g>
	<circle fill="#C4945D" stroke="#FBCECF" stroke-width="7.0002" stroke-miterlimit="10" cx="722.034" cy="395.953" r="66.44"/>
	<circle fill="#C4945D" stroke="#FBCECF" stroke-width="7.0002" stroke-miterlimit="10" cx="722.035" cy="395.953" r="49.958"/>
	<path fill="#C4945D" stroke="#FBCECF" stroke-width="8" stroke-miterlimit="10" d="M872.931,129.671H745.353
		c-2.131-10.312-11.264-18.064-22.206-18.064l-134.36-0.035c-12.524,0-22.678,10.153-22.678,22.677v7.883
		c0,12.524,10.153,22.677,22.678,22.677l134.36,0.035c10.942,0,20.075-7.752,22.206-18.064h127.578
		c4.726,0,25.775-3.83,25.775-8.555S877.656,129.671,872.931,129.671z"/>
	<path fill="#C4945D" d="M745.823,142.121c0,12.524-10.153,22.677-22.677,22.677l-134.36-0.035
		c-12.524,0-22.678-10.153-22.678-22.677v-7.883c0-12.524,10.153-22.677,22.678-22.677l134.36,0.035
		c12.523,0,22.677,10.153,22.677,22.677V142.121z"/>
	<g>
		<path fill="#2D2B2F" stroke="#FFF200" stroke-width="8" stroke-miterlimit="10" d="M716.147,583.857l-6.764-28.328h5.855
			l4.271,19.459l5.178-19.459h6.803l4.965,19.787l4.348-19.787h5.76l-6.879,28.328h-6.068l-5.643-21.178l-5.623,21.178H716.147z"/>
	</g>
	
		<text transform="matrix(1 0 0 1 715.2549 660.9541)" fill="#2D2B2F" stroke="#FFF200" stroke-width="8" stroke-miterlimit="10" font-family="'Arial-BoldMT'" font-size="39.5741">S</text>
	
		<text transform="matrix(1 0 0 1 632.749 660.9541)" fill="#2D2B2F" stroke="#FFF200" stroke-width="8" stroke-miterlimit="10" font-family="'Arial-BoldMT'" font-size="39.5741">A</text>
	
		<text transform="matrix(1 0 0 1 793.083 660.9541)" fill="#2D2B2F" stroke="#FFF200" stroke-width="8" stroke-miterlimit="10" font-family="'Arial-BoldMT'" font-size="39.5741">D</text>
	
		<rect x="1072.621" y="84.131" fill="#C4945D" stroke="#FBCECF" stroke-width="8" stroke-miterlimit="10" width="291.011" height="349.612"/>
	
		<rect x="354.534" y="71.972" fill="#C4945D" stroke="#FBCECF" stroke-width="8" stroke-miterlimit="10" width="144.217" height="239.565"/>
	<path fill="#C4945D" stroke="#FBCECF" stroke-width="8" stroke-miterlimit="10" d="M508.803,643.203V351.494H93.059v291.709H49.278
		c0,0-15.609,54.031,52.192,54.031c67.801,0,337.762,0,395.895,0c71,0,55.219-54.031,55.219-54.031H508.803z"/>
	<path fill="#C4945D" stroke="#FBCECF" stroke-width="8" stroke-miterlimit="10" d="M1348.618,526.008
		c-25.602-43.109-65.21-52.102-93.527-34.15h-82.062c-28.316-17.951-67.926-8.959-93.526,34.15
		c-29.726,50.053-39.687,141.955-11.371,159.906c25.631,16.248,79.458-30.801,106.393-79.574h79.073
		c26.934,48.773,80.763,95.822,106.393,79.574C1388.305,667.963,1378.345,576.061,1348.618,526.008z"/>
	<path fill="#C4945D" stroke="#FBCECF" stroke-width="8" stroke-miterlimit="10" d="M953.664,454.431h-29.015
		c-22.512,0-40.762,18.25-40.762,40.759v120.68c0,22.51,18.25,40.76,40.762,40.76h29.015c22.511,0,40.76-18.25,40.76-40.76V495.19
		C994.424,472.681,976.175,454.431,953.664,454.431z"/>
	<g>
		<path fill="#C4945D" d="M698.929,599.226h57.021c1.9,0,3.441-1.54,3.441-3.44v-57.02c0-1.9-1.541-3.441-3.441-3.441h-57.021
			c-1.898,0-3.439,1.541-3.439,3.441v57.02C695.489,597.686,697.03,599.226,698.929,599.226z"/>
		<path fill="#FBCECF" d="M755.949,603.226h-57.021c-4.102,0-7.439-3.338-7.439-7.44v-57.02c0-4.104,3.338-7.441,7.439-7.441h57.021
			c4.103,0,7.441,3.338,7.441,7.441v57.02C763.391,599.888,760.052,603.226,755.949,603.226z M699.489,595.226h55.901v-55.901
			h-55.901V595.226z"/>
	</g>
	<path fill="#C4945D" stroke="#FBCECF" stroke-width="8" stroke-miterlimit="10" d="M695.489,674.94c0,1.9,1.541,3.44,3.439,3.44
		h57.021c1.9,0,3.441-1.54,3.441-3.44v-57.019c0-1.9-1.541-3.441-3.441-3.441h-57.021c-1.898,0-3.439,1.541-3.439,3.441V674.94z"/>
	<path fill="#C4945D" stroke="#FBCECF" stroke-width="8" stroke-miterlimit="10" d="M675.54,678.381c1.9,0,3.441-1.54,3.441-3.44
		v-57.019c0-1.9-1.541-3.441-3.441-3.441h-57.02c-1.9,0-3.441,1.541-3.441,3.441v57.019c0,1.9,1.541,3.44,3.441,3.44H675.54z"/>
	<path fill="#C4945D" stroke="#FBCECF" stroke-width="8" stroke-miterlimit="10" d="M835.514,678.381c1.9,0,3.441-1.54,3.441-3.44
		v-57.019c0-1.9-1.541-3.441-3.441-3.441h-57.02c-1.9,0-3.441,1.541-3.441,3.441v57.019c0,1.9,1.541,3.44,3.441,3.44H835.514z"/>
	<path fill="#C4945D" stroke="#FBCECF" stroke-width="8" stroke-miterlimit="10" d="M844.564,223.867h39.416
		c-8.318-22.084-29.633-37.799-54.627-37.799c-23.969,0-44.553,14.453-53.538,35.115H594.281c-12.524,0-22.678,10.153-22.678,22.678
		v1.144c0,12.524,10.153,22.677,22.678,22.677h181.533c8.985,20.663,29.569,35.117,53.539,35.117
		c24.993,0,46.309-15.715,54.627-37.799h-39.416c-11.358,0-20.566-9.209-20.566-20.566
		C823.998,233.075,833.206,223.867,844.564,223.867z"/>
	<path fill="#C4945D" stroke="#FBCECF" stroke-width="6.8284" stroke-miterlimit="10" d="M1018.323,108.294
		c-6.601,0-11.95,26.105-11.95,32.705V392.34c0,6.6,5.35,11.95,11.95,11.95c6.6,0,11.949-5.35,11.949-11.95V141
		C1030.272,134.399,1024.923,108.294,1018.323,108.294z"/>
	<g>
		<rect x="1072.621" y="84.131" fill="#2D2B2F" width="291.011" height="349.612"/>
		<rect x="1102.835" y="177.562" fill="#C4945D" width="86.267" height="10.61"/>
		<rect x="1135.89" y="199.621" fill="#79ABC9" width="170.923" height="10.61"/>
		<rect x="1135.89" y="222.779" fill="#79ABC9" width="153.187" height="10.61"/>
		<rect x="1102.835" y="245.682" fill="#918F98" width="218.49" height="10.61"/>
		<rect x="1072.621" y="84.131" fill="#918F98" width="291.011" height="10.61"/>
		<rect x="1102.835" y="266.088" fill="#79ABC9" width="192.69" height="10.61"/>
		<rect x="1103.237" y="120.487" fill="#918F98" width="183.404" height="10.61"/>
		<rect x="1103.237" y="140.893" fill="#79ABC9" width="209.412" height="10.61"/>
		<rect x="1141.223" y="352.915" fill="#79ABC9" width="153.187" height="10.61"/>
		<rect x="1102.835" y="311.831" fill="#79ABC9" width="224.939" height="10.61"/>
		<rect x="1102.835" y="331.711" fill="#C4945D" width="192.69" height="10.61"/>
	</g>
	<g>
		<rect x="354.534" y="71.972" fill="#2D2B2F" width="144.217" height="239.565"/>
		<rect x="374.501" y="92.734" fill="#C9C4CF" width="104.283" height="184.634"/>
		<rect x="374.501" y="92.734" fill="#79ABC9" width="104.283" height="26.707"/>
		<rect x="382.444" y="142.287" fill="#918F98" width="57.307" height="26.707"/>
		<rect x="412.315" y="287.581" fill="#918F98" width="28.653" height="13.354"/>
		<rect x="411.098" y="178.401" fill="#79ABC9" width="57.307" height="26.707"/>
		<rect x="382.444" y="216.005" fill="#918F98" width="57.307" height="26.707"/>
	</g>
	
		<rect x="105.298" y="71.971" fill="#C4945D" stroke="#FBCECF" stroke-width="9.151" stroke-miterlimit="10" width="188.702" height="239.565"/>
	<g>
		<rect x="105.298" y="71.972" fill="#2D2B2F" width="188.702" height="239.565"/>
		<rect x="131.424" y="92.734" fill="#C9C4CF" width="136.45" height="117.497"/>
		<circle fill="#C9C4CF" cx="267.102" cy="257.324" r="9.296"/>
		<circle fill="#C9C4CF" cx="221.274" cy="257.324" r="9.296"/>
		<circle fill="#C9C4CF" cx="244.616" cy="233.976" r="9.296"/>
		<circle fill="#C9C4CF" cx="244.616" cy="281.158" r="9.296"/>
		<rect x="126.061" y="251.579" fill="#C9C4CF" width="56.576" height="14.856"/>
		<rect x="146.245" y="230.719" fill="#C9C4CF" width="14.856" height="56.576"/>
		<rect x="190.167" y="179.405" fill="#D16F6D" width="8.9" height="26.701"/>
		<rect x="218.058" y="188.585" fill="#79ABC9" width="17.264" height="17.583"/>
		<rect x="241" y="93.248" fill="#79ABC9" width="26.875" height="116.984"/>
		<rect x="131.424" y="92.991" fill="#79ABC9" width="25.576" height="116.983"/>
		<rect x="194.616" y="197.206" fill="#D16F6D" width="12.933" height="8.9"/>
		<rect x="182.576" y="115.585" fill="#C4945D" width="8.9" height="26.701"/>
		<rect x="187.025" y="115.585" fill="#C4945D" width="12.933" height="8.9"/>
		<rect x="162.341" y="197.377" fill="#39B54A" width="26.701" height="8.9"/>
		<rect x="171.243" y="188.896" fill="#39B54A" width="8.9" height="12.932"/>
	</g>
	<g>
		<rect x="93.059" y="351.494" fill="#2D2B2F" width="415.744" height="291.711"/>
		<path fill="#918F98" d="M497.365,697.236c-58.133,0-328.094,0-395.895,0c-67.802,0-52.192-54.031-52.192-54.031h503.306
			C552.584,643.205,568.365,697.236,497.365,697.236z"/>
		<rect x="119.931" y="378.075" fill="#79ABC9" width="362" height="254.001"/>
		<rect x="150.365" y="405.495" fill="#C9C4CF" width="304.582" height="226.582"/>
		<rect x="294" y="474.953" fill="#C4945D" width="149.142" height="145.598"/>
	</g>
	<g>
		<g>
			<path fill="#2D2B2F" d="M1182.045,591.016c-22.858,53.541-85.597,112.852-113.914,94.9
				c-28.315-17.951-18.354-109.854,11.371-159.908c25.601-43.107,65.21-52.1,93.526-34.148S1200.515,547.758,1182.045,591.016z"/>
			<path fill="#2D2B2F" d="M1246.074,591.016c22.859,53.541,85.599,112.852,113.915,94.9
				c28.315-17.951,18.355-109.854-11.371-159.908c-25.602-43.107-65.21-52.1-93.527-34.148
				C1226.774,509.811,1227.606,547.758,1246.074,591.016z"/>
			<rect x="1155.767" y="491.859" fill="#2D2B2F" width="124.72" height="114.482"/>
		</g>
		<circle fill="#79ABC9" cx="1288.986" cy="511.021" r="10.144"/>
		<path fill="#918F98" d="M1198.72,577.171c0,11.861-9.614,21.477-21.479,21.477c-11.858,0-21.475-9.615-21.475-21.477
			s9.616-21.477,21.475-21.477C1189.105,555.694,1198.72,565.31,1198.72,577.171z"/>
		<path fill="#918F98" d="M1267.651,577.171c0,11.861-9.614,21.477-21.479,21.477c-11.858,0-21.475-9.615-21.475-21.477
			s9.616-21.477,21.475-21.477C1258.037,555.694,1267.651,565.31,1267.651,577.171z"/>
		<circle fill="#D16F6D" cx="1288.986" cy="561.028" r="10.144"/>
		<circle fill="#39B54A" cx="1263.508" cy="535.558" r="10.144"/>
		<circle fill="#C4945D" cx="1314.994" cy="535.558" r="10.144"/>
		<polygon fill="#918F98" points="1145.002,521.862 1138.666,524.876 1132.33,521.862 1132.33,503.896 1145.002,503.896 		"/>
		<polygon fill="#918F98" points="1149.291,538.085 1146.277,531.749 1149.291,525.413 1167.258,525.413 1167.258,538.085 		"/>
		<polygon fill="#918F98" points="1132.33,542.625 1138.666,539.611 1145.002,542.625 1145.002,560.592 1132.33,560.592 		"/>
		<polygon fill="#918F98" points="1128.748,525.413 1131.762,531.749 1128.748,538.085 1110.781,538.085 1110.781,525.413 		"/>
	</g>
	<g>
		<path fill="#918F98" d="M994.424,615.87c0,22.51-18.249,40.76-40.76,40.76h-29.015c-22.512,0-40.762-18.25-40.762-40.76V495.19
			c0-22.51,18.25-40.759,40.762-40.759h29.015c22.511,0,40.76,18.25,40.76,40.759V615.87z"/>
		<path fill="#2D2B2F" d="M947.57,500.671c0,3.428-2.778,6.207-6.206,6.207h-4.417c-3.428,0-6.206-2.779-6.206-6.207v-18.373
			c0-3.428,2.778-6.205,6.206-6.205h4.417c3.428,0,6.206,2.777,6.206,6.205V500.671z"/>
	</g>
	<g>
		<g>
			<path fill="#918F98" d="M759.391,595.785c0,1.9-1.541,3.441-3.441,3.441h-57.021c-1.898,0-3.439-1.541-3.439-3.441v-57.02
				c0-1.9,1.541-3.44,3.439-3.44h57.021c1.9,0,3.441,1.54,3.441,3.44V595.785z"/>
		</g>
		<g>
			<path fill="#918F98" d="M759.391,674.941c0,1.9-1.541,3.44-3.441,3.44h-57.021c-1.898,0-3.439-1.54-3.439-3.44v-57.02
				c0-1.9,1.541-3.441,3.439-3.441h57.021c1.9,0,3.441,1.541,3.441,3.441V674.941z"/>
		</g>
		<g>
			<path fill="#918F98" d="M678.981,674.941c0,1.9-1.541,3.44-3.441,3.44h-57.02c-1.9,0-3.441-1.54-3.441-3.44v-57.02
				c0-1.9,1.541-3.441,3.441-3.441h57.02c1.9,0,3.441,1.541,3.441,3.441V674.941z"/>
		</g>
		<g>
			<path fill="#918F98" d="M838.955,674.941c0,1.9-1.541,3.44-3.441,3.44h-57.02c-1.9,0-3.441-1.54-3.441-3.44v-57.02
				c0-1.9,1.541-3.441,3.441-3.441h57.02c1.9,0,3.441,1.541,3.441,3.441V674.941z"/>
		</g>
	</g>
	<g>
		<path fill="#2D2B2F" d="M716.147,583.858l-6.764-28.328h5.855l4.271,19.459l5.178-19.459h6.803l4.965,19.787l4.348-19.787h5.76
			l-6.879,28.328h-6.068l-5.643-21.179l-5.623,21.179H716.147z"/>
	</g>
	<g>
		<path fill="#2D2B2F" d="M716.685,651.737l5.566-0.541c0.334,1.868,1.014,3.24,2.037,4.116c1.025,0.876,2.406,1.313,4.146,1.313
			c1.842,0,3.229-0.39,4.164-1.169c0.934-0.779,1.4-1.691,1.4-2.734c0-0.67-0.197-1.239-0.59-1.71
			c-0.393-0.47-1.078-0.879-2.057-1.228c-0.67-0.231-2.197-0.644-4.58-1.236c-3.066-0.76-5.217-1.693-6.455-2.802
			c-1.738-1.559-2.608-3.459-2.608-5.7c0-1.443,0.409-2.793,1.228-4.049s1.996-2.212,3.535-2.869
			c1.541-0.656,3.398-0.985,5.576-0.985c3.555,0,6.23,0.78,8.029,2.339c1.797,1.559,2.74,3.639,2.83,6.24l-5.721,0.252
			c-0.244-1.456-0.77-2.502-1.574-3.141c-0.805-0.637-2.014-0.956-3.623-0.956c-1.662,0-2.963,0.341-3.902,1.024
			c-0.607,0.438-0.908,1.023-0.908,1.758c0,0.67,0.283,1.244,0.85,1.72c0.721,0.606,2.473,1.237,5.256,1.894
			c2.783,0.657,4.84,1.337,6.174,2.039s2.377,1.662,3.131,2.879s1.129,2.722,1.129,4.512c0,1.623-0.451,3.144-1.352,4.561
			c-0.902,1.418-2.178,2.471-3.826,3.16c-1.648,0.688-3.703,1.033-6.164,1.033c-3.582,0-6.332-0.828-8.252-2.482
			C718.204,657.318,717.058,654.906,716.685,651.737z"/>
	</g>
	<g>
		<path fill="#2D2B2F" d="M661.173,660.955h-6.222l-2.474-6.436h-11.323l-2.339,6.436h-6.066l11.033-28.328h6.048L661.173,660.955z
			 M650.642,649.747l-3.902-10.512l-3.826,10.512H650.642z"/>
	</g>
	<g>
		<path fill="#2D2B2F" d="M795.942,632.627h10.454c2.357,0,4.154,0.18,5.392,0.541c1.661,0.489,3.084,1.359,4.27,2.608
			s2.088,2.779,2.705,4.589c0.619,1.811,0.928,4.043,0.928,6.695c0,2.332-0.289,4.342-0.869,6.029
			c-0.709,2.062-1.72,3.729-3.033,5.005c-0.992,0.966-2.332,1.72-4.02,2.261c-1.264,0.399-2.951,0.6-5.062,0.6h-10.764V632.627z
			 M801.662,637.419v18.763h4.271c1.598,0,2.75-0.09,3.459-0.271c0.928-0.231,1.697-0.624,2.309-1.179
			c0.611-0.554,1.111-1.465,1.498-2.734c0.387-1.269,0.58-2.998,0.58-5.188c0-2.19-0.193-3.871-0.58-5.044
			c-0.387-1.172-0.928-2.087-1.623-2.744s-1.578-1.101-2.647-1.333c-0.799-0.18-2.364-0.271-4.696-0.271H801.662z"/>
	</g>
	<g>
		<path fill="#918F98" d="M814.619,245.005c0,12.524-10.153,22.677-22.677,22.677H594.281c-12.524,0-22.678-10.153-22.678-22.677
			v-1.144c0-12.524,10.153-22.677,22.678-22.677h197.661c12.523,0,22.677,10.153,22.677,22.677V245.005z"/>
		<path fill="#918F98" d="M844.564,265c-11.358,0-20.566-9.208-20.566-20.566c0-11.358,9.208-20.566,20.566-20.566h39.416
			c-8.318-22.084-29.633-37.799-54.627-37.799c-32.234,0-58.365,26.131-58.365,58.365s26.131,58.365,58.365,58.365
			c24.993,0,46.309-15.715,54.627-37.799H844.564z"/>
	</g>
	<g>
		<path fill="#2D2B2F" d="M712.967,406.39c4.681,4.681,2.192,14.757-5.557,22.506l-93.684,93.42
			c-7.748,7.752-13.844,7.902-18.523,3.223l-0.428-0.428c-4.68-4.682-6.175-12.42,1.575-20.17l93.684-93.422
			c7.748-7.749,17.824-10.237,22.506-5.556L712.967,406.39z"/>
		<path fill="#2D2B2F" d="M738.968,395.334c-7.027,7.027-16.167,9.284-20.411,5.039c-4.244-4.245-1.988-13.383,5.039-20.411
			l24.388-24.388c-13.399-3.106-32.46,4.209-47.925,19.673c-19.945,19.945-26.348,45.879-14.301,57.925
			c12.046,12.047,37.979,5.644,57.924-14.301c15.465-15.464,22.78-34.525,19.674-47.925L738.968,395.334z"/>
	</g>
	<path fill="#2D2B2F" d="M733.294,146.734c-4.726,0-8.555-3.83-8.555-8.555l0,0c0-4.725,3.829-8.555,8.555-8.555h139.637
		c4.726,0,25.775,3.83,25.775,8.555l0,0c0,4.725-21.05,8.555-25.775,8.555H733.294z"/>
	<path fill="#2D2B2F" d="M1018.323,108.294c-2.664,0-5.124,4.254-7.11,9.76c4.853,2.227,9.753,2.213,14.478,0.735
		C1023.66,112.933,1021.104,108.294,1018.323,108.294z"/>
	<path fill="#CEB393" d="M1011.213,118.055c-2.937,8.137-4.84,19.009-4.84,22.945v0.749c7.557,0.991,16.071,0.944,23.899-0.723V141
		c0-3.819-1.794-14.165-4.582-22.209C1020.966,120.268,1016.065,120.281,1011.213,118.055z"/>
	<linearGradient id="SVGID_2_" gradientUnits="userSpaceOnUse" x1="-1394.3613" y1="-177.0161" x2="-1394.3613" y2="-177.0161">
		<stop  offset="0" style="stop-color:#680D0D"/>
		<stop  offset="1" style="stop-color:#150A0A"/>
	</linearGradient>
	<path fill="url(#SVGID_2_)" stroke="#FFF200" stroke-width="8" stroke-miterlimit="10" d="M-1394.361-177.016"/>
	<rect x="159.037" y="426" fill="#918F98" width="124.25" height="108.508"/>
	<rect x="150.367" y="404.737" fill="#2D2B2F" width="304.582" height="13.354"/>
	<circle fill="#2D2B2F" cx="722.034" cy="395.953" r="66.44"/>
	<circle fill="#C9C4CF" cx="722.035" cy="395.953" r="49.958"/>
	<g>
		<path fill="#C4945D" d="M1018.322,142.379v261.912h0.001c6.6,0,11.949-5.35,11.949-11.95V141.025
			C1026.391,141.852,1022.341,142.278,1018.322,142.379z"/>
		<path fill="#CEB393" d="M1006.373,141.748v250.593c0,6.599,5.349,11.949,11.949,11.95V142.379
			C1014.236,142.481,1010.183,142.248,1006.373,141.748z"/>
	</g>
	<rect x="923.571" y="76.696" fill="#CEB393" width="47.998" height="335.7"/>
</g>
</svg>
